<svg width="48" height="342" viewBox="0 0 48 342" fill="none" xmlns="http://www.w3.org/2000/svg">
<path d="M46.9992 320.25L28.5992 334.55L11.6992 320.7L11.6992 311L30.0492 326.6L26.8492 326.6L46.9992 310.5L46.9992 320.25ZM46.9992 341.6L11.6992 341.6L11.6992 333.75L46.9992 333.75L46.9992 341.6Z" fill="#F8F8F8"/>
<path d="M46.9992 310.9L11.6992 296.9L11.6992 289.8L46.9992 275.95L46.9992 284.25L17.6992 294.85L17.6992 292L46.9992 302.75L46.9992 310.9ZM40.5992 302.95L34.1992 302.95L34.1992 283.7L40.5992 283.7L40.5992 302.95Z" fill="#F8F8F8"/>
<path d="M46.9992 267.52L12.1992 267.52L12.1992 259.67L46.9992 259.67L46.9992 267.52ZM18.5492 278.57L11.6992 278.57L11.6992 248.62L18.5492 248.62L18.5492 278.57Z" fill="#F8F8F8"/>
<path d="M46.9992 244.237L11.6992 244.237L11.6992 236.387L46.9992 236.387L46.9992 244.237ZM46.9992 238.237L40.1992 238.237L40.1992 218.887L46.9992 218.887L46.9992 238.237ZM32.2492 238.237L25.6992 238.237L25.6992 220.637L32.2492 220.637L32.2492 238.237ZM18.4492 238.237L11.6992 238.237L11.6992 219.137L18.4492 219.137L18.4492 238.237Z" fill="#F8F8F8"/>
<path d="M47.5492 197.46C47.5492 200.027 47.0826 202.443 46.1492 204.71C45.2159 206.943 43.9325 208.893 42.2992 210.56C40.6325 212.227 38.6992 213.543 36.4992 214.51C34.2659 215.443 31.8659 215.91 29.2992 215.91C26.7325 215.91 24.3492 215.427 22.1492 214.46C19.9492 213.493 18.0325 212.16 16.3992 210.46C14.7325 208.727 13.4492 206.71 12.5492 204.41C11.6159 202.11 11.1492 199.643 11.1492 197.01C11.1492 193.977 11.6992 191.227 12.7992 188.76C13.8992 186.26 15.4159 184.193 17.3492 182.56L22.6992 187.91C21.2325 189.043 20.1325 190.377 19.3992 191.91C18.6659 193.443 18.2992 195.177 18.2992 197.11C18.2992 199.177 18.7659 201.027 19.6992 202.66C20.5992 204.293 21.8825 205.577 23.5492 206.51C25.1825 207.41 27.0992 207.86 29.2992 207.86C31.4992 207.86 33.4325 207.41 35.0992 206.51C36.7659 205.61 38.0659 204.377 38.9992 202.81C39.9325 201.243 40.3992 199.443 40.3992 197.41C40.3992 195.343 40.0159 193.593 39.2492 192.16C38.4492 190.693 37.3159 189.577 35.8492 188.81C34.3492 188.01 32.5325 187.61 30.3992 187.61L33.8992 182.41L33.6492 198.16L26.9992 198.16L26.9992 179.61L28.1492 179.61C32.3825 179.61 35.9492 180.377 38.8492 181.91C41.7159 183.41 43.8825 185.51 45.3492 188.21C46.8159 190.877 47.5492 193.96 47.5492 197.46Z" fill="#F8F8F8"/>
<path d="M47.5992 157.514C47.5992 160.18 47.1325 162.647 46.1992 164.914C45.2659 167.147 43.9659 169.114 42.2992 170.814C40.6325 172.514 38.6992 173.83 36.4992 174.764C34.2659 175.697 31.8659 176.164 29.2992 176.164C26.6992 176.164 24.2992 175.697 22.0992 174.764C19.8992 173.83 17.9825 172.53 16.3492 170.864C14.6825 169.197 13.3992 167.247 12.4992 165.014C11.5659 162.747 11.0992 160.28 11.0992 157.614C11.0992 154.98 11.5659 152.547 12.4992 150.314C13.3992 148.047 14.6825 146.08 16.3492 144.414C17.9825 142.714 19.9159 141.397 22.1492 140.464C24.3492 139.53 26.7492 139.064 29.3492 139.064C31.9159 139.064 34.3159 139.53 36.5492 140.464C38.7492 141.397 40.6825 142.697 42.3492 144.364C43.9825 146.03 45.2659 147.997 46.1992 150.264C47.1325 152.497 47.5992 154.914 47.5992 157.514ZM40.4492 157.614C40.4492 155.514 39.9825 153.68 39.0492 152.114C38.1159 150.514 36.8159 149.28 35.1492 148.414C33.4492 147.547 31.4992 147.114 29.2992 147.114C27.6325 147.114 26.1325 147.364 24.7992 147.864C23.4325 148.364 22.2659 149.08 21.2992 150.014C20.2992 150.947 19.5492 152.064 19.0492 153.364C18.5159 154.63 18.2492 156.047 18.2492 157.614C18.2492 159.714 18.7159 161.564 19.6492 163.164C20.5492 164.73 21.8325 165.947 23.4992 166.814C25.1325 167.68 27.0659 168.114 29.2992 168.114C30.9659 168.114 32.4825 167.864 33.8492 167.364C35.2159 166.864 36.3992 166.164 37.3992 165.264C38.3659 164.33 39.1159 163.214 39.6492 161.914C40.1825 160.614 40.4492 159.18 40.4492 157.614Z" fill="#F8F8F8"/>
<path d="M32.4492 128.081L26.6492 128.081L26.6492 120.631C26.6492 119.064 26.2492 117.864 25.4492 117.031C24.6492 116.164 23.5659 115.731 22.1992 115.731C20.9325 115.731 19.8825 116.147 19.0492 116.981C18.2159 117.814 17.7992 119.014 17.7992 120.581L17.7992 128.081L11.6992 128.081L11.6992 119.681C11.6992 117.347 12.1492 115.297 13.0492 113.531C13.9159 111.764 15.1325 110.381 16.6992 109.381C18.2659 108.381 20.0659 107.881 22.0992 107.881C24.1659 107.881 25.9825 108.381 27.5492 109.381C29.0825 110.381 30.2825 111.781 31.1492 113.581C32.0159 115.381 32.4492 117.497 32.4492 119.931L32.4492 128.081ZM46.9992 134.081L11.6992 134.081L11.6992 126.231L46.9992 126.231L46.9992 134.081ZM46.9992 114.881L31.7992 125.881L29.8492 118.681L46.9992 105.581L46.9992 114.881Z" fill="#F8F8F8"/>
<path d="M46.9992 102.147L11.6992 102.147L11.6992 94.297L46.9992 94.297L46.9992 102.147ZM8.59921 98.197C8.59921 99.397 8.19921 100.397 7.39921 101.197C6.56588 101.964 5.56588 102.347 4.39921 102.347C3.19921 102.347 2.19921 101.964 1.39921 101.197C0.599208 100.397 0.199208 99.397 0.199208 98.197C0.199208 96.997 0.599208 96.0136 1.39921 95.247C2.19921 94.4803 3.19921 94.097 4.39921 94.097C5.56588 94.097 6.56588 94.4803 7.39921 95.247C8.19921 96.0136 8.59921 96.997 8.59921 98.197Z" fill="#F8F8F8"/>
<path d="M46.9992 87.4985L11.6992 87.4985L11.6992 79.6485L46.9992 79.6485L46.9992 87.4985ZM46.9992 81.4485L40.0992 81.4485L40.0992 63.9985L46.9992 63.9985L46.9992 81.4485Z" fill="#F8F8F8"/>
<path d="M46.9992 59.4712L11.6992 59.4712L11.6992 51.6212L46.9992 51.6212L46.9992 59.4712ZM46.9992 53.4712L40.1992 53.4712L40.1992 34.1212L46.9992 34.1212L46.9992 53.4712ZM32.2492 53.4712L25.6992 53.4712L25.6992 35.8712L32.2492 35.8712L32.2492 53.4712ZM18.4492 53.4712L11.6992 53.4712L11.6992 34.3712L18.4492 34.3712L18.4492 53.4712Z" fill="#F8F8F8"/>
<path d="M32.4492 22.7095L26.6492 22.7095L26.6492 15.2595C26.6492 13.6928 26.2492 12.4928 25.4492 11.6595C24.6492 10.7928 23.5659 10.3595 22.1992 10.3595C20.9325 10.3595 19.8825 10.7761 19.0492 11.6095C18.2159 12.4428 17.7992 13.6428 17.7992 15.2095L17.7992 22.7095L11.6992 22.7095L11.6992 14.3095C11.6992 11.9761 12.1492 9.92612 13.0492 8.15945C13.9159 6.39279 15.1325 5.00946 16.6992 4.00946C18.2659 3.00946 20.0659 2.50946 22.0992 2.50946C24.1659 2.50946 25.9825 3.00946 27.5492 4.00946C29.0825 5.00946 30.2825 6.40947 31.1492 8.20947C32.0159 10.0095 32.4492 12.1261 32.4492 14.5595L32.4492 22.7095ZM46.9992 28.7095L11.6992 28.7095L11.6992 20.8595L46.9992 20.8595L46.9992 28.7095ZM46.9992 9.50946L31.7992 20.5095L29.8492 13.3095L46.9992 0.209471L46.9992 9.50946Z" fill="#F8F8F8"/>
</svg>
