<svg width="409" height="203" viewBox="0 0 409 203" fill="none" xmlns="http://www.w3.org/2000/svg">
<path d="M0 123.474L48.1561 27.9727H83.6505L34.4565 123.474H0ZM0 141.704V123.474L10.7936 114.152H117.484V141.704H0ZM69.1206 174.229V83.6991H101.086V174.229H69.1206Z" fill="#545E72"/>
<path d="M290.914 123.474L339.07 27.9727H374.565L325.371 123.474H290.914ZM290.914 141.704V123.474L301.708 114.152H408.398V141.704H290.914ZM360.035 174.229V83.6991H392V174.229H360.035Z" fill="#545E72"/>
<path d="M109.492 101.852L109.492 109.597C109.492 165.639 147.306 203 203.799 203C260.292 203 298.106 165.639 298.106 109.597V101.852C298.106 65.8575 298.106 93.3722 298.106 93.3722H262.57L262.57 109.597C262.57 139.668 248.902 153.793 234.323 161.083C221.567 166.55 208.81 175.663 204.255 187.053C199.699 176.118 186.487 166.55 174.186 161.083C159.607 154.248 145.939 139.668 145.939 109.597L145.94 93.3722L109.948 93.3722C109.492 93.3722 109.492 65.4019 109.492 101.852Z" fill="#D12A2C"/>
<path d="M109.492 101.148L109.492 93.4027C109.492 37.3611 147.306 -4.93878e-06 203.799 0C260.292 4.93878e-06 298.106 37.3611 298.106 93.4027V101.148C298.106 137.142 298.106 109.628 298.106 109.628L262.57 109.628L262.57 93.4027C262.57 63.3316 248.902 49.2073 234.323 41.9173C221.567 36.4498 208.81 27.3374 204.255 15.9468C199.699 26.8817 186.487 36.4498 174.186 41.9173C159.607 48.7516 145.939 63.3316 145.939 93.4027L145.94 109.628H109.948C109.492 109.628 109.492 137.598 109.492 101.148Z" fill="#D12A2C"/>
</svg>
