<svg width="30" height="30" viewBox="0 0 30 30" fill="none" xmlns="http://www.w3.org/2000/svg">
<path fill-rule="evenodd" clip-rule="evenodd" d="M0.666992 4.33335C0.666992 2.30831 2.30861 0.666687 4.33366 0.666687H9.66699C11.692 0.666687 13.3337 2.30831 13.3337 4.33335V9.66669C13.3337 11.6917 11.692 13.3334 9.66699 13.3334H4.33366C2.30861 13.3334 0.666992 11.6917 0.666992 9.66669V4.33335ZM4.33366 2.66669C3.41318 2.66669 2.66699 3.41288 2.66699 4.33335V9.66669C2.66699 10.5872 3.41318 11.3334 4.33366 11.3334H9.66699C10.5875 11.3334 11.3337 10.5872 11.3337 9.66669V4.33335C11.3337 3.41288 10.5875 2.66669 9.66699 2.66669H4.33366ZM23.0003 2.66669C20.6071 2.66669 18.667 4.60679 18.667 7.00002C18.667 9.39326 20.6071 11.3334 23.0003 11.3334C25.3936 11.3334 27.3337 9.39326 27.3337 7.00002C27.3337 4.60679 25.3936 2.66669 23.0003 2.66669ZM16.667 7.00002C16.667 3.50222 19.5025 0.666687 23.0003 0.666687C26.4981 0.666687 29.3337 3.50222 29.3337 7.00002C29.3337 10.4978 26.4981 13.3334 23.0003 13.3334C19.5025 13.3334 16.667 10.4978 16.667 7.00002ZM7.00033 18.6667C4.60709 18.6667 2.66699 20.6068 2.66699 23C2.66699 25.3933 4.60709 27.3334 7.00033 27.3334C9.39356 27.3334 11.3337 25.3933 11.3337 23C11.3337 20.6068 9.39356 18.6667 7.00033 18.6667ZM0.666992 23C0.666992 19.5022 3.50252 16.6667 7.00033 16.6667C10.4981 16.6667 13.3337 19.5022 13.3337 23C13.3337 26.4978 10.4981 29.3334 7.00033 29.3334C3.50252 29.3334 0.666992 26.4978 0.666992 23ZM16.667 20.3334C16.667 18.3083 18.3086 16.6667 20.3337 16.6667H25.667C27.692 16.6667 29.3337 18.3083 29.3337 20.3334V25.6667C29.3337 27.6917 27.692 29.3334 25.667 29.3334H20.3337C18.3086 29.3334 16.667 27.6917 16.667 25.6667V20.3334ZM20.3337 18.6667C19.4132 18.6667 18.667 19.4129 18.667 20.3334V25.6667C18.667 26.5872 19.4132 27.3334 20.3337 27.3334H25.667C26.5875 27.3334 27.3337 26.5872 27.3337 25.6667V20.3334C27.3337 19.4129 26.5875 18.6667 25.667 18.6667H20.3337Z" fill="#06337A"/>
</svg>
