<svg width="41" height="41" viewBox="0 0 41 41" fill="none" xmlns="http://www.w3.org/2000/svg">
<path fill-rule="evenodd" clip-rule="evenodd" d="M8.54167 6.40625C7.36231 6.40625 6.40625 7.36231 6.40625 8.54167C6.40625 22.9298 18.0702 34.5938 32.4583 34.5938C33.6377 34.5938 34.5938 33.6377 34.5938 32.4583V29.6465C34.5938 28.7733 34.0621 27.9881 33.2514 27.6638L29.7764 26.2739C28.7453 25.8614 27.5701 26.3082 27.0734 27.3015L26.771 27.9063C26.5126 28.4231 25.9403 28.703 25.3737 28.5897L25.625 27.3333C25.3737 28.5897 25.3741 28.5898 25.3737 28.5897L25.372 28.5894L25.3699 28.5889L25.3645 28.5878L25.3491 28.5846L25.3 28.574C25.2593 28.565 25.2029 28.5521 25.132 28.5349C24.9903 28.5004 24.7905 28.4485 24.5428 28.3757C24.0479 28.2301 23.3587 28 22.5578 27.6568C20.962 26.9729 18.8875 25.8244 17.0315 23.9685C15.1756 22.1125 14.0271 20.038 13.3432 18.4422C13 17.6413 12.7699 16.9521 12.6243 16.4572C12.5515 16.2095 12.4996 16.0097 12.4651 15.868C12.4479 15.7971 12.435 15.7407 12.426 15.7L12.4154 15.6509L12.4122 15.6355L12.4111 15.6301L12.4106 15.628C12.4106 15.6276 12.4103 15.6263 13.6667 15.375L12.4103 15.6263C12.297 15.0597 12.5769 14.4874 13.0937 14.229L13.6985 13.9266C14.6918 13.4299 15.1386 12.2548 14.7261 11.2236L13.3362 7.74859C13.0119 6.93786 12.2267 6.40625 11.3535 6.40625H8.54167ZM15.1755 16.0363C17.1269 14.8579 17.9656 12.4225 17.1054 10.2719L15.7154 6.79691C15.0019 5.0133 13.2745 3.84375 11.3535 3.84375H8.54167C5.94708 3.84375 3.84375 5.94708 3.84375 8.54167C3.84375 24.3451 16.6549 37.1562 32.4583 37.1562C35.0529 37.1562 37.1562 35.0529 37.1562 32.4583V29.6465C37.1562 27.7255 35.9867 25.9981 34.2031 25.2846L30.7281 23.8946C28.5775 23.0344 26.1421 23.8731 24.9637 25.8245C24.5839 25.703 24.1063 25.5326 23.5672 25.3015C22.1735 24.7042 20.4042 23.7172 18.8435 22.1565C17.2828 20.5958 16.2958 18.8265 15.6985 17.4328C15.4674 16.8937 15.297 16.4161 15.1755 16.0363Z" fill="#DEE2E6"/>
</svg>
