<svg width="35" height="37" viewBox="0 0 35 37" fill="none" xmlns="http://www.w3.org/2000/svg">
<path fill-rule="evenodd" clip-rule="evenodd" d="M9.57309 1.82158C10.7248 0.593091 12.4344 0.135376 14.5117 0.135376H20.4909C22.5682 0.135376 24.2778 0.593091 25.4295 1.82158C26.5647 3.03247 26.8971 4.71992 26.8971 6.54163V9.95829C26.8971 10.6659 26.3235 11.2395 25.6159 11.2395H9.38672C8.6791 11.2395 8.10547 10.6659 8.10547 9.95829V6.54163C8.10547 4.71992 8.43788 3.03247 9.57309 1.82158ZM11.4425 3.57418C10.9762 4.07162 10.668 4.94667 10.668 6.54163V8.67704H24.3346V6.54163C24.3346 4.94667 24.0264 4.07162 23.5601 3.57418C23.1102 3.09433 22.2573 2.69788 20.4909 2.69788H14.5117C12.7453 2.69788 11.8924 3.09433 11.4425 3.57418Z" fill="#DEE2E6"/>
<path fill-rule="evenodd" clip-rule="evenodd" d="M9.38672 23.625C9.38672 22.9174 9.96035 22.3438 10.668 22.3438H24.3346C25.0422 22.3438 25.6159 22.9174 25.6159 23.625V30.4583C25.6159 32.3642 25.1386 34.0289 23.9594 35.2081C22.7802 36.3873 21.1155 36.8646 19.2096 36.8646H15.793C13.8871 36.8646 12.2224 36.3873 11.0432 35.2081C9.86404 34.0289 9.38672 32.3642 9.38672 30.4583V23.625ZM11.9492 24.9062V30.4583C11.9492 31.9692 12.3261 32.867 12.8552 33.3961C13.3843 33.9252 14.2821 34.3021 15.793 34.3021H19.2096C20.7205 34.3021 21.6183 33.9252 22.1474 33.3961C22.6765 32.867 23.0534 31.9692 23.0534 30.4583V24.9062H11.9492Z" fill="#DEE2E6"/>
<path fill-rule="evenodd" clip-rule="evenodd" d="M4.31223 12.1455C3.78309 12.6746 3.40625 13.5724 3.40625 15.0833V23.6249C3.40625 25.1358 3.78309 26.0335 4.31223 26.5627C4.84137 27.0918 5.73916 27.4687 7.25 27.4687H9.38542V23.6249C9.38542 22.9173 9.95905 22.3437 10.6667 22.3437H24.3333C25.0409 22.3437 25.6146 22.9173 25.6146 23.6249V27.4687H27.75C29.2608 27.4687 30.1586 27.0918 30.6878 26.5627C31.2169 26.0335 31.5938 25.1358 31.5938 23.6249V15.0833C31.5938 13.5724 31.2169 12.6746 30.6878 12.1455C30.1586 11.6163 29.2608 11.2395 27.75 11.2395H7.25C5.73916 11.2395 4.84137 11.6163 4.31223 12.1455ZM2.50027 10.3335C3.67946 9.15433 5.34417 8.677 7.25 8.677H27.75C29.6558 8.677 31.3205 9.15433 32.4997 10.3335C33.6789 11.5127 34.1562 13.1774 34.1562 15.0833V23.6249C34.1562 25.5307 33.6789 27.1955 32.4997 28.3746C31.3205 29.5538 29.6558 30.0312 27.75 30.0312H24.3333C23.6257 30.0312 23.0521 29.4575 23.0521 28.7499V24.9062H11.9479V28.7499C11.9479 29.4575 11.3743 30.0312 10.6667 30.0312H7.25C5.34417 30.0312 3.67946 29.5538 2.50027 28.3746C1.32108 27.1955 0.84375 25.5307 0.84375 23.6249V15.0833C0.84375 13.1774 1.32108 11.5127 2.50027 10.3335Z" fill="#DEE2E6"/>
<path fill-rule="evenodd" clip-rule="evenodd" d="M7.67578 23.625C7.67578 22.9174 8.24942 22.3438 8.95703 22.3438H26.0404C26.748 22.3438 27.3216 22.9174 27.3216 23.625C27.3216 24.3326 26.748 24.9062 26.0404 24.9062H8.95703C8.24942 24.9062 7.67578 24.3326 7.67578 23.625Z" fill="#DEE2E6"/>
<path fill-rule="evenodd" clip-rule="evenodd" d="M7.67578 16.7916C7.67578 16.084 8.24942 15.5104 8.95703 15.5104H14.082C14.7896 15.5104 15.3633 16.084 15.3633 16.7916C15.3633 17.4992 14.7896 18.0729 14.082 18.0729H8.95703C8.24942 18.0729 7.67578 17.4992 7.67578 16.7916Z" fill="#DEE2E6"/>
</svg>
