<svg width="21" height="20" viewBox="0 0 21 20" fill="none" xmlns="http://www.w3.org/2000/svg">
<path d="M15.3967 3.46C15.1594 3.46 14.9274 3.53038 14.73 3.66224C14.5327 3.79409 14.3789 3.98151 14.2881 4.20078C14.1973 4.42005 14.1735 4.66133 14.2198 4.89411C14.2661 5.12689 14.3804 5.34071 14.5482 5.50853C14.716 5.67635 14.9298 5.79064 15.1626 5.83694C15.3954 5.88324 15.6367 5.85948 15.856 5.76866C16.0752 5.67783 16.2626 5.52402 16.3945 5.32668C16.5264 5.12935 16.5967 4.89734 16.5967 4.66C16.5967 4.34174 16.4703 4.03652 16.2453 3.81147C16.0202 3.58643 15.715 3.46 15.3967 3.46ZM19.9967 5.88C19.9773 5.0503 19.8219 4.2294 19.5367 3.45C19.2825 2.78313 18.8867 2.17928 18.3767 1.68C17.8816 1.16743 17.2763 0.774176 16.6067 0.53C15.8294 0.236161 15.0076 0.07721 14.1767 0.0599999C13.1167 -5.58794e-08 12.7767 0 10.0567 0C7.33673 0 6.99673 -5.58794e-08 5.93673 0.0599999C5.10589 0.07721 4.28408 0.236161 3.50673 0.53C2.83841 0.776649 2.23367 1.16956 1.73673 1.68C1.22416 2.17518 0.830909 2.78044 0.586732 3.45C0.292893 4.22734 0.133942 5.04915 0.116732 5.88C0.0567321 6.94 0.0567322 7.28 0.0567322 10C0.0567322 12.72 0.0567321 13.06 0.116732 14.12C0.133942 14.9508 0.292893 15.7727 0.586732 16.55C0.830909 17.2196 1.22416 17.8248 1.73673 18.32C2.23367 18.8304 2.83841 19.2234 3.50673 19.47C4.28408 19.7638 5.10589 19.9228 5.93673 19.94C6.99673 20 7.33673 20 10.0567 20C12.7767 20 13.1167 20 14.1767 19.94C15.0076 19.9228 15.8294 19.7638 16.6067 19.47C17.2763 19.2258 17.8816 18.8326 18.3767 18.32C18.889 17.8226 19.2851 17.2182 19.5367 16.55C19.8219 15.7706 19.9773 14.9497 19.9967 14.12C19.9967 13.06 20.0567 12.72 20.0567 10C20.0567 7.28 20.0567 6.94 19.9967 5.88ZM18.1967 14C18.1895 14.6348 18.0745 15.2637 17.8567 15.86C17.6971 16.2952 17.4406 16.6884 17.1067 17.01C16.7824 17.3405 16.39 17.5964 15.9567 17.76C15.3604 17.9778 14.7315 18.0927 14.0967 18.1C13.0967 18.15 12.7267 18.16 10.0967 18.16C7.46673 18.16 7.09673 18.16 6.09673 18.1C5.43762 18.1123 4.78133 18.0109 4.15673 17.8C3.74251 17.6281 3.36809 17.3728 3.05673 17.05C2.72482 16.7287 2.47158 16.3352 2.31673 15.9C2.07259 15.2952 1.93718 14.6519 1.91673 14C1.91673 13 1.85673 12.63 1.85673 10C1.85673 7.37 1.85673 7 1.91673 6C1.92121 5.35106 2.03968 4.70795 2.26673 4.1C2.44278 3.67791 2.713 3.30166 3.05673 3C3.36055 2.65617 3.73602 2.3831 4.15673 2.2C4.76628 1.98004 5.40873 1.86508 6.05673 1.86C7.05673 1.86 7.42673 1.8 10.0567 1.8C12.6867 1.8 13.0567 1.8 14.0567 1.86C14.6915 1.86728 15.3204 1.98225 15.9167 2.2C16.3712 2.36865 16.779 2.64285 17.1067 3C17.4344 3.30718 17.6905 3.68273 17.8567 4.1C18.079 4.70893 18.194 5.35178 18.1967 6C18.2467 7 18.2567 7.37 18.2567 10C18.2567 12.63 18.2467 13 18.1967 14ZM10.0567 4.87C9.04254 4.87198 8.0517 5.17453 7.20939 5.73942C6.36708 6.30431 5.71111 7.1062 5.32437 8.04375C4.93762 8.98131 4.83746 10.0125 5.03653 11.0069C5.2356 12.0014 5.72497 12.9145 6.44281 13.631C7.16065 14.3474 8.07474 14.835 9.06959 15.0321C10.0644 15.2293 11.0954 15.1271 12.0322 14.7385C12.969 14.35 13.7696 13.6924 14.3329 12.849C14.8961 12.0056 15.1967 11.0142 15.1967 10C15.1981 9.3251 15.0659 8.65661 14.808 8.03296C14.55 7.40931 14.1713 6.84281 13.6936 6.36605C13.2159 5.88929 12.6487 5.51168 12.0245 5.25493C11.4004 4.99818 10.7316 4.86736 10.0567 4.87ZM10.0567 13.33C9.39812 13.33 8.7543 13.1347 8.20668 12.7688C7.65907 12.4029 7.23225 11.8828 6.98021 11.2743C6.72817 10.6659 6.66223 9.99631 6.79072 9.35035C6.91921 8.70439 7.23636 8.11104 7.70207 7.64533C8.16778 7.17963 8.76113 6.86247 9.40708 6.73398C10.053 6.6055 10.7226 6.67144 11.3311 6.92348C11.9395 7.17552 12.4596 7.60234 12.8255 8.14995C13.1914 8.69757 13.3867 9.34139 13.3867 10C13.3867 10.4373 13.3006 10.8703 13.1333 11.2743C12.9659 11.6784 12.7206 12.0454 12.4114 12.3547C12.1022 12.6639 11.7351 12.9092 11.3311 13.0765C10.9271 13.2439 10.494 13.33 10.0567 13.33Z" fill="white"/>
</svg>
