<svg width="41" height="41" viewBox="0 0 41 41" fill="none" xmlns="http://www.w3.org/2000/svg">
<path fill-rule="evenodd" clip-rule="evenodd" d="M20.5 14.9479C18.3772 14.9479 16.6562 16.6688 16.6562 18.7916C16.6562 20.9145 18.3772 22.6354 20.5 22.6354C22.6228 22.6354 24.3438 20.9145 24.3438 18.7916C24.3438 16.6688 22.6228 14.9479 20.5 14.9479ZM14.0938 18.7916C14.0938 15.2536 16.9619 12.3854 20.5 12.3854C24.0381 12.3854 26.9062 15.2536 26.9062 18.7916C26.9062 22.3297 24.0381 25.1979 20.5 25.1979C16.9619 25.1979 14.0938 22.3297 14.0938 18.7916Z" fill="#DEE2E6"/>
<path fill-rule="evenodd" clip-rule="evenodd" d="M20.5 4.69788C12.7012 4.69788 6.40625 10.9378 6.40625 18.6018C6.40625 22.3669 8.60133 26.8264 11.6292 30.4107C13.126 32.1827 14.7778 33.6809 16.3687 34.7259C17.9858 35.7881 19.4171 36.302 20.5 36.302C21.5829 36.302 23.0142 35.7881 24.6313 34.7259C26.2222 33.6809 27.874 32.1827 29.3708 30.4107C32.3987 26.8264 34.5938 22.3669 34.5938 18.6018C34.5938 10.9378 28.2988 4.69788 20.5 4.69788ZM3.84375 18.6018C3.84375 9.49269 11.3161 2.13538 20.5 2.13538C29.6839 2.13538 37.1562 9.49269 37.1562 18.6018C37.1562 23.2233 34.5466 28.2545 31.3284 32.0643C29.7022 33.9894 27.8705 35.6641 26.0381 36.8677C24.2319 38.0541 22.2999 38.8645 20.5 38.8645C18.7001 38.8645 16.7681 38.0541 14.9619 36.8677C13.1295 35.6641 11.2978 33.9894 9.67162 32.0643C6.45335 28.2545 3.84375 23.2233 3.84375 18.6018Z" fill="#DEE2E6"/>
</svg>
