<svg width="41" height="41" viewBox="0 0 41 41" fill="none" xmlns="http://www.w3.org/2000/svg">
<path fill-rule="evenodd" clip-rule="evenodd" d="M2.13477 11.9583C2.13477 7.47677 5.76779 3.84375 10.2493 3.84375H30.7493C35.2309 3.84375 38.8639 7.47677 38.8639 11.9583V29.0417C38.8639 33.5232 35.2309 37.1562 30.7493 37.1562H10.2493C5.76779 37.1562 2.13477 33.5232 2.13477 29.0417V11.9583ZM10.2493 6.40625C7.18302 6.40625 4.69727 8.892 4.69727 11.9583V29.0417C4.69727 32.108 7.18302 34.5938 10.2493 34.5938H30.7493C33.8157 34.5938 36.3014 32.108 36.3014 29.0417V11.9583C36.3014 8.892 33.8157 6.40625 30.7493 6.40625H10.2493ZM9.18328 12.956C9.5758 12.3672 10.3713 12.2081 10.9601 12.6006L17.4196 16.907C19.2846 18.1503 21.7141 18.1503 23.5791 16.907L30.0386 12.6006C30.6274 12.2081 31.4229 12.3672 31.8154 12.956C32.2079 13.5447 32.0488 14.3402 31.4601 14.7327L25.0005 19.0391C22.2748 20.8562 18.7239 20.8562 15.9982 19.0391L9.53864 14.7327C8.94987 14.3402 8.79077 13.5447 9.18328 12.956Z" fill="#DEE2E6"/>
</svg>
