<svg width="41" height="41" viewBox="0 0 41 41" fill="none" xmlns="http://www.w3.org/2000/svg">
<path fill-rule="evenodd" clip-rule="evenodd" d="M12.5711 3.82158C13.7228 2.59309 15.4324 2.13538 17.5098 2.13538H23.4889C25.5663 2.13538 27.2759 2.59309 28.4276 3.82158C29.5628 5.03247 29.8952 6.71992 29.8952 8.54163V11.9583C29.8952 12.6659 29.3215 13.2395 28.6139 13.2395H12.3848C11.6772 13.2395 11.1035 12.6659 11.1035 11.9583V8.54163C11.1035 6.71992 11.4359 5.03247 12.5711 3.82158ZM14.4406 5.57418C13.9742 6.07162 13.666 6.94667 13.666 8.54163V10.677H27.3327V8.54163C27.3327 6.94667 27.0245 6.07162 26.5581 5.57418C26.1083 5.09433 25.2553 4.69788 23.4889 4.69788H17.5098C15.7434 4.69788 14.8904 5.09433 14.4406 5.57418Z" fill="#DEE2E6"/>
<path fill-rule="evenodd" clip-rule="evenodd" d="M12.3848 25.625C12.3848 24.9174 12.9584 24.3438 13.666 24.3438H27.3327C28.0403 24.3438 28.6139 24.9174 28.6139 25.625V32.4583C28.6139 34.3642 28.1366 36.0289 26.9574 37.2081C25.7782 38.3873 24.1135 38.8646 22.2077 38.8646H18.791C16.8852 38.8646 15.2205 38.3873 14.0413 37.2081C12.8621 36.0289 12.3848 34.3642 12.3848 32.4583V25.625ZM14.9473 26.9062V32.4583C14.9473 33.9692 15.3241 34.867 15.8532 35.3961C16.3824 35.9252 17.2802 36.3021 18.791 36.3021H22.2077C23.7185 36.3021 24.6163 35.9252 25.1455 35.3961C25.6746 34.867 26.0514 33.9692 26.0514 32.4583V26.9062H14.9473Z" fill="#DEE2E6"/>
<path fill-rule="evenodd" clip-rule="evenodd" d="M7.31223 14.1455C6.78309 14.6746 6.40625 15.5724 6.40625 17.0833V25.6249C6.40625 27.1358 6.78309 28.0335 7.31223 28.5627C7.84137 29.0918 8.73916 29.4687 10.25 29.4687H12.3854V25.6249C12.3854 24.9173 12.9591 24.3437 13.6667 24.3437H27.3333C28.0409 24.3437 28.6146 24.9173 28.6146 25.6249V29.4687H30.75C32.2608 29.4687 33.1586 29.0918 33.6878 28.5627C34.2169 28.0335 34.5938 27.1358 34.5938 25.6249V17.0833C34.5938 15.5724 34.2169 14.6746 33.6878 14.1455C33.1586 13.6163 32.2608 13.2395 30.75 13.2395H10.25C8.73916 13.2395 7.84137 13.6163 7.31223 14.1455ZM5.50027 12.3335C6.67946 11.1543 8.34417 10.677 10.25 10.677H30.75C32.6558 10.677 34.3205 11.1543 35.4997 12.3335C36.6789 13.5127 37.1562 15.1774 37.1562 17.0833V25.6249C37.1562 27.5307 36.6789 29.1955 35.4997 30.3746C34.3205 31.5538 32.6558 32.0312 30.75 32.0312H27.3333C26.6257 32.0312 26.0521 31.4575 26.0521 30.7499V26.9062H14.9479V30.7499C14.9479 31.4575 14.3743 32.0312 13.6667 32.0312H10.25C8.34417 32.0312 6.67946 31.5538 5.50027 30.3746C4.32108 29.1955 3.84375 27.5307 3.84375 25.6249V17.0833C3.84375 15.1774 4.32108 13.5127 5.50027 12.3335Z" fill="#DEE2E6"/>
<path fill-rule="evenodd" clip-rule="evenodd" d="M10.6777 25.625C10.6777 24.9174 11.2514 24.3438 11.959 24.3438H29.0423C29.7499 24.3438 30.3236 24.9174 30.3236 25.625C30.3236 26.3326 29.7499 26.9062 29.0423 26.9062H11.959C11.2514 26.9062 10.6777 26.3326 10.6777 25.625Z" fill="#DEE2E6"/>
<path fill-rule="evenodd" clip-rule="evenodd" d="M10.6777 18.7916C10.6777 18.084 11.2514 17.5104 11.959 17.5104H17.084C17.7916 17.5104 18.3652 18.084 18.3652 18.7916C18.3652 19.4992 17.7916 20.0729 17.084 20.0729H11.959C11.2514 20.0729 10.6777 19.4992 10.6777 18.7916Z" fill="#DEE2E6"/>
</svg>
