<svg width="21" height="20" viewBox="0 0 21 20" fill="none" xmlns="http://www.w3.org/2000/svg">
<path d="M14.9716 12.01C14.7719 11.9101 13.4735 11.3109 13.2738 11.211C13.074 11.1111 12.8743 11.1111 12.6745 11.3109C12.4748 11.5106 12.0753 12.1099 11.8755 12.3096C11.7756 12.5094 11.5759 12.5094 11.3761 12.4095C10.677 12.1099 9.97788 11.7104 9.37863 11.211C8.87925 10.7116 8.37988 10.1124 7.98038 9.51311C7.8805 9.31336 7.98037 9.11361 8.08025 9.01373C8.18013 8.91386 8.28 8.71411 8.47975 8.61423C8.57963 8.51436 8.6795 8.31461 8.6795 8.21473C8.77938 8.11486 8.77938 7.91511 8.6795 7.81523C8.57963 7.71536 8.08025 6.51685 7.8805 6.01748C7.78062 5.31835 7.58087 5.31835 7.38112 5.31835C7.28125 5.31835 7.0815 5.31835 6.88175 5.31835C6.682 5.31835 6.38237 5.5181 6.2825 5.61798C5.68325 6.21723 5.38362 6.91635 5.38362 7.71536C5.4835 8.61423 5.78312 9.51311 6.38237 10.3121C7.481 11.9101 8.87925 13.2085 10.5771 14.0075C11.0765 14.2072 11.476 14.407 11.9754 14.5069C12.4748 14.7066 12.9741 14.7066 13.5734 14.6067C14.2725 14.5069 14.8718 14.0075 15.2713 13.4082C15.471 13.0087 15.471 12.6092 15.3711 12.2097C15.3711 12.2097 15.1714 12.1099 14.9716 12.01ZM17.4685 2.92135C13.5734 -0.973783 7.28125 -0.973783 3.38612 2.92135C0.190112 6.11735 -0.409139 11.0112 1.78811 14.9064L0.389862 20L5.68325 18.6017C7.18137 19.4007 8.77938 19.8002 10.3774 19.8002C15.8705 19.8002 20.265 15.4057 20.265 9.91261C20.3649 7.31585 19.2663 4.81898 17.4685 2.92135ZM14.7719 16.9039C13.4735 17.7029 11.9754 18.2022 10.3774 18.2022C8.87925 18.2022 7.481 17.8027 6.18262 17.1036L5.883 16.9039L2.78687 17.7029L3.58587 14.7066L3.38612 14.407C0.989113 10.412 2.18761 5.41823 6.08275 2.92135C9.97788 0.42447 14.9716 1.72285 17.3686 5.5181C19.7656 9.41323 18.667 14.5069 14.7719 16.9039Z" fill="white"/>
</svg>
