<svg width="469" height="470" viewBox="0 0 469 470" fill="none" xmlns="http://www.w3.org/2000/svg">
<g style="mix-blend-mode:color-dodge" opacity="0.5">
<path fill-rule="evenodd" clip-rule="evenodd" d="M234.282 469.592C165.478 469.592 109.303 447.173 65.3203 402.741C21.7734 357.494 0 301.648 0 234.796C0 167.944 21.7734 111.691 65.3203 66.8517C109.303 22.0121 165.914 0 234.282 0C302.651 0 357.956 22.8274 401.938 68.4822C446.356 114.137 469 169.575 469 235.204C469 300.833 447.227 357.901 403.68 403.148C360.133 447.988 303.522 470 234.718 470M234.718 381.951C276.087 381.951 308.312 367.277 331.392 337.927C352.294 311.023 362.746 276.782 362.746 235.204C362.746 193.625 351.859 159.792 330.521 132.888C307.006 103.131 274.781 88.0486 234.282 88.0486C193.784 88.0486 161.995 102.723 138.044 132.888C116.706 159.792 105.819 193.625 105.819 235.204C105.819 276.782 116.27 311.023 137.173 337.927C160.253 367.277 192.477 381.951 233.847 381.951H234.718Z" fill="url(#paint0_linear_4910_781)"/>
</g>
<defs>
<linearGradient id="paint0_linear_4910_781" x1="-199.257" y1="96.8765" x2="234.859" y2="469.582" gradientUnits="userSpaceOnUse">
<stop stop-color="#0B6DC7"/>
<stop offset="1" stop-color="#0B6DC7" stop-opacity="0"/>
</linearGradient>
</defs>
</svg>
