<svg width="278" height="555" viewBox="0 0 278 555" fill="none" xmlns="http://www.w3.org/2000/svg">
<path fill-rule="evenodd" clip-rule="evenodd" d="M277.242 554.519C195.822 554.519 129.345 528.044 77.298 475.577C25.766 422.147 0 356.201 0 277.259C0 198.317 25.766 131.891 77.298 78.9419C129.345 25.9931 196.337 0 277.242 0C358.148 0 423.593 26.9558 475.641 80.8673C528.203 134.779 555 200.243 555 277.741C555 355.238 529.234 422.628 477.702 476.058C426.17 529.007 359.178 555 277.758 555M277.758 451.028C326.713 451.028 364.847 433.699 392.159 399.042C416.894 367.272 429.262 326.839 429.262 277.741C429.262 228.643 416.379 188.69 391.128 156.921C363.301 121.782 325.167 103.972 277.242 103.972C229.318 103.972 191.699 121.301 163.357 156.921C138.106 188.69 125.223 228.643 125.223 277.741C125.223 326.839 137.591 367.272 162.326 399.042C189.638 433.699 227.772 451.028 276.727 451.028H277.758Z" fill="#0B6DC7"/>
</svg>
