<svg width="758" height="752" viewBox="0 0 758 752" fill="none" xmlns="http://www.w3.org/2000/svg">
<path d="M57.1218 692.062L0.781863 198.875C-1.13967 181.943 3.71508 164.241 14.961 146.461C26.7459 128.527 43.6118 116.134 64.6344 110.129C85.1179 104.278 105.138 104.969 124.849 112.741C142.789 120.436 156.493 131.671 166.5 146.294L361.635 451.828L363.252 451.366L367.562 88.8605C367.797 71.3124 374.037 54.3796 385.745 38.2159C397.838 21.3595 414.472 10.1981 434.417 4.50101C455.978 -1.65806 476.846 -0.0436083 497.018 9.34438C515.265 18.1168 528.045 30.1992 535.896 45.4376L749.097 493.818C750.56 496.896 752.484 501.591 754.33 508.056C759.409 525.834 757.788 542.613 749.007 556.775C740.919 571.322 728.443 580.713 710.654 585.794C672.383 596.726 644.742 583.645 627.963 545.318L480.343 216.305L478.726 216.767L478.339 599.129C478.023 634.764 460 657.393 424.962 667.402C389.925 677.41 362.129 667.869 343.578 637.623L141.286 313.156L139.669 313.618L188.106 670.963C193.41 711.985 177.542 738.077 139.27 749.01C122.021 753.937 105.928 752.707 90.8375 744.781C76.2859 736.701 66.7404 723.694 61.662 705.916C59.8153 699.451 58.5842 695.141 58.585 691.062" fill="#0B6DC7"/>
</svg>
