<svg width="391" height="866" viewBox="0 0 391 866" fill="none" xmlns="http://www.w3.org/2000/svg">
<path fill-rule="evenodd" clip-rule="evenodd" d="M-41.9015 865.249C-168.8 865.249 -272.408 823.939 -353.526 742.071C-433.842 658.701 -474 555.802 -474 432.624C-474 309.447 -433.842 205.797 -353.526 123.178C-272.408 40.5585 -167.997 0 -41.9015 0C84.1941 0 186.195 42.0607 267.314 126.182C349.236 210.304 391 312.451 391 433.375C391 554.3 350.842 659.452 270.526 742.822C190.211 825.441 85.8006 866 -41.0982 866M-41.0982 703.766C35.2017 703.766 94.6351 676.727 137.202 622.649C175.754 573.077 195.03 509.986 195.03 433.375C195.03 356.765 174.951 294.425 135.596 244.853C92.2256 190.024 32.7921 162.234 -41.9015 162.234C-116.595 162.234 -175.225 189.273 -219.399 244.853C-258.754 294.425 -278.833 356.765 -278.833 433.375C-278.833 509.986 -259.557 573.077 -221.005 622.649C-178.438 676.727 -119.004 703.766 -42.7045 703.766H-41.0982Z" fill="#E9ECEF"/>
</svg>
