<svg width="335" height="35" viewBox="0 0 335 35" fill="none" xmlns="http://www.w3.org/2000/svg">
<g clip-path="url(#clip0_4543_1732)">
<path d="M272.667 7C278.023 7 281.015 11.62 285.259 19.18C289.363 26.6 294.024 35 303.833 35C313.642 35 318.373 26.6 322.478 19.18C326.721 11.62 329.643 7 335 7V0C325.191 0 320.53 8.4 316.425 15.75C312.182 23.38 309.19 28 303.833 28C298.477 28 295.555 23.38 291.311 15.75C287.206 8.4 282.476 0 272.667 0V7Z" fill="#0B6DC7"/>
<path d="M210.333 7C215.69 7 218.682 11.62 222.925 19.18C227.03 26.6 231.691 35 241.5 35C251.309 35 256.04 26.6 260.144 19.18C264.388 11.62 267.31 7 272.667 7V0C262.858 0 258.196 8.4 254.092 15.75C249.848 23.38 246.857 28 241.5 28C236.143 28 233.221 23.38 228.978 15.75C224.873 8.4 220.143 0 210.333 0V7Z" fill="#0B6DC7"/>
<path d="M148 7C153.357 7 156.348 11.62 160.592 19.18C164.696 26.6 169.358 35 179.167 35C188.976 35 193.706 26.6 197.811 19.18C202.055 11.62 204.977 7 210.333 7V0C200.524 0 195.863 8.4 191.759 15.75C187.515 23.38 184.523 28 179.167 28C173.81 28 170.888 23.38 166.644 15.75C162.54 8.4 157.809 0 148 0V7Z" fill="#0B6DC7"/>
<path d="M85.6666 7C91.0234 7 94.0148 11.62 98.2585 19.18C102.363 26.6 107.024 35 116.833 35C126.642 35 131.373 26.6 135.478 19.18C139.721 11.62 142.643 7 148 7V0C138.191 0 133.53 8.4 129.425 15.75C125.181 23.38 122.19 28 116.833 28C111.477 28 108.555 23.38 104.311 15.75C100.206 8.4 95.4758 0 85.6666 0V7Z" fill="#0B6DC7"/>
<path d="M23.3334 7C28.6901 7 31.6816 11.62 35.9253 19.18C40.0298 26.6 44.6909 35 54.5 35C64.3092 35 69.0399 26.6 73.1444 19.18C77.3881 11.62 80.3099 7 85.6667 7V0C75.8576 0 71.1965 8.4 67.0919 15.75C62.8483 23.38 59.8568 28 54.5 28C49.1433 28 46.2214 23.38 41.9777 15.75C37.8732 8.4 33.1425 0 23.3334 0V7Z" fill="#0B6DC7"/>
<path d="M-39 7C-33.6432 7 -30.6518 11.62 -26.4081 19.18C-22.3036 26.6 -17.6425 35 -7.83333 35C1.97582 35 6.70647 26.6 10.811 19.18C15.0547 11.62 17.9766 7 23.3333 7V0C13.5242 0 8.86309 8.4 4.75856 15.75C0.514881 23.38 -2.47656 28 -7.83333 28C-13.1901 28 -16.112 23.38 -20.3557 15.75C-24.4602 8.4 -29.1908 0 -39 0V7Z" fill="#0B6DC7"/>
</g>
<defs>
<clipPath id="clip0_4543_1732">
<rect width="374" height="35" fill="white" transform="translate(-39)"/>
</clipPath>
</defs>
</svg>
