<svg width="318" height="35" viewBox="0 0 318 35" fill="none" xmlns="http://www.w3.org/2000/svg">
<g clip-path="url(#clip0_4603_5226)">
<path d="M62.334 28C56.9772 28 53.9858 23.38 49.7421 15.82C45.6375 8.4 40.9765 -1.86713e-06 31.1673 -2.72468e-06C21.3582 -3.58222e-06 16.6275 8.4 12.523 15.82C8.2793 23.38 5.35743 28 0.00065674 28L0.000656128 35C9.80981 35 14.4709 26.6 18.5754 19.25C22.8191 11.62 25.8106 7 31.1673 7C36.5241 7 39.446 11.62 43.6896 19.25C47.7942 26.6 52.5248 35 62.334 35L62.334 28Z" fill="white"/>
<path d="M124.666 28C119.309 28 116.318 23.38 112.074 15.82C107.97 8.4 103.309 -1.86713e-06 93.4994 -2.72468e-06C83.6902 -3.58222e-06 78.9595 8.4 74.855 15.82C70.6113 23.38 67.6895 28 62.3327 28L62.3327 35C72.1418 35 76.8029 26.6 80.9075 19.25C85.1511 11.62 88.1426 7 93.4994 7C98.8561 7 101.778 11.62 106.022 19.25C110.126 26.6 114.857 35 124.666 35L124.666 28Z" fill="white"/>
<path d="M187 28C181.643 28 178.652 23.38 174.408 15.82C170.304 8.4 165.642 -1.86713e-06 155.833 -2.72468e-06C146.024 -3.58222e-06 141.294 8.4 137.189 15.82C132.945 23.38 130.023 28 124.667 28L124.667 35C134.476 35 139.137 26.6 143.241 19.25C147.485 11.62 150.477 7 155.833 7C161.19 7 164.112 11.62 168.356 19.25C172.46 26.6 177.191 35 187 35L187 28Z" fill="white"/>
<path d="M249.334 28C243.977 28 240.986 23.38 236.742 15.82C232.638 8.4 227.976 -1.86713e-06 218.167 -2.72468e-06C208.358 -3.58222e-06 203.628 8.4 199.523 15.82C195.279 23.38 192.357 28 187.001 28L187.001 35C196.81 35 201.471 26.6 205.575 19.25C209.819 11.62 212.811 7 218.167 7C223.524 7 226.446 11.62 230.69 19.25C234.794 26.6 239.525 35 249.334 35L249.334 28Z" fill="white"/>
<path d="M311.666 28C306.309 28 303.318 23.38 299.074 15.82C294.97 8.4 290.309 -1.86713e-06 280.499 -2.72468e-06C270.69 -3.58222e-06 265.96 8.4 261.855 15.82C257.611 23.38 254.689 28 249.333 28L249.333 35C259.142 35 263.803 26.6 267.907 19.25C272.151 11.62 275.143 7 280.499 7C285.856 7 288.778 11.62 293.022 19.25C297.126 26.6 301.857 35 311.666 35L311.666 28Z" fill="white"/>
<path d="M374 28C368.643 28 365.652 23.38 361.408 15.82C357.304 8.4 352.642 -1.86713e-06 342.833 -2.72468e-06C333.024 -3.58222e-06 328.294 8.4 324.189 15.82C319.945 23.38 317.023 28 311.667 28L311.667 35C321.476 35 326.137 26.6 330.241 19.25C334.485 11.62 337.477 7 342.833 7C348.19 7 351.112 11.62 355.356 19.25C359.46 26.6 364.191 35 374 35L374 28Z" fill="white"/>
</g>
<defs>
<clipPath id="clip0_4603_5226">
<rect width="374" height="35" fill="white" transform="translate(374 35) rotate(-180)"/>
</clipPath>
</defs>
</svg>
