<svg width="36" height="37" viewBox="0 0 36 37" fill="none" xmlns="http://www.w3.org/2000/svg">
<path fill-rule="evenodd" clip-rule="evenodd" d="M18.375 7.96387C18.375 5.68569 20.2218 3.83887 22.5 3.83887H30C32.2782 3.83887 34.125 5.68569 34.125 7.96387V15.4639C34.125 17.742 32.2782 19.5889 30 19.5889H22.5C20.2218 19.5889 18.375 17.742 18.375 15.4639V7.96387ZM22.5 6.08887C21.4645 6.08887 20.625 6.92833 20.625 7.96387V15.4639C20.625 16.4994 21.4645 17.3389 22.5 17.3389H30C31.0355 17.3389 31.875 16.4994 31.875 15.4639V7.96387C31.875 6.92833 31.0355 6.08887 30 6.08887H22.5Z" fill="#545E72"/>
<path fill-rule="evenodd" clip-rule="evenodd" d="M28.875 9.46387C28.875 10.0852 28.3713 10.5889 27.75 10.5889L24.75 10.5889C24.1287 10.5889 23.625 10.0852 23.625 9.46387C23.625 8.84255 24.1287 8.33887 24.75 8.33887L27.75 8.33887C28.3713 8.33887 28.875 8.84255 28.875 9.46387Z" fill="#545E72"/>
<path fill-rule="evenodd" clip-rule="evenodd" d="M1.875 13.9639C1.875 13.3425 2.37868 12.8389 3 12.8389H6C6.1552 12.8389 6.30873 12.871 6.45092 12.9332L15.8443 17.0428C17.8533 17.9217 18.7771 20.2566 17.9133 22.2722C17.0449 24.2984 14.6983 25.2371 12.672 24.3687L10.0568 23.2479C9.48576 23.0032 9.22121 22.3418 9.46596 21.7707C9.71071 21.1996 10.3721 20.9351 10.9432 21.1798L13.5583 22.3006C14.4424 22.6795 15.4663 22.27 15.8452 21.3858C16.2221 20.5064 15.819 19.4876 14.9424 19.1041L5.76467 15.0889H3C2.37868 15.0889 1.875 14.5852 1.875 13.9639Z" fill="#545E72"/>
<path fill-rule="evenodd" clip-rule="evenodd" d="M15.9971 21.4545L21.1031 24.0074C22.1965 24.5542 23.4023 24.8388 24.6249 24.8388H27.0002C29.2784 24.8388 31.1252 26.6856 31.1252 28.9638C31.1252 31.242 29.2784 33.0888 27.0002 33.0888H14.8331C12.7955 33.0888 10.7859 32.6144 8.96338 31.7032L2.49713 28.47C1.94141 28.1922 1.71615 27.5164 1.99402 26.9607C2.27188 26.405 2.94764 26.1797 3.50336 26.4576L9.96961 29.6907C11.4797 30.4457 13.1448 30.8388 14.8331 30.8388H27.0002C28.0358 30.8388 28.8752 29.9993 28.8752 28.9638C28.8752 27.9283 28.0358 27.0888 27.0002 27.0888H24.6249C23.053 27.0888 21.5027 26.7228 20.0968 26.0199L14.9909 23.4669L15.9971 21.4545Z" fill="#545E72"/>
</svg>
