<svg width="35" height="38" viewBox="0 0 35 38" fill="none" xmlns="http://www.w3.org/2000/svg">
<path d="M4.39288 0.463867C9.7866 0.463867 15.1796 0.463867 20.5733 0.463867C20.618 0.481967 20.6604 0.509479 20.7066 0.517443C23.3591 1.00615 24.983 2.91751 24.9896 5.57026C24.994 7.23185 25.0006 8.89271 24.9823 10.5543C24.9786 10.8837 25.0811 10.9482 25.3938 10.946C27.2842 10.9315 29.1753 10.9358 31.0657 10.9395C33.3947 10.9438 34.9959 12.5236 34.9981 14.8216C35.001 17.5786 35.0003 20.3356 34.9981 23.0919C34.9966 25.3949 33.4005 26.9732 31.0716 26.9761C29.1812 26.9783 27.29 26.9863 25.3996 26.9682C25.0519 26.9645 24.9816 27.0731 24.9838 27.3917C24.9969 29.1373 25.0167 30.8836 24.9801 32.6284C24.923 35.3449 22.7405 37.4517 19.992 37.4568C14.9907 37.4669 9.98941 37.4655 4.98885 37.4568C2.71992 37.4525 0.754111 35.94 0.172787 33.7825C0.106893 33.5414 0.0571074 33.2967 0 33.0527C0 23.6587 0 14.2655 0 4.8716C0.0226965 4.80499 0.0534467 4.74055 0.0658932 4.6725C0.448806 2.60257 1.67003 1.26606 3.69588 0.637628C3.92357 0.566676 4.16006 0.521063 4.39288 0.463867ZM2.49808 18.9404C2.49808 23.3959 2.49735 27.8515 2.49808 32.307C2.49808 33.9526 3.55164 34.9894 5.21947 34.9901C10.0758 34.9908 14.9321 34.9908 19.7877 34.9901C21.446 34.9901 22.4915 33.9642 22.4915 32.3366C22.4915 30.6751 22.4784 29.0128 22.4901 27.3512C22.4923 27.0579 22.4256 26.9674 22.113 26.9689C19.8068 26.9826 17.5012 26.9754 15.195 26.9776C14.8399 26.9776 14.4877 26.9551 14.1421 26.8733C12.3711 26.452 11.2509 25.0054 11.2465 23.1107C11.2399 20.3406 11.2428 17.5713 11.248 14.8013C11.248 14.5139 11.2597 14.2199 11.3161 13.939C11.6697 12.1811 13.1523 10.9561 14.9731 10.9431C17.3526 10.9264 19.7313 10.9322 22.1108 10.9445C22.4191 10.946 22.4923 10.8613 22.4901 10.5644C22.4754 8.89054 22.4842 7.21664 22.4813 5.54275C22.4813 5.3393 22.4776 5.13079 22.4366 4.93241C22.1862 3.70523 21.1839 2.92331 19.8558 2.92258C14.9995 2.91969 10.1432 2.92113 5.28756 2.92186C3.5187 2.92186 2.49808 3.93112 2.49735 5.68103C2.49735 10.1003 2.49735 14.5197 2.49735 18.9397L2.49808 18.9404ZM23.1358 17.7205C20.134 17.7205 17.133 17.7248 14.1312 17.7132C13.8281 17.7118 13.7446 17.7878 13.7475 18.0904C13.7629 19.752 13.7541 21.4143 13.7556 23.0759C13.7563 24.0236 14.2344 24.5066 15.1891 24.5073C20.4847 24.5102 25.7796 24.5102 31.0752 24.5073C32.0109 24.5073 32.4963 24.0193 32.4978 23.0991C32.5 21.4375 32.4897 19.7752 32.5066 18.1136C32.5095 17.7965 32.4297 17.7118 32.1046 17.7132C29.1153 17.7263 26.1259 17.7212 23.1366 17.7212L23.1358 17.7205ZM23.1095 15.2589C25.3184 15.2589 27.5265 15.2589 29.7354 15.2589C30.5532 15.2589 31.3703 15.2524 32.1881 15.2632C32.4202 15.2661 32.5014 15.206 32.5044 14.9613C32.5176 13.8905 32.0461 13.4004 30.9691 13.4004C25.7218 13.4004 20.4752 13.4004 15.2279 13.4004C14.2161 13.4004 13.7695 13.8594 13.7453 14.8563C13.7365 15.2031 13.8559 15.2661 14.1773 15.2654C17.1549 15.2545 20.1318 15.2589 23.1095 15.2589Z" fill="#545E72"/>
<path d="M12.3821 7.84725C11.565 7.84725 10.7472 7.85087 9.9301 7.8458C9.1716 7.84146 8.63494 7.33031 8.63347 6.62224C8.63201 5.91923 9.17819 5.38564 9.92278 5.38347C11.5818 5.3784 13.2409 5.3784 14.8992 5.38492C15.6745 5.38781 16.2419 5.91706 16.2456 6.61572C16.2493 7.31728 15.6884 7.83856 14.9058 7.84508C14.0645 7.85232 13.2226 7.84653 12.3806 7.84725H12.3821Z" fill="#545E72"/>
<path d="M11.2509 31.3158C11.2421 30.62 11.7846 30.0727 12.489 30.0691C13.1867 30.0655 13.7541 30.6179 13.7526 31.2999C13.7512 31.9616 13.1962 32.5198 12.5234 32.5372C11.8337 32.5546 11.2604 32.0043 11.2516 31.3158H11.2509Z" fill="#545E72"/>
</svg>
