<svg width="58" height="50" viewBox="0 0 58 50" fill="none" xmlns="http://www.w3.org/2000/svg">
<path d="M28.9284 0.00848344C34.6185 0.00848344 40.3087 0.00171016 45.9988 0.0101764C51.0393 0.0186426 54.9113 3.27984 55.7389 8.22412C55.839 8.82353 55.8373 9.44495 55.8373 10.0545C55.8441 15.947 55.8458 21.8395 55.8339 27.732C55.8339 28.1587 55.9289 28.4737 56.2376 28.7937C57.3145 29.9129 57.7843 31.2912 57.786 32.8287C57.7928 37.8543 57.7962 42.8815 57.7843 47.9071C57.781 49.2312 56.9991 49.9864 55.6796 49.9898C52.6115 49.9965 49.5452 49.9813 46.4771 49.9999C45.6121 50.005 44.9846 49.6748 44.5131 48.9569C43.5752 47.5261 42.6051 46.1173 41.6672 44.6865C41.462 44.375 41.2466 44.2327 40.8548 44.2327C32.8802 44.2446 24.9055 44.2446 16.9292 44.2327C16.5645 44.2327 16.3593 44.3563 16.1643 44.6527C15.2264 46.0818 14.2495 47.4872 13.3167 48.9196C12.8334 49.6613 12.199 50.0033 11.3069 49.9965C8.26091 49.9762 5.2149 49.9915 2.16887 49.9864C0.769664 49.9847 0.00645847 49.2363 0.00476247 47.836C-0.00371757 42.851 0.00136879 37.8678 0.0030648 32.8829C0.0030648 31.2252 0.527121 29.769 1.73129 28.6024C1.99417 28.3467 1.94668 28.0724 1.94668 27.7896C1.95008 21.7498 1.93482 15.71 1.95517 9.67016C1.97044 5.39809 4.57209 1.80502 8.54753 0.482593C9.6228 0.125317 10.7252 -0.00167657 11.8564 1.66808e-05C17.5466 0.00848292 23.2366 0.00340325 28.9267 0.00340325L28.9284 0.00848344ZM5.8034 21.1284C5.96452 20.954 6.03576 20.8845 6.1002 20.8083C7.83861 18.7189 10.0654 17.5116 12.7774 17.3778C15.0992 17.2644 17.4295 17.3152 19.7565 17.3135C27.8803 17.3084 36.0059 17.3152 44.1298 17.3101C47.2165 17.3084 49.769 18.4276 51.7245 20.8388C51.7822 20.9099 51.8212 21.0335 52.0043 20.9726V20.3647C52.0043 16.9223 52.0043 13.4783 52.0043 10.0359C52.0043 6.27689 49.5774 3.85216 45.8156 3.85216C36.5062 3.85216 27.1968 3.85216 17.8875 3.85216C15.7929 3.85216 13.6983 3.83692 11.6037 3.85554C8.69 3.88094 6.38682 5.84003 5.87292 8.70162C5.84748 8.84724 5.8068 8.99286 5.8068 9.13848C5.80341 13.0854 5.8034 17.0341 5.8034 21.1301V21.1284ZM28.8928 30.7748C21.3829 30.7748 13.873 30.7748 6.36309 30.7748C6.15109 30.7748 5.93909 30.768 5.72879 30.7816C4.63486 30.8493 3.87332 31.6113 3.86993 32.7102C3.85806 37.0178 3.86996 41.3271 3.85469 45.6347C3.85469 46.0682 4.00733 46.1596 4.4042 46.1563C6.26641 46.1393 8.12692 46.1342 9.98914 46.1596C10.4097 46.1647 10.6353 46.0123 10.8524 45.6788C11.7717 44.2615 12.7282 42.868 13.6423 41.449C14.1223 40.704 14.7719 40.362 15.6521 40.362C24.4731 40.3687 33.2957 40.3687 42.1166 40.362C42.9985 40.362 43.6481 40.7006 44.1298 41.4456C45.0677 42.9001 46.0446 44.3309 46.9842 45.7854C47.1673 46.0665 47.3573 46.1766 47.6965 46.1732C49.5994 46.1563 51.504 46.158 53.4086 46.1732C53.7716 46.1766 53.9259 46.1139 53.9259 45.6974C53.9141 41.3678 53.9327 37.0381 53.9225 32.7085C53.9208 31.6028 53.1712 30.8612 52.0586 30.7867C51.8263 30.7714 51.5939 30.7765 51.3615 30.7765C43.8737 30.7765 36.3841 30.7765 28.8962 30.7765L28.8928 30.7748ZM28.8538 26.9176C35.7057 26.9176 42.5576 26.9108 49.4111 26.9311C49.9946 26.9328 50.1218 26.7889 50.0336 26.2233C49.5655 23.2178 47.2742 21.1825 44.2282 21.1792C33.9928 21.1673 23.7556 21.1656 13.5202 21.1792C10.5421 21.1825 8.23377 23.2128 7.78433 26.1421C7.70518 26.6568 7.91888 26.9148 8.42542 26.9159C15.2349 26.9159 22.0461 26.9159 28.8555 26.9159L28.8538 26.9176Z" fill="white"/>
</svg>
