<svg width="36" height="36" viewBox="0 0 36 36" fill="none" xmlns="http://www.w3.org/2000/svg">
<path fill-rule="evenodd" clip-rule="evenodd" d="M1.875 18C1.875 9.09441 9.09441 1.875 18 1.875C26.9056 1.875 34.125 9.09441 34.125 18C34.125 26.9056 26.9056 34.125 18 34.125C9.09441 34.125 1.875 26.9056 1.875 18ZM18 4.125C10.3371 4.125 4.125 10.3371 4.125 18C4.125 25.663 10.3371 31.875 18 31.875C25.663 31.875 31.875 25.663 31.875 18C31.875 10.3371 25.663 4.125 18 4.125ZM12.9619 12.9619C13.4012 12.5225 14.1135 12.5225 14.5529 12.9619L18 16.409L21.4471 12.9619C21.8865 12.5225 22.5988 12.5225 23.0381 12.9619C23.4775 13.4012 23.4775 14.1135 23.0381 14.5529L19.591 18L23.0381 21.4472C23.4775 21.8865 23.4775 22.5988 23.0381 23.0381C22.5988 23.4775 21.8865 23.4775 21.4472 23.0381L18 19.591L14.5529 23.0381C14.1135 23.4775 13.4012 23.4775 12.9619 23.0381C12.5225 22.5988 12.5225 21.8865 12.9619 21.4472L16.409 18L12.9619 14.5529C12.5225 14.1135 12.5225 13.4012 12.9619 12.9619Z" fill="#C12428"/>
</svg>
