<svg width="126" height="126" viewBox="0 0 126 126" fill="none" xmlns="http://www.w3.org/2000/svg">
<path fill-rule="evenodd" clip-rule="evenodd" d="M63 12.6C35.1648 12.6 12.6 35.1648 12.6 63C12.6 90.8351 35.1648 113.4 63 113.4C90.8351 113.4 113.4 90.8351 113.4 63C113.4 35.1648 90.8351 12.6 63 12.6ZM0 63C0 28.2061 28.2061 0 63 0C97.7939 0 126 28.2061 126 63C126 97.7939 97.7939 126 63 126C28.2061 126 0 97.7939 0 63Z" fill="#01B5C0"/>
<path fill-rule="evenodd" clip-rule="evenodd" d="M93 48.0401L56.8998 91L33 67.2991L41.9551 58.4184L56.0488 72.3948L83.2709 40L93 48.0401Z" fill="#01B5C0"/>
</svg>
