<svg width="36" height="37" viewBox="0 0 36 37" fill="none" xmlns="http://www.w3.org/2000/svg">
<path fill-rule="evenodd" clip-rule="evenodd" d="M26.2045 22.2594C25.7652 21.82 25.7652 21.1077 26.2045 20.6684L28.1438 18.729C28.2903 18.5826 28.2903 18.3452 28.1438 18.1987L26.2045 16.2594C25.7652 15.82 25.7652 15.1077 26.2045 14.6684C26.6438 14.229 27.3562 14.229 27.7955 14.6684L29.7348 16.6077C30.76 17.6328 30.76 19.2949 29.7348 20.32L27.7955 22.2594C27.3562 22.6987 26.6438 22.6987 26.2045 22.2594Z" fill="#545E72"/>
<path fill-rule="evenodd" clip-rule="evenodd" d="M13.875 7.96897C13.875 6.47142 12.206 5.57818 10.9599 6.40888L7.95994 8.40888C7.43831 8.75663 7.125 9.34206 7.125 9.96897V27.7579C7.125 28.3848 7.43831 28.9702 7.95994 29.318L10.9599 31.318C12.206 32.1487 13.875 31.2554 13.875 29.7579V7.96897ZM16.0628 7.23842C15.5695 4.39629 12.2438 2.84882 9.71186 4.53676L6.71186 6.53677C5.56429 7.30181 4.875 8.58977 4.875 9.96897V27.7579C4.875 29.1371 5.56429 30.425 6.71186 31.1901L9.71186 33.1901C12.2438 34.878 15.5695 33.3305 16.0628 30.4884H21C23.2782 30.4884 25.125 28.6416 25.125 26.3634C25.125 25.7421 24.6213 25.2384 24 25.2384C23.3787 25.2384 22.875 25.7421 22.875 26.3634C22.875 27.399 22.0355 28.2384 21 28.2384H16.125V9.48842H21C22.0355 9.48842 22.875 10.3279 22.875 11.3634C22.875 11.9847 23.3787 12.4884 24 12.4884C24.6213 12.4884 25.125 11.9847 25.125 11.3634C25.125 9.08525 23.2782 7.23842 21 7.23842H16.0628ZM18.375 18.4639C18.375 17.8426 18.8787 17.3389 19.5 17.3389L28.5 17.3389C29.1213 17.3389 29.625 17.8426 29.625 18.4639C29.625 19.0852 29.1213 19.5889 28.5 19.5889L19.5 19.5889C18.8787 19.5889 18.375 19.0852 18.375 18.4639Z" fill="#545E72"/>
</svg>
