<svg width="22" height="22" viewBox="0 0 22 22" fill="none" xmlns="http://www.w3.org/2000/svg">
<path fill-rule="evenodd" clip-rule="evenodd" d="M6 4.75C6 2.12665 8.12665 0 10.75 0L16.75 2.38419e-07C19.3734 2.38419e-07 21.5 2.12665 21.5 4.75V10.75C21.5 13.3734 19.3734 15.5 16.75 15.5H15.5V16.75C15.5 19.3734 13.3734 21.5 10.75 21.5H4.75C2.12665 21.5 0 19.3734 0 16.75V10.75C0 8.12665 2.12665 6 4.75 6H6V4.75ZM7.5 6H10.75C13.3734 6 15.5 8.12665 15.5 10.75V14H16.75C18.5449 14 20 12.5449 20 10.75V4.75C20 2.95507 18.5449 1.5 16.75 1.5L10.75 1.5C8.95507 1.5 7.5 2.95507 7.5 4.75V6ZM4.75 7.5C2.95507 7.5 1.5 8.95507 1.5 10.75V16.75C1.5 18.5449 2.95507 20 4.75 20H10.75C12.5449 20 14 18.5449 14 16.75V10.75C14 8.95507 12.5449 7.5 10.75 7.5H4.75Z" fill="#545E72"/>
</svg>
