<svg width="21" height="21" viewBox="0 0 21 21" fill="none" xmlns="http://www.w3.org/2000/svg">
<path fill-rule="evenodd" clip-rule="evenodd" d="M5.9375 3.55968C5.92151 3.56237 5.90569 3.56517 5.89 3.56811C4.26658 3.87158 2.99658 5.14158 2.69311 6.765C2.625 7.12935 2.625 7.56662 2.625 8.44118C2.625 8.49584 2.625 8.52317 2.62926 8.54594C2.64822 8.6474 2.7276 8.72678 2.82906 8.74574C2.85183 8.75 2.87916 8.75 2.93382 8.75H18.0662C18.1208 8.75 18.1482 8.75 18.1709 8.74574C18.2724 8.72678 18.3518 8.6474 18.3707 8.54594C18.375 8.52317 18.375 8.49584 18.375 8.44118C18.375 7.56662 18.375 7.12935 18.3069 6.765C18.0034 5.14158 16.7334 3.87158 15.11 3.56811C15.0943 3.56518 15.0785 3.56237 15.0625 3.55968L15.0625 5.6875C15.0625 6.51593 14.3909 7.1875 13.5625 7.1875C12.7341 7.1875 12.0625 6.51593 12.0625 5.6875L12.0625 3.5H8.9375L8.9375 5.6875C8.9375 6.51593 8.26593 7.1875 7.43751 7.1875C6.60908 7.1875 5.9375 6.51593 5.9375 5.6875L5.9375 3.55968Z" fill="white"/>
<path d="M2.625 10.0882C2.625 9.88807 2.625 9.78798 2.67903 9.71977C2.69099 9.70467 2.70467 9.69099 2.71977 9.67903C2.78798 9.625 2.88807 9.625 3.08824 9.625H17.9118C18.1119 9.625 18.212 9.625 18.2802 9.67903C18.2953 9.69099 18.309 9.70467 18.321 9.71977C18.375 9.78798 18.375 9.88807 18.375 10.0882C18.375 13.2909 18.375 14.8923 17.5105 15.9836C17.3191 16.2253 17.1003 16.4441 16.8586 16.6355C15.7673 17.5 14.1659 17.5 10.9632 17.5H10.0368C6.83408 17.5 5.23274 17.5 4.14137 16.6355C3.89967 16.4441 3.68091 16.2253 3.48946 15.9836C2.625 14.8923 2.625 13.2909 2.625 10.0882Z" fill="white" fill-opacity="0.24"/>
<path d="M7.4375 2.1875L7.4375 5.6875" stroke="white" stroke-linecap="round"/>
<path d="M13.5625 2.1875L13.5625 5.6875" stroke="white" stroke-linecap="round"/>
</svg>
