<svg width="51" height="50" viewBox="0 0 51 50" fill="none" xmlns="http://www.w3.org/2000/svg">
<path d="M0.210371 37.4085C0.434725 36.4838 1.03996 35.816 1.68824 35.1678C8.3706 28.4807 15.0595 21.8015 21.7158 15.0897C22.7853 14.0111 23.9684 13.7567 25.3615 14.1363C26.9515 14.5693 28.282 15.4718 29.5251 16.5061C31.7882 18.3882 33.8596 20.4477 35.2918 23.0601C35.4927 23.4266 35.6127 23.2114 35.7731 23.0523C39.1201 19.7042 42.4685 16.3561 45.8169 13.0081C46.0243 12.8007 46.2095 12.5646 46.443 12.3938C46.8408 12.1029 46.8186 11.7677 46.6595 11.366C46.1886 10.1817 45.4177 9.19566 44.5881 8.25528C43.3255 6.82579 41.9715 5.49021 40.3971 4.39853C39.8884 4.04507 39.3523 3.74769 38.7732 3.51683C38.3793 3.36032 38.1053 3.40728 37.7871 3.72682C34.9357 6.60537 32.0634 9.46173 29.2029 12.3311C28.7777 12.7576 28.3016 13.0328 27.6872 12.9572C27.0181 12.8737 26.5381 12.5085 26.3046 11.8733C26.0554 11.1951 26.2224 10.5886 26.7272 10.0839C28.1177 8.69091 29.5147 7.30315 30.9104 5.9141C32.5356 4.29549 34.1674 2.6834 35.7848 1.05566C36.8244 0.00963118 38.0388 -0.24079 39.4084 0.223533C41.6337 0.977406 43.5746 2.19821 45.209 3.88595C45.9108 4.60982 46.6791 5.26587 47.3273 6.04322C48.4217 7.35402 49.2748 8.80047 49.8917 10.3904C50.5022 11.9633 50.2387 13.3015 49.01 14.5197C44.7251 18.7717 40.4819 23.064 36.2088 27.3277C35.9022 27.6342 35.8683 27.8977 36.0079 28.2694C36.4266 29.3872 37.1401 30.3132 37.8992 31.2067C38.3414 31.7271 38.8162 32.2188 39.2897 32.7118C39.8089 33.2531 40.0189 33.8713 39.7397 34.5847C39.4619 35.2943 38.8997 35.6138 38.1458 35.6647C37.1401 35.7325 36.137 35.8512 35.1313 35.9125C34.8105 35.9321 34.7309 36.0742 34.6787 36.3455C34.4374 37.6224 34.1935 38.8993 33.9274 40.171C33.7213 41.1544 33.0222 41.6852 32.0895 41.6122C31.736 41.5848 31.4138 41.4596 31.166 41.2144C29.5564 39.6153 28.0485 37.9341 27.1068 35.8329C26.5707 34.6382 26.345 33.4135 26.8824 32.151C27.0442 31.7727 26.8746 31.444 26.7324 31.1245C26.3007 30.1489 25.6654 29.3011 24.9767 28.4977C23.5849 26.8752 22.0823 25.3687 20.307 24.1583C19.8218 23.8271 19.3066 23.5518 18.7457 23.3719C18.4626 23.2806 18.2422 23.3184 18.0087 23.5532C14.1164 27.4621 10.2163 31.3619 6.30837 35.2538C6.04879 35.5121 6.06575 35.6047 6.38141 35.7925C9.72585 37.792 12.4077 40.4631 14.4047 43.8099C14.6082 44.1503 14.7034 44.1594 14.976 43.8816C17.4413 41.3761 19.9144 38.881 22.3966 36.3925C23.3723 35.4143 24.9271 35.8121 25.2493 37.1085C25.398 37.7059 25.2519 38.2472 24.8189 38.6815C21.314 42.1939 17.8026 45.7011 14.2938 49.2096C13.8777 49.627 13.3416 49.8148 12.8029 50H11.6316C6.11532 47.9484 2.3013 44.179 0.207764 38.675V37.4059L0.210371 37.4085ZM32.8395 25.8995C32.7887 25.7287 32.7469 25.5552 32.6856 25.3883C32.4587 24.7727 32.1247 24.2144 31.736 23.6914C30.2438 21.6776 28.4985 19.9142 26.4741 18.4339C25.9093 18.0204 25.3054 17.6735 24.6271 17.4635C24.3441 17.3761 24.1497 17.41 23.9358 17.6291C23.0149 18.5721 22.0836 19.5047 21.1405 20.4255C20.8901 20.6694 20.864 20.7816 21.2044 20.9668C23.1988 22.0467 24.8424 23.5779 26.4402 25.1496C27.592 26.283 28.5051 27.6173 29.2825 29.0363C29.4168 29.2815 29.4951 29.4055 29.7547 29.1381C30.7082 28.1586 31.6812 27.1999 32.6478 26.2334C32.7391 26.1421 32.8474 26.06 32.8395 25.9009V25.8995ZM11.9485 46.4367C11.8507 46.0715 11.7137 45.7402 11.5246 45.4376C9.7989 42.6804 7.55666 40.4357 4.80311 38.7076C4.53179 38.5367 4.21874 38.4271 3.91613 38.3111C3.68264 38.2211 3.55873 38.2928 3.67612 38.5576C3.82743 38.898 3.95526 39.2554 4.15091 39.5684C5.664 41.9839 7.66362 43.939 9.94368 45.6215C10.468 46.0076 11.0315 46.3311 11.6511 46.545C11.7659 46.5841 11.9446 46.6937 11.9485 46.4367ZM34.7165 32.6257C34.1974 31.9097 33.7422 31.2614 33.3874 30.5493C33.2778 30.3289 33.1787 30.3693 33.0326 30.5167C32.0373 31.5184 31.0369 32.5148 30.039 33.5139C29.9712 33.5817 29.8877 33.6496 29.9099 33.7604C30.1055 34.7399 30.493 35.6242 31.2221 36.4186C31.3773 35.6542 31.5143 34.9708 31.6565 34.29C31.8443 33.3939 32.3778 32.9179 33.2856 32.8148C33.7356 32.764 34.1831 32.6961 34.7152 32.6257H34.7165Z" fill="white"/>
</svg>
