<svg width="44" height="50" viewBox="0 0 44 50" fill="none" xmlns="http://www.w3.org/2000/svg">
<path d="M0.688318 24.9448C0.688318 18.3554 0.683925 11.7659 0.691252 5.17646C0.694182 2.6258 2.23136 0.66364 4.6331 0.126504C5.02142 0.0399169 5.43026 0.00763007 5.82885 0.00616249C16.8133 0.000292148 27.7962 -0.00411061 38.7806 0.00616249C41.3948 0.00909765 43.3906 1.63958 43.8625 4.11833C43.9372 4.51018 43.9416 4.91963 43.9416 5.32029C43.946 18.4434 43.946 31.568 43.9446 44.6912C43.9446 47.3578 42.466 49.317 40.0276 49.8703C39.6217 49.9627 39.1938 49.9936 38.7777 49.9936C27.8123 49.9994 16.847 50.0038 5.88013 49.995C3.23074 49.9936 1.22611 48.3631 0.76452 45.8608C0.688321 45.4514 0.692717 45.0228 0.691252 44.6031C0.686856 38.0504 0.688318 31.4976 0.688318 24.9448ZM40.6328 25.0387C40.6328 18.486 40.6328 11.9318 40.6328 5.37899C40.6328 3.94663 40.0335 3.34051 38.6077 3.34051C27.7317 3.34051 16.8572 3.34051 5.98125 3.34051C4.63751 3.34051 4.01178 3.97304 4.01178 5.32909C4.01178 18.4361 4.01178 31.5431 4.01178 44.6501C4.01178 46.0369 4.63311 46.6621 6.01348 46.6621C16.8704 46.6621 27.7273 46.6621 38.5857 46.6621C40.0438 46.6621 40.6343 46.0634 40.6343 44.5899C40.6343 38.0724 40.6343 31.5563 40.6343 25.0387H40.6328Z" fill="white"/>
<path d="M13.182 31.6854C13.7667 31.6854 14.3514 31.6708 14.9346 31.6884C16.7048 31.7427 18.1057 33.1516 18.1423 34.9303C18.1658 36.0456 18.157 37.161 18.1467 38.2764C18.1291 40.1783 16.7429 41.6151 14.8482 41.6694C13.736 41.7017 12.6208 41.6988 11.5071 41.6694C9.61242 41.6225 8.2086 40.193 8.17929 38.2984C8.16318 37.2021 8.16024 36.1043 8.17929 35.0081C8.21446 33.1354 9.62267 31.7265 11.4837 31.684C12.0493 31.6708 12.615 31.6825 13.182 31.6825C13.182 31.6825 13.182 31.684 13.182 31.6854ZM13.059 38.3189C13.5909 38.3189 14.029 38.3072 14.4657 38.3233C14.7515 38.3336 14.8453 38.2221 14.8409 37.9403C14.8277 37.0832 14.8277 36.2261 14.8409 35.3691C14.8453 35.0858 14.7559 34.9787 14.4672 34.9919C14.0305 35.011 13.5924 34.9802 13.1572 35.0007C12.6208 35.0271 11.9262 34.763 11.5907 35.1167C11.28 35.4425 11.4998 36.1264 11.5071 36.6517C11.5159 37.1918 11.2668 37.8874 11.62 38.2294C11.9453 38.5435 12.6296 38.2852 13.059 38.3204V38.3189Z" fill="white"/>
<path d="M29.8301 20.8268C32.1337 20.8268 34.4372 20.8415 36.7393 20.815C37.2112 20.8092 37.327 20.9545 37.3064 21.4006C37.2713 22.1315 37.2757 22.8653 37.3064 23.5961C37.324 24.0158 37.2097 24.1626 36.7628 24.1567C34.9164 24.1318 33.0701 24.1465 31.2237 24.1465C28.4263 24.1465 25.6304 24.1391 22.833 24.1553C22.4374 24.1582 22.2849 24.0775 22.3069 23.6475C22.345 22.899 22.345 22.1461 22.3069 21.3962C22.2849 20.9515 22.3934 20.8092 22.8667 20.8136C25.1878 20.84 27.509 20.8253 29.8316 20.8253L29.8301 20.8268Z" fill="white"/>
<path d="M29.8301 34.9963C32.1337 34.9963 34.4372 35.011 36.7393 34.9846C37.2112 34.9787 37.327 35.124 37.305 35.5701C37.2698 36.301 37.2742 37.0348 37.305 37.7656C37.3226 38.1854 37.2068 38.3321 36.7613 38.3263C34.8783 38.3013 32.9953 38.316 31.1123 38.316C28.3516 38.316 25.5923 38.3086 22.8315 38.3248C22.4359 38.3277 22.2835 38.2455 22.3055 37.817C22.3436 37.0685 22.3436 36.3142 22.3055 35.5657C22.2835 35.1211 22.3919 34.9787 22.8652 34.9831C25.1864 35.0095 27.509 34.9948 29.8301 34.9948V34.9963Z" fill="white"/>
<path d="M12.3366 26.6575C11.8383 26.6546 11.4632 26.4785 11.154 26.1732C10.1151 25.1429 9.08637 24.1039 8.04742 23.0737C7.89503 22.9225 7.83347 22.8227 8.02104 22.6407C8.67753 22.0053 9.32521 21.3595 9.95679 20.6991C10.1619 20.4848 10.2704 20.5656 10.4316 20.7314C10.9679 21.2817 11.5247 21.8101 12.0508 22.3692C12.2706 22.604 12.401 22.5835 12.6121 22.3589C13.6539 21.2568 14.7222 20.1781 15.7597 19.0701C16.0132 18.7986 16.1582 18.8059 16.4044 19.0672C16.9686 19.6659 17.5547 20.2442 18.1467 20.815C18.3534 21.0146 18.412 21.1452 18.1731 21.3815C16.5729 22.9621 14.9889 24.5588 13.3975 26.1482C13.0898 26.455 12.7278 26.6516 12.3351 26.659L12.3366 26.6575Z" fill="white"/>
<path d="M22.3172 11.6617C20.8196 11.6617 19.3205 11.6514 17.8229 11.6691C17.4551 11.6735 17.3012 11.5825 17.3144 11.1833C17.3423 10.379 17.3305 9.57335 17.3188 8.76764C17.3144 8.45945 17.376 8.31122 17.7394 8.31269C20.7903 8.3259 23.8426 8.3259 26.8935 8.31269C27.254 8.31122 27.32 8.45651 27.3156 8.76617C27.3024 9.57041 27.2921 10.3776 27.32 11.1818C27.3332 11.5781 27.1851 11.6735 26.8144 11.6691C25.3168 11.6514 23.8177 11.6617 22.3201 11.6617H22.3172Z" fill="white"/>
</svg>
