<svg width="13" height="14" viewBox="0 0 13 14" fill="none" xmlns="http://www.w3.org/2000/svg">
<path d="M0.09375 11.7969C0.09375 11.8073 0.09375 11.8125 0.09375 11.8125C0.09375 11.8125 0.09375 11.8177 0.09375 11.8281C0.09375 12.2865 0.255208 12.6823 0.578125 13.0156C0.901042 13.3385 1.29167 13.5052 1.75 13.5156H11.0938C11.5521 13.5052 11.9427 13.3385 12.2656 13.0156C12.5885 12.6823 12.75 12.2865 12.75 11.8281C12.75 11.8177 12.75 11.8125 12.75 11.8125C12.75 11.8125 12.75 11.8073 12.75 11.7969V6.29688C12.75 6.28646 12.75 6.28125 12.75 6.28125C12.75 6.01042 12.6927 5.76042 12.5781 5.53125C12.4635 5.30208 12.3125 5.10938 12.125 4.95312H12.1094L7.45312 1.20312C7.30729 1.08854 7.14583 1 6.96875 0.9375C6.80208 0.875 6.61979 0.84375 6.42188 0.84375C6.22396 0.84375 6.03646 0.875 5.85938 0.9375C5.69271 1 5.53646 1.08854 5.39062 1.20312L0.734375 4.95312C0.536458 5.10938 0.380208 5.30208 0.265625 5.53125C0.151042 5.76042 0.09375 6.01042 0.09375 6.28125C0.09375 6.28125 0.09375 6.28646 0.09375 6.29688V11.7969ZM0.75 6.29688C0.75 6.13021 0.786458 5.97396 0.859375 5.82812C0.932292 5.68229 1.02604 5.5625 1.14062 5.46875L5.8125 1.73438C5.89583 1.66146 5.98958 1.60938 6.09375 1.57812C6.19792 1.53646 6.30729 1.51562 6.42188 1.51562C6.53646 1.51562 6.64583 1.53646 6.75 1.57812C6.85417 1.60938 6.94792 1.66146 7.03125 1.73438L11.7031 5.46875C11.8177 5.5625 11.9115 5.68229 11.9844 5.82812C12.0573 5.97396 12.0938 6.13021 12.0938 6.29688V11.7969C12.0938 11.8073 12.0938 11.8125 12.0938 11.8125C12.0938 11.8125 12.0938 11.8177 12.0938 11.8281C12.0938 12.099 11.9948 12.3333 11.7969 12.5312C11.599 12.7292 11.3646 12.8333 11.0938 12.8438H1.75C1.47917 12.8333 1.24479 12.7292 1.04688 12.5312C0.848958 12.3333 0.75 12.099 0.75 11.8281C0.75 11.8177 0.75 11.8125 0.75 11.8125C0.75 11.8125 0.75 11.8073 0.75 11.7969V6.29688ZM2.21875 7.26562C2.17708 7.23438 2.14583 7.19792 2.125 7.15625C2.10417 7.10417 2.09375 7.05208 2.09375 7C2.09375 6.90625 2.125 6.82812 2.1875 6.76562C2.25 6.70312 2.32812 6.67188 2.42188 6.67188C2.46354 6.67188 2.5 6.67708 2.53125 6.6875C2.5625 6.69792 2.59375 6.71354 2.625 6.73438L5.95312 9.20312C6.02604 9.24479 6.09896 9.27604 6.17188 9.29688C6.25521 9.31771 6.33854 9.32812 6.42188 9.32812C6.51562 9.32812 6.60417 9.31771 6.6875 9.29688C6.77083 9.27604 6.84375 9.23958 6.90625 9.1875L10.2188 6.73438C10.25 6.71354 10.2812 6.69792 10.3125 6.6875C10.3438 6.67708 10.3802 6.67188 10.4219 6.67188C10.5156 6.67188 10.5938 6.70312 10.6562 6.76562C10.7188 6.82812 10.75 6.90625 10.75 7C10.75 7.05208 10.7396 7.10417 10.7188 7.15625C10.6979 7.19792 10.6667 7.23438 10.625 7.26562L7.28125 9.75C7.15625 9.82292 7.02083 9.88542 6.875 9.9375C6.72917 9.97917 6.57812 10 6.42188 10H6.40625C6.26042 10 6.11458 9.97917 5.96875 9.9375C5.83333 9.89583 5.70312 9.83333 5.57812 9.75V9.76562L2.21875 7.26562Z" fill="#E52628"/>
</svg>
