<svg width="127" height="127" viewBox="0 0 127 127" fill="none" xmlns="http://www.w3.org/2000/svg">
<path fill-rule="evenodd" clip-rule="evenodd" d="M63.125 13C56.5425 13 50.0244 14.2965 43.943 16.8155C37.8616 19.3346 32.3358 23.0267 27.6813 27.6813C23.0267 32.3358 19.3346 37.8615 16.8155 43.943C14.2965 50.0244 13 56.5425 13 63.125C13 69.7075 14.2965 76.2256 16.8155 82.307C19.3346 88.3885 23.0267 93.9142 27.6813 98.5687C32.3358 103.223 37.8615 106.915 43.943 109.434C50.0244 111.953 56.5425 113.25 63.125 113.25C69.7075 113.25 76.2255 111.953 82.307 109.434C88.3884 106.915 93.9142 103.223 98.5687 98.5687C103.223 93.9142 106.915 88.3885 109.434 82.307C111.953 76.2256 113.25 69.7075 113.25 63.125C113.25 56.5425 111.953 50.0245 109.434 43.943C106.915 37.8616 103.223 32.3358 98.5687 27.6813C93.9142 23.0267 88.3885 19.3346 82.307 16.8155C76.2256 14.2965 69.7075 13 63.125 13ZM38.9681 4.8051C46.6268 1.63277 54.8353 0 63.125 0C71.4147 0 79.6232 1.63278 87.2819 4.80511C94.9406 7.97744 101.899 12.6272 107.761 18.4889C113.623 24.3506 118.273 31.3094 121.445 38.9681C124.617 46.6268 126.25 54.8353 126.25 63.125C126.25 71.4147 124.617 79.6232 121.445 87.2819C118.273 94.9406 113.623 101.899 107.761 107.761C101.899 113.623 94.9406 118.273 87.2819 121.445C79.6232 124.617 71.4147 126.25 63.125 126.25C54.8353 126.25 46.6268 124.617 38.9681 121.445C31.3094 118.273 24.3506 113.623 18.4889 107.761C12.6272 101.899 7.97743 94.9406 4.8051 87.2819C1.63277 79.6232 0 71.4147 0 63.125C0 54.8353 1.63278 46.6268 4.80511 38.9681C7.97744 31.3094 12.6272 24.3506 18.4889 18.4889C24.3506 12.6272 31.3094 7.97743 38.9681 4.8051Z" fill="#D12A2C"/>
<path fill-rule="evenodd" clip-rule="evenodd" d="M79.5705 88.7629L37.4871 46.6795L46.6795 37.4871L88.7629 79.5705L79.5705 88.7629Z" fill="#D12A2C"/>
<path fill-rule="evenodd" clip-rule="evenodd" d="M46.6795 88.7629L88.7629 46.6795L79.5705 37.4871L37.4871 79.5705L46.6795 88.7629Z" fill="#D12A2C"/>
</svg>
