<svg width="38" height="38" viewBox="0 0 38 38" fill="none" xmlns="http://www.w3.org/2000/svg">
<path d="M5.00586 8.73726C5.00586 6.80569 5.35699 4.96191 6.58617 3.38153C8.78115 0.48417 12.8199 -0.306021 16.1563 1.44996C17.0343 1.88895 17.8244 2.50354 18.439 3.29373C18.6146 3.55713 18.7025 3.55713 18.9659 3.29373C20.7219 1.27436 22.9168 0.308571 25.5508 0.484169C28.7994 0.747565 31.4333 3.03034 32.1357 6.27889C32.7503 8.91286 32.2235 11.459 31.3455 13.9174C30.1163 17.5171 27.7457 20.3267 24.8484 22.6973C23.1802 24.1899 21.3365 25.419 19.4049 26.6482C18.8781 26.9994 18.3512 26.9994 17.9122 26.6482C15.1027 24.8045 12.4687 22.7851 10.0981 20.4145C7.37636 17.5172 5.70823 14.1808 5.09364 10.2298C5.00584 9.96645 5.00586 9.70305 5.00586 9.35185C5.00586 9.35185 5.00586 9.00066 5.00586 8.73726Z" fill="#D12A2C"/>
<path opacity="0.7" d="M0 27.7016C0 26.209 0 24.7164 0 23.2238C0 21.819 0.790233 20.7655 2.01942 20.5899C3.5998 20.3265 4.74114 20.8533 5.26793 22.258C5.79472 23.4872 6.23378 24.8042 6.76058 26.0334C7.02397 26.648 7.3751 27.1748 7.9019 27.6138C8.07749 27.7894 8.25318 27.7894 8.42878 27.7016C9.30676 27.3504 10.1848 27.3504 11.0627 27.7894C12.5553 28.4918 13.9601 29.1942 15.4527 29.9843C16.7697 30.6867 17.3842 31.7403 17.472 33.2329C17.472 34.3743 17.472 35.5157 17.472 36.5693C17.472 37.3594 16.9452 37.8862 16.2428 37.8862C15.5404 37.8862 15.0137 37.3594 15.0137 36.6571C15.0137 35.6035 15.0137 34.5499 15.0137 33.5841C15.0137 32.8817 14.7503 32.4427 14.1357 32.0915C12.8187 31.4769 11.5017 30.7745 10.1848 30.1599C9.83356 29.9843 9.57008 29.9843 9.21888 30.1599C8.95548 30.3355 8.86777 30.5989 8.86777 30.9501C8.86777 31.2135 9.04337 31.4769 9.30676 31.5647C9.48236 31.6525 9.74572 31.7403 9.92131 31.9159C10.5359 32.2671 10.7115 32.9695 10.4481 33.5841C10.1847 34.1987 9.48236 34.4621 8.86777 34.1987C6.9362 33.4963 6.14594 32.0037 6.49714 29.9843C6.49714 29.8087 6.49716 29.7209 6.40936 29.6331C5.44357 28.843 4.82894 27.8772 4.38994 26.7358C3.95095 25.6822 3.59984 24.6286 3.16084 23.575C3.07305 23.3994 3.07305 23.136 2.72185 23.136C2.45845 23.2238 2.54619 23.4872 2.54619 23.575C2.54619 26.2968 2.54619 28.9308 2.54619 31.6525C2.54619 33.6719 3.51202 34.9889 5.44359 35.5157C6.14598 35.6913 6.49714 36.2181 6.49714 36.8326C6.40934 37.535 5.79477 38.0618 5.09238 37.974C3.073 37.6228 1.6682 36.3937 0.790211 34.6377C0.351217 33.7597 0.175662 32.7061 0.175662 31.7403C6.43032e-05 30.2477 0 28.9308 0 27.7016Z" fill="#D12A2C"/>
<path opacity="0.7" d="M37.3143 27.7017C37.3143 29.1943 37.4021 30.6869 37.3143 32.1795C37.2265 34.8135 35.3827 37.0962 32.8366 37.7986C32.1342 37.9742 31.4318 37.7108 31.2562 37.0084C30.9928 36.306 31.344 35.6914 32.1342 35.428C34.0658 34.7256 34.9437 33.4965 34.9437 31.4771C34.9437 28.7553 34.9437 26.1214 34.9437 23.3996C34.9437 23.224 35.0316 23.0484 34.7682 22.9606C34.5048 22.8728 34.417 23.1362 34.417 23.3118C33.978 24.4532 33.4512 25.6824 33.0122 26.8238C32.5732 27.8773 32.0463 28.7553 31.1684 29.4577C30.9928 29.6333 30.9928 29.7211 30.9928 29.8967C31.344 31.4771 30.7294 32.9697 29.2368 33.7599C28.8856 33.9355 28.5344 34.1989 28.0954 34.1989C27.5686 34.1989 27.0419 33.8477 26.8663 33.3209C26.6907 32.7941 26.9541 32.1795 27.3931 31.9161C27.6565 31.7405 27.9198 31.6527 28.0954 31.5649C28.5344 31.3015 28.71 30.8625 28.4466 30.4235C28.271 29.9845 27.7443 29.8967 27.3053 30.0723C25.9005 30.7747 24.4957 31.4771 23.0909 32.1795C22.6519 32.4429 22.3885 32.8819 22.3885 33.3209C22.3885 34.3745 22.3885 35.428 22.3885 36.4816C22.3885 37.184 21.9495 37.7108 21.2471 37.7986C20.5448 37.8864 19.9302 37.3596 19.9302 36.6572C19.9302 35.3402 19.8423 33.9355 20.0179 32.6185C20.1935 31.3893 20.8081 30.5113 21.8617 29.8967C23.3543 29.1065 24.8469 28.4041 26.2516 27.7017C27.1296 27.2627 28.0076 27.2627 28.8856 27.6139C29.0612 27.7017 29.2368 27.7017 29.4124 27.5261C29.9392 27.0871 30.2904 26.5604 30.5538 25.9458C31.0806 24.6288 31.6074 23.3118 32.1342 21.9948C32.5732 20.8534 33.5389 20.3266 35.0315 20.4144C36.0851 20.5022 36.9631 21.2046 37.2265 22.2582C37.3143 22.5216 37.3143 22.8728 37.3143 23.1362C37.3143 24.7166 37.3143 26.2092 37.3143 27.7017Z" fill="#D12A2C"/>
</svg>
