<svg width="50" height="50" viewBox="0 0 50 50" fill="none" xmlns="http://www.w3.org/2000/svg">
<path d="M24.951 49.9967C17.3538 49.9967 9.7582 49.9967 2.16108 49.9967C0.579147 49.9967 0.000957481 49.4258 0.000957481 47.8527C0.000957481 39.231 -0.00197603 30.6093 0.00242639 21.9877C0.00389386 19.3681 1.4611 17.4105 3.8208 16.8205C4.28452 16.7046 4.75705 16.662 5.23397 16.6635C6.64275 16.6679 8.05299 16.6474 9.46177 16.6752C9.90054 16.684 10.0091 16.5476 10.0077 16.1235C9.99299 12.4987 9.99152 8.87391 10.0018 5.25061C10.0091 2.91726 11.1846 1.14009 13.2024 0.341762C13.8436 0.0878812 14.5113 0.00423279 15.1923 0.00423279C21.7269 0.00276527 28.2616 -0.00603977 34.7962 0.00716789C37.8809 0.013038 39.9823 2.13213 39.9955 5.24034C40.0116 8.77265 39.9955 12.3064 40.0014 15.8388C40.0014 16.8088 39.8928 16.643 40.8011 16.6664C42.4652 16.709 44.1367 16.5329 45.792 16.7574C48.0094 17.0583 49.7483 18.9279 49.9538 21.1585C49.9802 21.4491 49.9978 21.7426 49.9978 22.0361C50.0007 30.6577 50.0007 39.2794 49.9978 47.9025C49.9978 48.1403 49.989 48.3795 49.9508 48.6128C49.8379 49.3202 49.3169 49.8441 48.614 49.9527C48.3439 49.9938 48.0666 49.9967 47.7936 49.9982C40.1789 50.0011 32.5642 49.9996 24.9495 49.9996L24.951 49.9967ZM13.3403 25.6066C13.3403 27.821 13.3403 30.0355 13.3403 32.25C13.3403 36.88 13.3447 41.5115 13.3315 46.1415C13.3315 46.5392 13.4166 46.6889 13.8422 46.6684C14.5906 46.6331 15.3434 46.6317 16.0918 46.6684C16.5365 46.6904 16.6847 46.5788 16.6773 46.1048C16.6495 44.1648 16.6627 42.2247 16.6656 40.2847C16.6715 37.1412 18.7993 35.0031 21.9294 34.9957C23.9428 34.9913 25.9562 34.9928 27.9695 34.9957C31.2259 34.9987 33.3317 37.1002 33.3346 40.3478C33.3376 42.2878 33.3434 44.2279 33.3273 46.1679C33.3244 46.5392 33.4065 46.686 33.8072 46.6684C34.5189 46.6361 35.235 46.664 35.9482 46.6581C36.7582 46.6508 36.6599 46.7535 36.6599 45.9698C36.6629 32.4452 36.6614 18.9191 36.6599 5.39443C36.6599 3.92104 36.0788 3.3399 34.6025 3.33843C28.197 3.33843 21.7915 3.33843 15.386 3.33843C13.9185 3.33843 13.3388 3.92251 13.3388 5.4003C13.3388 12.1362 13.3388 18.8706 13.3388 25.6066H13.3403ZM10.0003 33.3609C10.0003 29.0978 10.0003 24.8346 10.0003 20.573C10.0003 20.2912 10.084 19.9801 9.59677 19.9874C8.07794 20.008 6.5591 19.9742 5.04174 20.0065C3.98956 20.0285 3.3468 20.7124 3.34534 21.7602C3.34093 29.902 3.34533 38.0423 3.33359 46.1841C3.33359 46.5774 3.4554 46.6713 3.83107 46.6669C5.67862 46.6493 7.52616 46.6405 9.37371 46.6713C9.87265 46.6801 10.0135 46.5466 10.0121 46.0403C9.99152 41.8138 10.0003 37.5874 10.0003 33.3624V33.3609ZM40.0028 33.3081C40.0028 37.5712 40.0102 41.8329 39.9926 46.096C39.9911 46.5583 40.1246 46.6757 40.5752 46.6698C42.4036 46.6449 44.2336 46.6434 46.0635 46.6698C46.536 46.6772 46.674 46.5686 46.674 46.0726C46.6564 38.0408 46.6622 30.0106 46.6608 21.9788C46.6608 20.6229 46.0474 20.0036 44.6856 19.9948C43.3325 19.986 41.9781 20.0168 40.625 19.9801C40.1056 19.9654 39.9911 20.1386 39.994 20.6287C40.0116 24.8552 40.0043 29.0802 40.0043 33.3066L40.0028 33.3081ZM25.0009 46.6581C26.5021 46.6581 28.0018 46.6478 29.5031 46.6654C29.8714 46.6698 30.0137 46.5847 30.0108 46.1856C29.9917 44.1721 30.0123 42.1587 29.9976 40.1452C29.9888 38.98 29.3064 38.3226 28.1324 38.3182C26.0457 38.3109 23.9589 38.3109 21.8737 38.3182C20.6982 38.3226 20.0144 38.9815 20.007 40.1423C19.9938 42.1558 20.0129 44.1692 19.9938 46.1826C19.9909 46.5788 20.1288 46.6698 20.4986 46.6654C21.9999 46.6478 23.4996 46.6581 25.0009 46.6581Z" fill="white"/>
<path d="M29.9932 13.3381C29.0423 13.3381 28.0928 13.3264 27.1419 13.344C26.8073 13.3498 26.6444 13.2853 26.6576 12.8993C26.684 12.0599 26.6752 11.2175 26.6606 10.3781C26.6562 10.0934 26.7559 9.99363 27.0392 9.99509C29.0305 10.0024 31.0234 10.0024 33.0147 9.99509C33.2833 9.99509 33.3552 10.1066 33.3522 10.3561C33.342 11.2337 33.3376 12.1113 33.3537 12.9874C33.3596 13.3014 33.2128 13.344 32.9546 13.341C31.9684 13.3322 30.9808 13.3381 29.9947 13.3381H29.9932Z" fill="white"/>
<path d="M20.0408 9.99803C21.0093 9.99803 21.9778 10.0068 22.9464 9.99363C23.2487 9.98922 23.3631 10.0802 23.3558 10.3987C23.3367 11.2395 23.3411 12.0804 23.3543 12.9213C23.3587 13.209 23.303 13.3484 22.9684 13.3469C20.9946 13.3337 19.0209 13.3366 17.0471 13.344C16.7683 13.344 16.6568 13.2633 16.6612 12.9698C16.6759 12.1113 16.6788 11.2513 16.6597 10.3928C16.6524 10.0655 16.7874 9.99069 17.0794 9.99363C18.0656 10.0039 19.0532 9.99803 20.0408 9.99803Z" fill="white"/>
<path d="M19.9909 20.8268C19.0238 20.8268 18.0553 20.8122 17.0882 20.8342C16.7463 20.8415 16.6509 20.73 16.6597 20.3969C16.6817 19.5751 16.6817 18.7532 16.6597 17.9329C16.6509 17.588 16.7757 17.5029 17.1014 17.5044C19.037 17.5161 20.9726 17.5161 22.9082 17.5044C23.2164 17.5029 23.3705 17.5528 23.3602 17.9168C23.3338 18.7562 23.3382 19.5971 23.3587 20.4365C23.3661 20.7564 23.2531 20.8371 22.9508 20.8327C21.9646 20.8166 20.9785 20.8268 19.9924 20.8268H19.9909Z" fill="white"/>
<path d="M30.0563 17.5103C31.0057 17.5103 31.9552 17.5191 32.9047 17.5044C33.2128 17.5 33.3684 17.5499 33.3566 17.9168C33.3302 18.7562 33.3346 19.5971 33.3552 20.4365C33.3625 20.7535 33.2539 20.8356 32.9501 20.8327C30.9969 20.821 29.0437 20.8195 27.0891 20.8327C26.7501 20.8356 26.6503 20.7329 26.6591 20.3969C26.6811 19.5765 26.6811 18.7532 26.6591 17.9329C26.6503 17.5895 26.7736 17.497 27.0993 17.5029C28.0855 17.5205 29.0716 17.5088 30.0563 17.5088V17.5103Z" fill="white"/>
<path d="M20.0144 24.999C20.9829 24.999 21.95 25.0107 22.917 24.9931C23.2384 24.9873 23.369 25.0577 23.3587 25.4128C23.3323 26.2332 23.3382 27.0565 23.3573 27.8783C23.3646 28.1967 23.2956 28.3303 22.9405 28.3273C20.9873 28.3112 19.0326 28.3156 17.0794 28.3244C16.783 28.3244 16.6553 28.2525 16.6627 27.9267C16.6817 27.0873 16.6876 26.2464 16.6612 25.407C16.6495 25.0416 16.8035 24.9902 17.1132 24.9946C18.0802 25.0093 19.0488 25.0005 20.0173 25.0005L20.0144 24.999Z" fill="white"/>
<path d="M30.0005 24.999C30.9676 24.999 31.9361 25.0151 32.9032 24.9902C33.2715 24.9814 33.3654 25.1032 33.3552 25.4539C33.3317 26.2743 33.3346 27.0975 33.3552 27.9194C33.3625 28.2319 33.2598 28.3259 32.9516 28.3229C30.9984 28.3112 29.0437 28.3141 27.0905 28.3215C26.8102 28.3215 26.6518 28.2774 26.6606 27.9384C26.6811 27.0814 26.6782 26.2214 26.6606 25.3644C26.6547 25.0694 26.7662 24.9931 27.0436 24.9961C28.0297 25.0093 29.0159 25.0005 30.002 25.0005L30.0005 24.999Z" fill="white"/>
</svg>
