<svg width="15" height="14" viewBox="0 0 15 14" fill="none" xmlns="http://www.w3.org/2000/svg">
<path d="M12.75 0.671875H2.09375C1.63542 0.671875 1.23958 0.833333 0.90625 1.15625C0.583333 1.47917 0.421875 1.86979 0.421875 2.32812V9C0.421875 9.45833 0.583333 9.85417 0.90625 10.1875C1.23958 10.5104 1.63542 10.6719 2.09375 10.6719H5.25L7.15625 13.2031C7.1875 13.2448 7.22396 13.276 7.26562 13.2969C7.31771 13.3177 7.36979 13.3281 7.42188 13.3281C7.47396 13.3281 7.52083 13.3177 7.5625 13.2969C7.61458 13.276 7.65625 13.2448 7.6875 13.2031L9.59375 10.6719H12.75C13.2083 10.6719 13.599 10.5104 13.9219 10.1875C14.2552 9.85417 14.4219 9.45833 14.4219 9V2.32812C14.4219 1.86979 14.2552 1.47917 13.9219 1.15625C13.599 0.833333 13.2083 0.671875 12.75 0.671875ZM13.75 9C13.75 9.27083 13.651 9.50521 13.4531 9.70312C13.2656 9.90104 13.0312 10 12.75 10H9.42188C9.36979 10 9.31771 10.0156 9.26562 10.0469C9.22396 10.0677 9.1875 10.0938 9.15625 10.125V10.1406L7.42188 12.4375L5.6875 10.1406C5.65625 10.099 5.61458 10.0677 5.5625 10.0469C5.52083 10.0156 5.47396 10 5.42188 10H2.09375C1.8125 10 1.57292 9.90104 1.375 9.70312C1.1875 9.50521 1.09375 9.27083 1.09375 9V2.32812C1.09375 2.05729 1.1875 1.82292 1.375 1.625C1.57292 1.42708 1.8125 1.32812 2.09375 1.32812H12.75C13.0312 1.32812 13.2656 1.42708 13.4531 1.625C13.651 1.82292 13.75 2.05729 13.75 2.32812V9ZM11.75 3.67188C11.75 3.76562 11.7188 3.84375 11.6562 3.90625C11.5938 3.96875 11.5156 4 11.4219 4H3.42188C3.32812 4 3.25 3.96875 3.1875 3.90625C3.125 3.84375 3.09375 3.76562 3.09375 3.67188C3.09375 3.57812 3.125 3.5 3.1875 3.4375C3.25 3.36458 3.32812 3.32812 3.42188 3.32812H11.4219C11.5156 3.32812 11.5938 3.36458 11.6562 3.4375C11.7188 3.5 11.75 3.57812 11.75 3.67188ZM11.75 5.67188C11.75 5.76562 11.7188 5.84375 11.6562 5.90625C11.5938 5.96875 11.5156 6 11.4219 6H3.42188C3.32812 6 3.25 5.96875 3.1875 5.90625C3.125 5.84375 3.09375 5.76562 3.09375 5.67188C3.09375 5.57812 3.125 5.5 3.1875 5.4375C3.25 5.36458 3.32812 5.32812 3.42188 5.32812H11.4219C11.5156 5.32812 11.5938 5.36458 11.6562 5.4375C11.7188 5.5 11.75 5.57812 11.75 5.67188ZM11.75 7.67188C11.75 7.76562 11.7188 7.84375 11.6562 7.90625C11.5938 7.96875 11.5156 8 11.4219 8H3.42188C3.32812 8 3.25 7.96875 3.1875 7.90625C3.125 7.84375 3.09375 7.76562 3.09375 7.67188C3.09375 7.57812 3.125 7.5 3.1875 7.4375C3.25 7.36458 3.32812 7.32812 3.42188 7.32812H11.4219C11.5156 7.32812 11.5938 7.36458 11.6562 7.4375C11.7188 7.5 11.75 7.57812 11.75 7.67188Z" fill="#E52628"/>
</svg>
