<svg width="24" height="24" viewBox="0 0 24 24" fill="none" xmlns="http://www.w3.org/2000/svg">
<path fill-rule="evenodd" clip-rule="evenodd" d="M3.25 11C3.25 8.37665 5.37665 6.25 8 6.25H16C18.6234 6.25 20.75 8.37665 20.75 11V17C20.75 19.6234 18.6234 21.75 16 21.75H8C5.37665 21.75 3.25 19.6234 3.25 17V11ZM8 7.75C6.20507 7.75 4.75 9.20507 4.75 11V17C4.75 18.7949 6.20507 20.25 8 20.25H16C17.7949 20.25 19.25 18.7949 19.25 17V11C19.25 9.20507 17.7949 7.75 16 7.75H8Z" fill="#545E72"/>
<path fill-rule="evenodd" clip-rule="evenodd" d="M12 12.75C11.3096 12.75 10.75 13.3096 10.75 14C10.75 14.6904 11.3096 15.25 12 15.25C12.6904 15.25 13.25 14.6904 13.25 14C13.25 13.3096 12.6904 12.75 12 12.75ZM9.25 14C9.25 12.4812 10.4812 11.25 12 11.25C13.5188 11.25 14.75 12.4812 14.75 14C14.75 15.5188 13.5188 16.75 12 16.75C10.4812 16.75 9.25 15.5188 9.25 14Z" fill="#545E72"/>
<path fill-rule="evenodd" clip-rule="evenodd" d="M12 3.75C10.2051 3.75 8.75 5.20507 8.75 7H7.25C7.25 4.37665 9.37665 2.25 12 2.25C14.6234 2.25 16.75 4.37665 16.75 7H15.25C15.25 5.20507 13.7949 3.75 12 3.75Z" fill="#545E72"/>
</svg>
