<svg width="30" height="38" viewBox="0 0 30 38" fill="none" xmlns="http://www.w3.org/2000/svg">
<path d="M6.04646 37.9839C6.20443 37.9569 6.36405 37.9667 6.52366 37.9667C10.7644 37.9659 15.0052 37.965 19.2467 37.965C20.6505 37.965 22.0534 37.965 23.4572 37.965C23.5513 37.965 23.6471 37.9569 23.7404 37.983H6.04646V37.9839Z" fill="#01B5C0"/>
<path d="M14.9413 37.9274C12.0167 37.9274 9.09217 37.9421 6.1676 37.9225C3.83973 37.9069 2.08237 36.8486 0.848041 34.894C0.343832 34.0951 0.097458 33.2119 0.0131504 32.2788C-0.00649404 32.0594 0.00169116 31.8368 0.00169116 31.6158C0.00169116 27.8956 0.00414672 24.1754 5.41173e-05 20.4544C-0.000764402 19.6269 0.18504 18.8428 0.525544 18.0955C1.27122 16.4609 2.50063 15.3485 4.19251 14.7518C4.79494 14.539 5.41784 14.4195 6.06037 14.4203C6.12995 14.4203 6.1897 14.4277 6.1897 14.318C6.18479 12.6302 6.19052 10.9424 6.1807 9.25464C6.17579 8.37064 6.28629 7.5071 6.54248 6.65993C6.90509 5.4608 7.49933 4.39018 8.31703 3.44479C9.21822 2.402 10.3191 1.63586 11.5903 1.10955C12.3744 0.7846 13.1913 0.583245 14.0328 0.502211C14.9659 0.412174 15.8924 0.482567 16.8075 0.693745C17.7194 0.904104 18.5755 1.25198 19.3711 1.73818C20.6996 2.55097 21.7195 3.6617 22.4742 5.02208C22.9022 5.79312 23.1666 6.62065 23.3516 7.47764C23.4752 8.04978 23.5112 8.62848 23.5079 9.21126C23.4981 10.9162 23.4973 12.6212 23.5079 14.3262C23.5079 14.4064 23.5374 14.4203 23.6086 14.4211C24.942 14.4408 26.1395 14.8615 27.2142 15.6448C28.0818 16.2767 28.7162 17.1026 29.1565 18.0701C29.4676 18.7527 29.6518 19.478 29.6845 20.2359C29.6943 20.4643 29.6976 20.6918 29.6976 20.9194C29.6976 24.5331 29.7 28.1477 29.6959 31.7615C29.6951 32.6668 29.5069 33.5336 29.1254 34.3586C28.6294 35.4317 27.8829 36.2887 26.9007 36.9329C26.1223 37.4445 25.2653 37.7686 24.3346 37.8832C23.7756 37.9519 23.2141 37.9225 22.6534 37.9233C20.0824 37.9274 17.5115 37.9249 14.9405 37.9249V37.9266L14.9413 37.9274ZM14.9069 35.4759C16.3795 35.4759 17.852 35.4759 19.3253 35.4759C20.7643 35.4751 22.2024 35.4776 23.6414 35.4686C24.2978 35.4645 24.9117 35.2827 25.4642 34.9283C26.6568 34.163 27.2273 33.0523 27.2428 31.6469C27.2494 31.0445 27.2428 30.442 27.2428 29.8404C27.2428 27.0738 27.2428 24.3072 27.2404 21.5406C27.2404 21.1731 27.2527 20.8064 27.2314 20.4389C27.197 19.8266 27.0472 19.2463 26.7264 18.7257C25.9921 17.5356 24.9256 16.8939 23.5186 16.8923C17.7537 16.8849 11.9889 16.889 6.22408 16.889C6.06447 16.889 5.90486 16.8873 5.74524 16.9094C4.41024 17.092 3.43538 17.7828 2.82149 18.9819C2.52437 19.5631 2.44497 20.1917 2.44415 20.8326C2.4417 24.4333 2.4417 28.0331 2.44415 31.6338C2.44415 32.0013 2.47362 32.3672 2.57675 32.7241C2.95737 34.0312 3.7988 34.8931 5.08634 35.3204C5.5177 35.4636 5.96706 35.4776 6.41725 35.4776C9.24687 35.4776 12.0765 35.4776 14.9061 35.4776L14.9069 35.4759ZM14.8431 14.4113V14.413C16.8771 14.413 18.9103 14.413 20.9443 14.4154C21.0368 14.4154 21.0475 14.381 21.0475 14.3033C21.0458 12.6867 21.0491 11.0709 21.0442 9.45436C21.0426 8.98453 21.0057 8.51634 20.8928 8.05797C20.5662 6.73033 19.8934 5.61796 18.853 4.72414C18.0124 4.00138 17.0465 3.54874 15.9612 3.35393C15.394 3.25244 14.821 3.24098 14.2448 3.28845C13.6464 3.33756 13.0735 3.47671 12.5201 3.70426C11.479 4.13235 10.6089 4.78225 9.92952 5.68672C9.52026 6.23267 9.20267 6.82609 8.97267 7.46618C8.71156 8.1922 8.64444 8.94933 8.64526 9.71547C8.64608 11.206 8.6469 12.6965 8.6469 14.187C8.6469 14.4121 8.6469 14.4121 8.86544 14.4121C10.8585 14.4121 12.8516 14.4121 14.8439 14.4121L14.8431 14.4113Z" fill="#01B5C0"/>
<path d="M13.612 29.7684C13.612 29.1422 13.6104 28.5161 13.6145 27.8907C13.6145 27.8039 13.5654 27.781 13.5032 27.7573C12.9965 27.5576 12.5504 27.2678 12.1723 26.8741C10.9723 25.6267 10.7824 23.7514 11.7352 22.3018C12.3924 21.3008 13.337 20.7434 14.5296 20.6296C15.4766 20.5396 16.341 20.7884 17.0899 21.3712C17.8291 21.9466 18.2997 22.7046 18.4765 23.6328C18.691 24.7623 18.4077 25.774 17.7022 26.6629C17.2987 27.172 16.7699 27.5322 16.1593 27.7638C16.0856 27.7917 16.066 27.8269 16.066 27.903C16.0684 29.1447 16.066 30.3864 16.0701 31.6281C16.0701 31.7238 16.048 31.7549 15.9473 31.7549C15.2229 31.7517 14.4985 31.7549 13.7741 31.7549C13.5719 31.7549 13.6047 31.7607 13.6055 31.5871C13.6079 30.9814 13.6063 30.3757 13.6063 29.77C13.6079 29.77 13.6104 29.77 13.612 29.77V29.7684ZM14.8709 23.0803C14.1694 23.0827 13.5883 23.6385 13.5981 24.3089C13.6096 25.0799 14.2161 25.5604 14.8013 25.5661C15.5077 25.5727 16.0815 25.0193 16.0856 24.3481C16.0897 23.5002 15.403 23.0729 14.8709 23.0803Z" fill="#01B5C0"/>
</svg>
