<svg width="21" height="21" viewBox="0 0 21 21" fill="none" xmlns="http://www.w3.org/2000/svg">
<path d="M7.875 15.2854C7.875 15.6869 8.14826 16.0369 8.53778 16.1343L12.0378 17.0093C12.59 17.1474 13.125 16.7297 13.125 16.1604V5.7143C13.125 5.31279 12.8517 4.9628 12.4622 4.86542L8.96222 3.99042C8.40996 3.85236 7.875 4.27005 7.875 4.8393V15.2854Z" fill="white"/>
<path fill-rule="evenodd" clip-rule="evenodd" d="M5.5 5.57657C5.5 4.86911 4.78547 4.38535 4.12861 4.6481L3.25361 4.9981C2.87395 5.14996 2.625 5.51767 2.625 5.92657V16.0225C2.625 16.73 3.33953 17.2137 3.99639 16.951L4.87139 16.601C5.25105 16.4491 5.5 16.0814 5.5 15.6725L5.5 5.57657ZM15.5 15.4225C15.5 16.13 16.2145 16.6137 16.8714 16.351L17.7464 16.001C18.126 15.8491 18.375 15.4814 18.375 15.0725V4.97657C18.375 4.26911 17.6605 3.78535 17.0036 4.0481L16.1286 4.3981C15.749 4.54996 15.5 4.91767 15.5 5.32657L15.5 15.4225Z" fill="white" fill-opacity="0.24"/>
</svg>
