<svg width="13" height="14" viewBox="0 0 13 14" fill="none" xmlns="http://www.w3.org/2000/svg">
<path d="M9.04688 0.484375C8.90104 0.338542 8.72396 0.223958 8.51562 0.140625C8.31771 0.046875 8.10417 0 7.875 0H2.42188C1.96354 0 1.56771 0.166667 1.23438 0.5C0.911458 0.822917 0.75 1.21354 0.75 1.67188V12.3281C0.75 12.7865 0.911458 13.1823 1.23438 13.5156C1.56771 13.8385 1.96354 14 2.42188 14H10.4219C10.8802 14 11.2708 13.8385 11.5938 13.5156C11.9271 13.1823 12.0938 12.7865 12.0938 12.3281V4.21875C12.0938 3.98958 12.0469 3.77604 11.9531 3.57812C11.8698 3.36979 11.75 3.19271 11.5938 3.04688L9.04688 0.484375ZM8.09375 0.6875C8.1875 0.708333 8.27604 0.744792 8.35938 0.796875C8.44271 0.838542 8.51562 0.890625 8.57812 0.953125L11.125 3.51562C11.1875 3.57812 11.2396 3.65104 11.2812 3.73438C11.3333 3.81771 11.3698 3.90625 11.3906 4H9.09375C8.8125 4 8.57292 3.90104 8.375 3.70312C8.1875 3.50521 8.09375 3.27083 8.09375 3V0.6875ZM11.4219 12.3281C11.4219 12.6094 11.3229 12.849 11.125 13.0469C10.9271 13.2344 10.6927 13.3281 10.4219 13.3281H2.42188C2.15104 13.3281 1.91667 13.2344 1.71875 13.0469C1.52083 12.849 1.42188 12.6094 1.42188 12.3281V1.67188C1.42188 1.39062 1.52083 1.15625 1.71875 0.96875C1.91667 0.770833 2.15104 0.671875 2.42188 0.671875H7.42188V3C7.42188 3.45833 7.58333 3.85417 7.90625 4.1875C8.23958 4.51042 8.63542 4.67188 9.09375 4.67188H11.4219V12.3281ZM9.09375 6.67188C9.1875 6.67188 9.26562 6.70312 9.32812 6.76562C9.39062 6.82812 9.42188 6.90625 9.42188 7C9.42188 7.09375 9.39062 7.17188 9.32812 7.23438C9.26562 7.29688 9.1875 7.32812 9.09375 7.32812H3.75C3.65625 7.32812 3.57812 7.29688 3.51562 7.23438C3.45312 7.17188 3.42188 7.09375 3.42188 7C3.42188 6.90625 3.45312 6.82812 3.51562 6.76562C3.57812 6.70312 3.65625 6.67188 3.75 6.67188H9.09375ZM9.42188 9C9.42188 9.09375 9.39062 9.17188 9.32812 9.23438C9.26562 9.29688 9.1875 9.32812 9.09375 9.32812H3.75C3.65625 9.32812 3.57812 9.29688 3.51562 9.23438C3.45312 9.17188 3.42188 9.09375 3.42188 9C3.42188 8.90625 3.45312 8.82812 3.51562 8.76562C3.57812 8.70312 3.65625 8.67188 3.75 8.67188H9.09375C9.1875 8.67188 9.26562 8.70312 9.32812 8.76562C9.39062 8.82812 9.42188 8.90625 9.42188 9ZM9.42188 11C9.42188 11.0938 9.39062 11.1719 9.32812 11.2344C9.26562 11.2969 9.1875 11.3281 9.09375 11.3281H3.75C3.65625 11.3281 3.57812 11.2969 3.51562 11.2344C3.45312 11.1719 3.42188 11.0938 3.42188 11C3.42188 10.9062 3.45312 10.8281 3.51562 10.7656C3.57812 10.7031 3.65625 10.6719 3.75 10.6719H9.09375C9.1875 10.6719 9.26562 10.7031 9.32812 10.7656C9.39062 10.8281 9.42188 10.9062 9.42188 11Z" fill="#E52628"/>
</svg>
