<svg width="36" height="36" viewBox="0 0 36 36" fill="none" xmlns="http://www.w3.org/2000/svg">
<path fill-rule="evenodd" clip-rule="evenodd" d="M31.875 10.5C31.875 7.80761 29.6924 5.625 27 5.625L9 5.625C6.30761 5.625 4.125 7.80761 4.125 10.5L4.125 25.5C4.125 28.1924 6.30761 30.375 9 30.375H19.5C20.1213 30.375 20.625 30.8787 20.625 31.5C20.625 32.1213 20.1213 32.625 19.5 32.625H9C5.06497 32.625 1.875 29.435 1.875 25.5L1.875 10.5C1.875 6.56497 5.06497 3.375 9 3.375L27 3.375C30.935 3.375 34.125 6.56497 34.125 10.5V19.5C34.125 20.1213 33.6213 20.625 33 20.625C32.3787 20.625 31.875 20.1213 31.875 19.5V10.5Z" fill="#545E72"/>
<path d="M10.5 25.5C10.5 26.3284 9.82843 27 9 27C8.17157 27 7.5 26.3284 7.5 25.5C7.5 24.6716 8.17157 24 9 24C9.82843 24 10.5 24.6716 10.5 25.5Z" fill="#545E72"/>
<path fill-rule="evenodd" clip-rule="evenodd" d="M28.5 27.375C27.4645 27.375 26.625 26.5355 26.625 25.5C26.625 24.4645 27.4645 23.625 28.5 23.625C29.5355 23.625 30.375 24.4645 30.375 25.5C30.375 26.5355 29.5355 27.375 28.5 27.375ZM24.375 25.5C24.375 27.7782 26.2218 29.625 28.5 29.625C30.7782 29.625 32.625 27.7782 32.625 25.5C32.625 23.2218 30.7782 21.375 28.5 21.375C26.2218 21.375 24.375 23.2218 24.375 25.5Z" fill="#545E72"/>
<path fill-rule="evenodd" clip-rule="evenodd" d="M23.4962 32.5059C24.0517 32.7841 24.7276 32.5593 25.0059 32.0038C25.7498 30.5185 27.0786 29.625 28.5 29.625C29.9215 29.625 31.2502 30.5185 31.9941 32.0038C32.2724 32.5593 32.9483 32.7841 33.5038 32.5059C34.0593 32.2276 34.2841 31.5517 34.0059 30.9962C32.9533 28.8947 30.9243 27.375 28.5 27.375C26.0757 27.375 24.0467 28.8947 22.9941 30.9962C22.7159 31.5517 22.9407 32.2276 23.4962 32.5059Z" fill="#545E72"/>
<path fill-rule="evenodd" clip-rule="evenodd" d="M31.875 11.625H4.125V15.375L31.875 15.375V11.625ZM34.125 10.5V16.5C34.125 17.1213 33.6213 17.625 33 17.625H3C2.70163 17.625 2.41549 17.5065 2.2045 17.2955C1.99353 17.0845 1.875 16.7984 1.875 16.5L1.875 10.5C1.875 9.87868 2.37868 9.375 3 9.375L33 9.375C33.6213 9.375 34.125 9.87868 34.125 10.5Z" fill="#545E72"/>
</svg>
