<svg width="36" height="36" viewBox="0 0 36 36" fill="none" xmlns="http://www.w3.org/2000/svg">
<path fill-rule="evenodd" clip-rule="evenodd" d="M1.875 9C1.875 5.06497 5.06497 1.875 9 1.875H27C30.935 1.875 34.125 5.06497 34.125 9V21C34.125 21.6213 33.6213 22.125 33 22.125C32.3787 22.125 31.875 21.6213 31.875 21V9C31.875 6.30761 29.6924 4.125 27 4.125H9C6.30761 4.125 4.125 6.30761 4.125 9V27C4.125 29.6924 6.30761 31.875 9 31.875H18C18.6213 31.875 19.125 32.3787 19.125 33C19.125 33.6213 18.6213 34.125 18 34.125H9C5.06497 34.125 1.875 30.935 1.875 27V9Z" fill="#545E72"/>
<path fill-rule="evenodd" clip-rule="evenodd" d="M10.875 3C10.875 2.37868 11.3787 1.875 12 1.875H24C24.6213 1.875 25.125 2.37868 25.125 3V14.3787C25.125 16.7173 22.2975 17.8885 20.6438 16.2348L18.2652 13.8562C18.1187 13.7097 17.8813 13.7097 17.7348 13.8562L15.3562 16.2348C13.7025 17.8885 10.875 16.7173 10.875 14.3787V3ZM13.125 4.125V14.3787C13.125 14.7128 13.5289 14.8801 13.7652 14.6438L16.1438 12.2652C17.169 11.24 18.831 11.24 19.8562 12.2652L22.2348 14.6438C22.4711 14.8801 22.875 14.7128 22.875 14.3787V4.125H13.125Z" fill="#545E72"/>
<path fill-rule="evenodd" clip-rule="evenodd" d="M32.2409 26.1534C32.7085 26.5625 32.7558 27.2732 32.3467 27.7408L28.0418 32.6607C27.1168 33.7179 25.5234 33.8594 24.4265 32.9819L21.7973 30.8785C21.3121 30.4904 21.2334 29.7824 21.6216 29.2972C22.0097 28.8121 22.7177 28.7334 23.2028 29.1215L25.8321 31.2249C25.9888 31.3503 26.2164 31.3301 26.3485 31.179L30.6534 26.2592C31.0625 25.7916 31.7733 25.7442 32.2409 26.1534Z" fill="#545E72"/>
</svg>
