<svg width="62" height="50" viewBox="0 0 62 50" fill="none" xmlns="http://www.w3.org/2000/svg">
<path d="M0 34.2053C0.12079 33.6861 0.225475 33.1637 0.363981 32.6492C1.52678 28.3243 5.53378 25.2025 10.0481 25.1354C12.2368 25.1018 14.4255 25.1178 16.6142 25.1258C17.8253 25.1306 18.7192 26.0333 18.7031 27.206C18.6886 28.3515 17.806 29.1983 16.5997 29.2015C14.6123 29.2062 12.6233 29.1983 10.6359 29.2015C6.73523 29.2062 4.11008 31.8184 4.10525 35.696C4.10525 36.3819 4.45151 36.7249 5.14404 36.7249C6.75134 36.7249 8.35703 36.7217 9.96433 36.7249C11.1948 36.7297 12.1225 37.5828 12.1531 38.7235C12.1837 39.8755 11.2415 40.8037 9.9885 40.8101C7.51795 40.8245 5.0474 40.7765 2.57846 40.8309C1.31258 40.8596 0.44934 40.4171 0.0032242 39.23C0.0032242 37.5556 0.0032242 35.8813 0.0032242 34.2069L0 34.2053Z" fill="white"/>
<path d="M30.8352 49.9999C26.1566 49.9999 21.478 49.9999 16.7978 49.9999C15.2066 49.9999 14.3981 49.233 14.4175 47.6673C14.4416 45.798 14.2661 43.9208 14.5801 42.0611C15.3532 37.4886 19.4455 33.8315 24.1112 33.7308C28.6078 33.635 33.1092 33.6286 37.6042 33.7308C42.6854 33.8475 46.9855 38.0845 47.261 43.1203C47.3479 44.71 47.3222 46.3061 47.3012 47.8989C47.2835 49.201 46.4331 49.9951 45.1109 49.9967C40.3518 50.0031 35.5927 49.9983 30.8336 49.9983L30.8352 49.9999ZM30.8513 45.9162C34.7665 45.9162 38.6833 45.9083 42.5985 45.9258C43.0623 45.9274 43.2443 45.8188 43.2089 45.3347C43.1638 44.7404 43.2056 44.1396 43.1766 43.5437C43.0285 40.4027 40.45 37.8304 37.2902 37.7921C33.0142 37.741 28.735 37.7522 24.4591 37.7889C21.9901 37.8097 19.8047 39.4249 18.9189 41.7128C18.4647 42.8855 18.5597 44.0997 18.5146 45.3107C18.4953 45.8284 18.6805 45.9274 19.1637 45.9258C23.0596 45.9067 26.9554 45.9146 30.8513 45.9146V45.9162Z" fill="white"/>
<path d="M30.8287 31.6331C23.889 31.5404 18.4373 26.0429 18.5356 19.2384C18.6338 12.402 24.2191 7.04661 31.1347 7.15845C37.8667 7.26709 43.2894 12.835 43.1928 19.5388C43.0961 26.2617 37.5124 31.7226 30.8303 31.6331H30.8287ZM30.8771 27.5479C35.4429 27.5399 39.0843 23.9068 39.0843 19.3582C39.0843 14.8688 35.4026 11.2245 30.8754 11.2309C26.2951 11.2389 22.6295 14.8688 22.6392 19.3918C22.6473 23.9307 26.308 27.5559 30.8771 27.5495V27.5479Z" fill="white"/>
<path d="M57.7567 11.5616C57.7793 17.4938 53.4695 22.4593 47.6749 23.2981C46.541 23.4626 45.5087 22.7517 45.3106 21.6701C45.0996 20.5165 45.8115 19.4988 47.0113 19.2608C49.9457 18.6792 51.9894 17.0192 53.0137 14.2329C54.832 9.28175 50.9233 3.91039 45.6391 4.07815C43.7419 4.13886 42.0927 4.8642 40.7061 6.15512C40.2809 6.55134 39.8187 6.82614 39.218 6.84051C38.3354 6.85969 37.5784 6.40116 37.2483 5.62948C36.9165 4.85302 37.0663 3.95832 37.6863 3.36879C40.2777 0.900391 43.3828 -0.264308 46.955 0.0504326C52.3518 0.52494 56.4715 4.26827 57.5538 9.54217C57.6987 10.2467 57.7744 10.9577 57.7535 11.5632L57.7567 11.5616Z" fill="white"/>
<path d="M3.92004 11.7501C3.92648 5.22208 9.24121 -0.0390365 15.8234 0.0200771C18.8094 0.0456398 21.4345 1.07773 23.6587 3.06842C24.6491 3.95513 24.7538 5.19492 23.9357 6.07204C23.1385 6.92679 21.8967 6.92839 20.9256 6.07683C18.4438 3.89761 14.9344 3.495 12.0661 5.06231C9.26538 6.59288 7.6484 9.76904 8.13478 12.787C8.67914 16.1693 11.0499 18.6505 14.3321 19.2752C15.9378 19.5803 16.7527 20.7674 16.2599 22.0775C15.9346 22.9418 15.1422 23.4355 14.2467 23.33C8.38764 22.6414 3.91199 17.6248 3.91682 11.7517L3.92004 11.7501Z" fill="white"/>
<path d="M55.5954 40.8117C54.3102 40.8117 53.0234 40.8181 51.7382 40.8101C50.4997 40.8021 49.5866 39.9474 49.5721 38.7986C49.5576 37.6419 50.5045 36.744 51.764 36.7408C53.5323 36.7344 55.3007 36.7233 57.0674 36.7504C57.528 36.7568 57.6311 36.6178 57.6327 36.1801C57.6327 35.0361 57.5876 33.9018 57.0787 32.8521C55.924 30.4684 53.9849 29.2542 51.3324 29.2078C49.3047 29.1727 47.2738 29.2015 45.2462 29.203C43.9143 29.203 43.0124 28.3723 43.022 27.1484C43.0317 25.9614 43.9449 25.1274 45.2317 25.1274C47.2803 25.1274 49.3305 25.1242 51.3791 25.1306C57.1528 25.1498 61.6945 29.6504 61.7235 35.3796C61.7283 36.4756 61.7315 37.5716 61.7235 38.6676C61.7122 39.9585 60.8812 40.7813 59.575 40.8149C59.5348 40.8149 59.4945 40.8149 59.4542 40.8149C58.169 40.8149 56.8822 40.8149 55.597 40.8149L55.5954 40.8117Z" fill="white"/>
</svg>
