<svg width="15" height="14" viewBox="0 0 15 14" fill="none" xmlns="http://www.w3.org/2000/svg">
<path d="M10.25 14C10.5833 14 10.9115 13.9896 11.2344 13.9688C11.5573 13.9375 11.8802 13.8906 12.2031 13.8281L12.125 13.8438C12.5 13.7812 12.8281 13.6302 13.1094 13.3906C13.401 13.1406 13.6042 12.8438 13.7188 12.5V12.4844L14.3594 10.5781C14.3802 10.526 14.3958 10.4688 14.4062 10.4062C14.4167 10.3438 14.4219 10.276 14.4219 10.2031C14.4219 9.95312 14.3438 9.72917 14.1875 9.53125C14.0417 9.32292 13.8542 9.17708 13.625 9.09375H13.6094L11.3281 8.32812C11.2656 8.30729 11.2031 8.29167 11.1406 8.28125C11.0781 8.27083 11.0156 8.26562 10.9531 8.26562C10.7865 8.26562 10.6302 8.29688 10.4844 8.35938C10.349 8.42188 10.2292 8.50521 10.125 8.60938L8.57812 10.0156C8.43229 10.0573 8.07292 10.0573 7.5 10.0156C6.92708 9.97396 6.28125 9.58854 5.5625 8.85938C4.83333 8.14062 4.44792 7.49479 4.40625 6.92188C4.36458 6.34896 4.36458 5.98958 4.40625 5.84375L5.79688 4.3125C5.91146 4.19792 6 4.07292 6.0625 3.9375C6.125 3.79167 6.15625 3.63542 6.15625 3.46875C6.15625 3.40625 6.15104 3.34375 6.14062 3.28125C6.13021 3.21875 6.11458 3.15625 6.09375 3.09375L5.32812 0.8125C5.24479 0.572917 5.09896 0.380208 4.89062 0.234375C4.69271 0.078125 4.46875 0 4.21875 0C4.14583 0 4.07812 0.00520833 4.01562 0.015625C3.95312 0.0260417 3.89062 0.0416667 3.82812 0.0625H3.84375L1.9375 0.703125C1.58333 0.817708 1.28125 1.01562 1.03125 1.29688C0.791667 1.57812 0.640625 1.90625 0.578125 2.28125V2.29688C0.526042 2.57812 0.484375 2.875 0.453125 3.1875C0.421875 3.5 0.40625 3.82292 0.40625 4.15625C0.40625 4.83333 0.473958 5.49479 0.609375 6.14062C0.734375 6.78646 0.921875 7.40625 1.17188 8C1.42188 8.58333 1.72396 9.14062 2.07812 9.67188C2.43229 10.2031 2.83333 10.6927 3.28125 11.1406C3.71875 11.5781 4.19792 11.974 4.71875 12.3281C5.22917 12.6823 5.77604 12.9844 6.35938 13.2344C6.94271 13.4844 7.54688 13.6719 8.17188 13.7969C8.80729 13.9323 9.46354 14 10.1406 14C10.1615 14 10.1823 14 10.2031 14C10.224 14 10.2448 14 10.2656 14H10.25ZM1.23438 2.40625C1.27604 2.15625 1.38021 1.9375 1.54688 1.75C1.71354 1.55208 1.91146 1.41146 2.14062 1.32812H2.15625L4.04688 0.6875C4.07812 0.6875 4.10417 0.6875 4.125 0.6875C4.15625 0.677083 4.1875 0.671875 4.21875 0.671875C4.26042 0.671875 4.29688 0.677083 4.32812 0.6875C4.36979 0.6875 4.41146 0.697917 4.45312 0.71875H4.4375C4.5 0.75 4.55208 0.791667 4.59375 0.84375C4.64583 0.895833 4.68229 0.953125 4.70312 1.01562L5.45312 3.3125C5.46354 3.33333 5.46875 3.35938 5.46875 3.39062C5.47917 3.41146 5.48438 3.4375 5.48438 3.46875C5.48438 3.54167 5.46875 3.61458 5.4375 3.6875C5.40625 3.75 5.36458 3.80208 5.3125 3.84375L3.85938 5.45312C3.83854 5.46354 3.82292 5.47917 3.8125 5.5C3.80208 5.52083 3.79167 5.54167 3.78125 5.5625C3.77083 5.60417 3.74479 6.00521 3.70312 6.76562C3.66146 7.51562 4.125 8.36979 5.09375 9.32812C6.05208 10.2969 6.90625 10.7604 7.65625 10.7188C8.41667 10.6771 8.81771 10.651 8.85938 10.6406C8.88021 10.6302 8.90104 10.6198 8.92188 10.6094C8.94271 10.599 8.95833 10.5833 8.96875 10.5625L10.5781 9.09375C10.6302 9.04167 10.6875 9.00521 10.75 8.98438C10.8125 8.95312 10.8802 8.9375 10.9531 8.9375C10.9844 8.9375 11.0104 8.94271 11.0312 8.95312C11.0625 8.95312 11.0885 8.95833 11.1094 8.96875L13.4062 9.71875C13.4688 9.73958 13.526 9.77604 13.5781 9.82812C13.6302 9.86979 13.6719 9.92188 13.7031 9.98438C13.724 10.0156 13.7344 10.0521 13.7344 10.0938C13.7448 10.125 13.75 10.1615 13.75 10.2031C13.75 10.2344 13.7448 10.2656 13.7344 10.2969C13.7344 10.3281 13.7344 10.3542 13.7344 10.375L13.0938 12.2656C13.0104 12.5052 12.875 12.7083 12.6875 12.875C12.5 13.0417 12.2812 13.1458 12.0312 13.1875H12.0156C11.7552 13.2396 11.474 13.2812 11.1719 13.3125C10.8698 13.3438 10.5625 13.3594 10.25 13.3594C8.97917 13.3594 7.78646 13.1198 6.67188 12.6406C5.55729 12.151 4.58333 11.4948 3.75 10.6719C2.92708 9.83854 2.27083 8.86458 1.78125 7.75C1.30208 6.63542 1.0625 5.44271 1.0625 4.17188C1.0625 3.85938 1.07812 3.55208 1.10938 3.25C1.14062 2.9375 1.1875 2.63542 1.25 2.34375L1.23438 2.40625Z" fill="#E52628"/>
</svg>
