<svg width="36" height="46" viewBox="0 0 36 46" fill="none" xmlns="http://www.w3.org/2000/svg">
<path d="M36 23.9877C36 22.5061 36 21.0245 36 19.6488V18.1672C35.9655 7.30215 28.7517 0 17.9827 0C7.24832 0 0 7.30215 0 18.1672V19.6488C0 21.0245 0 22.5061 0 24.023V24.2347C0.0345158 28.8911 1.72579 33.1242 4.52157 36.3344C6.24736 38.3451 8.42186 39.9678 10.838 41.0261C11.6318 41.3788 12.4257 41.661 13.2541 41.908C14.2205 42.1902 15.1524 42.6135 15.9118 43.2837C16.8092 44.0951 17.5686 45.0123 17.9482 46C18.3624 45.0123 19.0872 44.0951 19.9847 43.2837C19.9847 43.2837 20.0192 43.2837 20.0192 43.2485C20.7785 42.5782 21.7104 42.1549 22.6424 41.8727C23.4708 41.6258 24.2991 41.3436 25.0585 40.9908C27.5091 39.8972 29.6491 38.3098 31.3749 36.2991C34.1707 33.089 35.8619 28.8558 35.8965 24.2347C35.8965 24.1994 35.8965 24.1641 35.8965 24.1288C36 24.0936 36 24.023 36 23.9877ZM6.86865 16.9325C6.86865 16.862 6.86865 16.7914 6.90316 16.7209C7.38639 10.9003 12.1841 6.34969 17.9827 6.34969C23.9195 6.34969 28.7517 11.0767 29.0968 17.0383C29.0968 17.25 29.1314 17.4617 29.1314 17.7086V23.7408C29.1314 29.5614 26.5427 32.3834 23.7469 33.7239C22.4353 34.2883 21.1237 35.0644 20.0537 36.0169C19.1563 36.8282 18.3969 37.7454 18.0173 38.7331C17.6031 37.7454 16.8782 36.8282 15.9808 36.0169C14.9108 35.0644 13.5992 34.2531 12.2876 33.6887C9.49185 32.3129 6.90316 29.4908 6.90316 23.7055V16.9325H6.86865Z" fill="#D12A2C"/>
</svg>
