<svg width="11" height="11" viewBox="0 0 11 11" fill="none" xmlns="http://www.w3.org/2000/svg">
<path d="M5.40233 0.499023C5.82829 0.499023 6.17361 0.844336 6.17361 1.2703V4.6125H9.51581C9.94177 4.6125 10.2871 4.95781 10.2871 5.38378C10.2871 5.80974 9.94177 6.15505 9.51581 6.15505H6.17361V9.49725C6.17361 9.92322 5.82829 10.2685 5.40233 10.2685C4.97637 10.2685 4.63105 9.92322 4.63105 9.49725V6.15505H1.28885C0.86289 6.15505 0.517578 5.80974 0.517578 5.38378C0.517578 4.95781 0.86289 4.6125 1.28885 4.6125H4.63105V1.2703C4.63105 0.844336 4.97637 0.499023 5.40233 0.499023Z" fill="white"/>
</svg>
