<svg width="22" height="22" viewBox="0 0 22 22" fill="none" xmlns="http://www.w3.org/2000/svg">
<path fill-rule="evenodd" clip-rule="evenodd" d="M10.0827 4.6665C7.09114 4.6665 4.66602 7.09163 4.66602 10.0832C4.66602 13.0747 7.09114 15.4998 10.0827 15.4998C13.0742 15.4998 15.4993 13.0747 15.4993 10.0832C15.4993 7.09163 13.0742 4.6665 10.0827 4.6665ZM2.66602 10.0832C2.66602 5.98706 5.98657 2.6665 10.0827 2.6665C14.1788 2.6665 17.4993 5.98706 17.4993 10.0832C17.4993 14.1793 14.1788 17.4998 10.0827 17.4998C5.98657 17.4998 2.66602 14.1793 2.66602 10.0832Z" fill="white"/>
<path fill-rule="evenodd" clip-rule="evenodd" d="M14.8769 14.8764C15.2674 14.4859 15.9006 14.4859 16.2911 14.8764L19.0411 17.6264C19.4316 18.0169 19.4316 18.6501 19.0411 19.0406C18.6506 19.4311 18.0174 19.4311 17.6269 19.0406L14.8769 16.2906C14.4864 15.9001 14.4864 15.2669 14.8769 14.8764Z" fill="white"/>
</svg>
