<svg width="36" height="36" viewBox="0 0 36 36" fill="none" xmlns="http://www.w3.org/2000/svg">
<path fill-rule="evenodd" clip-rule="evenodd" d="M18 4.125C16.197 4.125 14.6211 5.10324 13.7765 6.56332C13.4654 7.10114 12.7772 7.28492 12.2394 6.97381C11.7016 6.66269 11.5178 5.9745 11.8289 5.43668C13.0592 3.30995 15.3614 1.875 18 1.875C21.9351 1.875 25.125 5.06497 25.125 9.00002L25.125 10.9633C28.5255 11.5027 31.125 14.4478 31.125 18V27C31.125 30.935 27.935 34.125 24 34.125H12C8.06497 34.125 4.875 30.935 4.875 27V18C4.875 14.065 8.06497 10.875 12 10.875H22.875L22.875 9C22.875 6.30761 20.6924 4.125 18 4.125ZM12 13.125C9.30761 13.125 7.125 15.3076 7.125 18V27C7.125 29.6924 9.30761 31.875 12 31.875H24C26.6924 31.875 28.875 29.6924 28.875 27V18C28.875 15.3076 26.6924 13.125 24 13.125H12ZM18 20.625C16.9645 20.625 16.125 21.4645 16.125 22.5C16.125 23.5355 16.9645 24.375 18 24.375C19.0355 24.375 19.875 23.5355 19.875 22.5C19.875 21.4645 19.0355 20.625 18 20.625ZM13.875 22.5C13.875 20.2218 15.7218 18.375 18 18.375C20.2782 18.375 22.125 20.2218 22.125 22.5C22.125 24.7782 20.2782 26.625 18 26.625C15.7218 26.625 13.875 24.7782 13.875 22.5Z" fill="#545E72"/>
</svg>
