<svg width="36" height="36" viewBox="0 0 36 36" fill="none" xmlns="http://www.w3.org/2000/svg">
<path fill-rule="evenodd" clip-rule="evenodd" d="M1.875 12C1.875 11.3787 2.37868 10.875 3 10.875H6C6.1552 10.875 6.30873 10.9071 6.45092 10.9693L15.8443 15.0789C17.8533 15.9578 18.7771 18.2928 17.9133 20.3083C17.0449 22.3346 14.6983 23.2732 12.672 22.4048L10.0568 21.284C9.48576 21.0393 9.22121 20.3779 9.46596 19.8068C9.71071 19.2358 10.3721 18.9712 10.9432 19.216L13.5583 20.3367C14.4424 20.7156 15.4663 20.3061 15.8452 19.422C16.2221 18.5426 15.819 17.5238 14.9424 17.1403L5.76467 13.125H3C2.37868 13.125 1.875 12.6213 1.875 12Z" fill="#D12A2C"/>
<path fill-rule="evenodd" clip-rule="evenodd" d="M15.9971 19.4907L21.1031 22.0437C22.1965 22.5904 23.4023 22.8751 24.6249 22.8751H27.0002C29.2784 22.8751 31.1252 24.7219 31.1252 27.0001C31.1252 29.2782 29.2784 31.1251 27.0002 31.1251H14.8331C12.7955 31.1251 10.7859 30.6507 8.96338 29.7394L2.49713 26.5063C1.94141 26.2284 1.71615 25.5527 1.99402 24.997C2.27188 24.4412 2.94764 24.216 3.50336 24.4938L9.96961 27.727C11.4797 28.482 13.1448 28.8751 14.8331 28.8751H27.0002C28.0358 28.8751 28.8752 28.0356 28.8752 27.0001C28.8752 25.9645 28.0358 25.1251 27.0002 25.1251H24.6249C23.053 25.1251 21.5027 24.7591 20.0968 24.0561L14.9909 21.5032L15.9971 19.4907Z" fill="#D12A2C"/>
<path fill-rule="evenodd" clip-rule="evenodd" d="M21.9775 7.125C20.4021 7.125 19.125 8.4021 19.125 9.97748V10.1643C19.125 10.8544 19.3599 11.524 19.791 12.0629L24.0359 17.369C24.7865 18.3072 26.2135 18.3072 26.9641 17.369L31.209 12.0629C31.6401 11.524 31.875 10.8544 31.875 10.1643V9.97748C31.875 8.4021 30.5979 7.125 29.0225 7.125H28.5764C28.1055 7.125 27.6539 7.31206 27.321 7.64502C26.3153 8.65072 24.6847 8.65072 23.679 7.64502C23.3461 7.31206 22.8945 7.125 22.4236 7.125H21.9775ZM16.875 9.97748C16.875 7.15946 19.1595 4.875 21.9775 4.875H22.4236C23.4912 4.875 24.5151 5.29911 25.27 6.05403C25.397 6.18105 25.603 6.18105 25.73 6.05403C26.4849 5.29911 27.5088 4.875 28.5764 4.875H29.0225C31.8405 4.875 34.125 7.15946 34.125 9.97748V10.1643C34.125 11.3653 33.7162 12.5306 32.966 13.4684L28.7211 18.7745C27.0697 20.8387 23.9303 20.8387 22.2789 18.7745L18.034 13.4684C17.2838 12.5306 16.875 11.3653 16.875 10.1643V9.97748Z" fill="#D12A2C"/>
</svg>
