<svg width="14" height="19" viewBox="0 0 14 19" fill="none" xmlns="http://www.w3.org/2000/svg">
<path d="M5.04 18.12C4.624 18.12 4.248 18.104 3.912 18.072C3.576 18.056 3.288 18.032 3.048 18V10.176L0.48 11.064V9.504L3.048 8.64V6.744L0.48 7.608V6.048L3.048 5.184V0.863999H5.112V4.464L10.056 2.76V4.32L5.112 6.024V7.92L10.056 6.216V7.752L5.112 9.48V16.296C6.568 16.296 7.72 16 8.568 15.408C9.416 14.8 10.024 13.992 10.392 12.984C10.76 11.976 10.944 10.848 10.944 9.6H13.008C13.008 10.704 12.864 11.768 12.576 12.792C12.304 13.816 11.848 14.728 11.208 15.528C10.584 16.328 9.768 16.96 8.76 17.424C7.752 17.888 6.512 18.12 5.04 18.12Z" fill="#545E72"/>
</svg>
