<svg width="21" height="21" viewBox="0 0 21 21" fill="none" xmlns="http://www.w3.org/2000/svg">
<circle cx="10.5" cy="11.375" r="7" fill="white" fill-opacity="0.24"/>
<path d="M10.5 11.375L10.5 7" stroke="white" stroke-width="1.2" stroke-linecap="round"/>
<path d="M17.8536 4.72855C18.0488 4.53329 18.0488 4.21671 17.8536 4.02145C17.6583 3.82618 17.3417 3.82618 17.1465 4.02145L17.8536 4.72855ZM16.5411 6.04105L17.8536 4.72855L17.1465 4.02145L15.8339 5.33395L16.5411 6.04105Z" fill="white"/>
<path d="M8.80963 2.94927C8.90934 2.85624 9.12904 2.77404 9.43467 2.71541C9.74029 2.65678 10.1148 2.625 10.5 2.625C10.8852 2.625 11.2597 2.65678 11.5653 2.71541C11.871 2.77404 12.0907 2.85624 12.1904 2.94927" stroke="white" stroke-width="1.2" stroke-linecap="round"/>
</svg>
