<svg width="13" height="14" viewBox="0 0 13 14" fill="none" xmlns="http://www.w3.org/2000/svg">
<path d="M6.42188 7.32812C6.93229 7.32812 7.40625 7.23438 7.84375 7.04688C8.29167 6.84896 8.68229 6.58854 9.01562 6.26562C9.34896 5.93229 9.60938 5.54167 9.79688 5.09375C9.99479 4.64583 10.0938 4.17188 10.0938 3.67188C10.0938 3.16146 9.99479 2.68229 9.79688 2.23438C9.60938 1.79688 9.34896 1.41146 9.01562 1.07812C8.68229 0.744792 8.29167 0.479167 7.84375 0.28125C7.40625 0.09375 6.93229 0 6.42188 0C5.91146 0 5.4375 0.09375 5 0.28125C4.55208 0.479167 4.16146 0.744792 3.82812 1.07812C3.49479 1.41146 3.23438 1.79688 3.04688 2.23438C2.84896 2.68229 2.75 3.16146 2.75 3.67188C2.75 4.17188 2.84896 4.64583 3.04688 5.09375C3.23438 5.54167 3.49479 5.93229 3.82812 6.26562C4.16146 6.58854 4.55208 6.84896 5 7.04688C5.4375 7.23438 5.91146 7.32812 6.42188 7.32812ZM6.42188 0.671875C7.25521 0.671875 7.96354 0.963542 8.54688 1.54688C9.13021 2.13021 9.42188 2.83854 9.42188 3.67188C9.42188 4.49479 9.13021 5.20312 8.54688 5.79688C7.96354 6.38021 7.25521 6.67188 6.42188 6.67188C5.58854 6.67188 4.88021 6.38021 4.29688 5.79688C3.71354 5.20312 3.42188 4.49479 3.42188 3.67188C3.42188 2.83854 3.71354 2.13021 4.29688 1.54688C4.89062 0.963542 5.59896 0.671875 6.42188 0.671875ZM3.09375 9.32812H9.75C10.5833 9.32812 11.2917 9.625 11.875 10.2188C12.4583 10.8021 12.75 11.5052 12.75 12.3281V13.6719C12.75 13.7656 12.7188 13.8438 12.6562 13.9062C12.5938 13.9688 12.5156 14 12.4219 14C12.3281 14 12.25 13.9688 12.1875 13.9062C12.125 13.8438 12.0938 13.7656 12.0938 13.6719V12.3281C12.0938 11.6927 11.8646 11.1458 11.4062 10.6875C10.9479 10.2292 10.3958 10 9.75 10H3.09375C2.44792 10 1.89583 10.2292 1.4375 10.6875C0.979167 11.1458 0.75 11.6927 0.75 12.3281V13.6719C0.75 13.7656 0.71875 13.8438 0.65625 13.9062C0.59375 13.9688 0.515625 14 0.421875 14C0.328125 14 0.25 13.9688 0.1875 13.9062C0.125 13.8438 0.09375 13.7656 0.09375 13.6719V12.3281C0.09375 11.5052 0.385417 10.8021 0.96875 10.2188C1.55208 9.625 2.26042 9.32812 3.09375 9.32812Z" fill="#E52628"/>
</svg>
