<svg width="35" height="32" viewBox="0 0 35 32" fill="none" xmlns="http://www.w3.org/2000/svg">
<path d="M6.80907 16.2734C6.85237 16.9568 7.4967 17.4788 8.24822 17.4395C8.99973 17.4001 9.57385 16.8142 9.53055 16.1309C9.48725 15.4475 8.84292 14.9255 8.09141 14.9648C7.33989 15.0042 6.76577 15.5901 6.80907 16.2734Z" fill="white"/>
<path d="M14.9732 15.8456C14.8718 14.2442 14.0914 12.7409 12.7961 11.652C12.5303 11.4288 12.1779 11.3109 11.8165 11.324C11.455 11.3371 11.1141 11.4802 10.8687 11.7219C10.6233 11.9636 10.4936 12.284 10.508 12.6127C10.5224 12.9413 10.6798 13.2513 10.9456 13.4745C11.6978 14.1401 12.1484 15.0377 12.2088 15.9904C12.2692 16.9432 11.9349 17.8819 11.2718 18.6217C11.0359 18.8711 10.9187 19.1954 10.9459 19.5235C10.9731 19.8515 11.1425 20.1562 11.4168 20.3707C11.691 20.5851 12.0478 20.6917 12.4085 20.667C12.7692 20.6423 13.1044 20.4883 13.3402 20.2388C14.4894 19.0218 15.0747 17.447 14.9732 15.8456ZM21.7769 15.4891C21.6811 13.9948 21.2556 12.5333 20.5255 11.1916C19.7955 9.84997 18.7759 8.65567 17.5276 7.67985C17.3891 7.5738 17.229 7.4936 17.0564 7.44382C16.8838 7.39403 16.7022 7.37565 16.5218 7.38971C16.3414 7.40378 16.1658 7.45001 16.005 7.52577C15.8443 7.60154 15.7015 7.70535 15.5849 7.83128C15.3493 8.08562 15.2346 8.41461 15.2658 8.74589C15.2813 8.90993 15.3321 9.06959 15.4154 9.21575C15.4988 9.36192 15.6129 9.49173 15.7514 9.59777C16.7245 10.3574 17.5191 11.2876 18.0879 12.3329C18.6566 13.3781 18.9878 14.5168 19.0615 15.6811C19.1353 16.8453 18.9502 18.0111 18.5173 19.1088C18.0843 20.2065 17.4124 21.2135 16.5417 22.0698C16.4204 22.1911 16.3268 22.3331 16.2663 22.4876C16.2058 22.6421 16.1796 22.8059 16.1892 22.9696C16.2055 23.2114 16.2994 23.4435 16.4592 23.6372C16.619 23.831 16.8378 23.9779 17.0884 24.0599C17.3391 24.1419 17.6106 24.1552 17.8695 24.0984C18.1285 24.0415 18.3634 23.9169 18.5453 23.74C19.6683 22.6342 20.5336 21.3331 21.089 19.9151C21.6444 18.4971 21.8784 16.9915 21.7769 15.4891Z" fill="white"/>
<path d="M23.9955 27.4398C27.2164 24.0315 28.8575 19.6198 28.5732 15.1334C28.2889 10.6471 26.1015 6.43599 22.4713 3.38663C22.2027 3.1912 21.8628 3.09533 21.5197 3.11827C21.1767 3.14121 20.8558 3.28125 20.6216 3.5103C20.3873 3.73935 20.257 4.04047 20.2567 4.35326C20.2564 4.66604 20.3862 4.96736 20.62 5.19677C23.7386 7.81116 25.6182 11.4249 25.8622 15.2755C26.1062 19.126 24.6955 22.9122 21.9278 25.835C21.6992 26.0771 21.5821 26.39 21.6009 26.7087C21.6122 26.8753 21.6603 27.0381 21.7425 27.1874C21.8247 27.3367 21.9392 27.4694 22.0792 27.5774C22.3538 27.7894 22.7095 27.8939 23.0686 27.8681C23.4276 27.8423 23.7609 27.6883 23.9955 27.4398Z" fill="white"/>
</svg>
