<svg width="10" height="7" viewBox="0 0 10 7" fill="none" xmlns="http://www.w3.org/2000/svg">
<path d="M4.06667 6.62575C3.97894 6.62625 3.89196 6.60944 3.81074 6.57626C3.72951 6.54308 3.65563 6.4942 3.59334 6.43241L0.533341 3.34575C0.407806 3.22021 0.33728 3.04995 0.33728 2.87241C0.33728 2.69488 0.407806 2.52461 0.533341 2.39908C0.658877 2.27354 0.82914 2.20302 1.00667 2.20302C1.18421 2.20302 1.35447 2.27354 1.48001 2.39908L4.06667 4.99241L8.51334 0.539079C8.63888 0.413543 8.80914 0.343018 8.98667 0.343018C9.16421 0.343018 9.33447 0.413543 9.46001 0.539079C9.58554 0.664615 9.65607 0.834878 9.65607 1.01241C9.65607 1.18995 9.58554 1.36021 9.46001 1.48575L4.54001 6.40575C4.41649 6.53736 4.24692 6.61618 4.06667 6.62575V6.62575Z" fill="#A1A5B7"/>
</svg>
