<svg width="20" height="21" viewBox="0 0 20 21" fill="none" xmlns="http://www.w3.org/2000/svg">
<rect x="0.5" y="0.79248" width="19" height="19" rx="3.5" fill="white"/>
<path d="M9.06667 13.6257C8.97894 13.6263 8.89196 13.6094 8.81074 13.5763C8.72951 13.5431 8.65563 13.4942 8.59334 13.4324L5.53334 10.3457C5.40781 10.2202 5.33728 10.0499 5.33728 9.87241C5.33728 9.69488 5.40781 9.52461 5.53334 9.39908C5.65888 9.27354 5.82914 9.20302 6.00667 9.20302C6.18421 9.20302 6.35447 9.27354 6.48001 9.39908L9.06667 11.9924L13.5133 7.53908C13.6389 7.41354 13.8091 7.34302 13.9867 7.34302C14.1642 7.34302 14.3345 7.41354 14.46 7.53908C14.5855 7.66461 14.6561 7.83488 14.6561 8.01241C14.6561 8.18995 14.5855 8.36021 14.46 8.48575L9.54001 13.4057C9.41649 13.5374 9.24692 13.6162 9.06667 13.6257V13.6257Z" fill="#A1A5B7"/>
<rect x="0.5" y="0.79248" width="19" height="19" rx="3.5" stroke="#E1E3EA"/>
</svg>
