<svg width="20" height="22" viewBox="0 0 20 22" fill="none" xmlns="http://www.w3.org/2000/svg">
<path fill-rule="evenodd" clip-rule="evenodd" d="M14 0.25C14.4142 0.25 14.75 0.585786 14.75 1V4C14.75 4.41421 14.4142 4.75 14 4.75C13.5858 4.75 13.25 4.41421 13.25 4V1C13.25 0.585786 13.5858 0.25 14 0.25Z" fill="#ADB5BD"/>
<path fill-rule="evenodd" clip-rule="evenodd" d="M6 0.25C6.41421 0.25 6.75 0.585786 6.75 1V4C6.75 4.41421 6.41421 4.75 6 4.75C5.58579 4.75 5.25 4.41421 5.25 4V1C5.25 0.585786 5.58579 0.25 6 0.25Z" fill="#ADB5BD"/>
<path fill-rule="evenodd" clip-rule="evenodd" d="M0.25 6.5C0.25 3.87665 2.37665 1.75 5 1.75H15C17.6234 1.75 19.75 3.87665 19.75 6.5V17C19.75 19.6234 17.6234 21.75 15 21.75H5C2.37665 21.75 0.25 19.6234 0.25 17V6.5ZM5 3.25C3.20507 3.25 1.75 4.70507 1.75 6.5V17C1.75 18.7949 3.20507 20.25 5 20.25H15C16.7949 20.25 18.25 18.7949 18.25 17V6.5C18.25 4.70507 16.7949 3.25 15 3.25H5Z" fill="#ADB5BD"/>
<path fill-rule="evenodd" clip-rule="evenodd" d="M0.25 8C0.25 7.58579 0.585786 7.25 1 7.25H19C19.4142 7.25 19.75 7.58579 19.75 8C19.75 8.41421 19.4142 8.75 19 8.75H1C0.585786 8.75 0.25 8.41421 0.25 8Z" fill="#ADB5BD"/>
</svg>
