<svg width="40" height="40" viewBox="0 0 40 40" fill="none" xmlns="http://www.w3.org/2000/svg">
<path opacity="0.3" d="M19.9999 36.6668C29.2047 36.6668 36.6666 29.2049 36.6666 20.0002C36.6666 10.7954 29.2047 3.3335 19.9999 3.3335C10.7952 3.3335 3.33325 10.7954 3.33325 20.0002C3.33325 29.2049 10.7952 36.6668 19.9999 36.6668Z" fill="white"/>
<path d="M22.3498 20.0003L27.0665 15.2836C27.2409 15.1342 27.3826 14.9504 27.4827 14.7436C27.5827 14.5368 27.6389 14.3116 27.6478 14.0821C27.6567 13.8525 27.618 13.6237 27.5342 13.4098C27.4504 13.1959 27.3233 13.0017 27.1609 12.8392C26.9985 12.6768 26.8042 12.5497 26.5903 12.4659C26.3765 12.3821 26.1476 12.3435 25.9181 12.3523C25.6885 12.3612 25.4633 12.4174 25.2565 12.5174C25.0498 12.6175 24.8659 12.7592 24.7165 12.9336L19.9998 17.6503L15.2831 12.9336C14.9643 12.6606 14.5542 12.5179 14.1347 12.5341C13.7153 12.5503 13.3174 12.7242 13.0205 13.021C12.7237 13.3179 12.5498 13.7158 12.5336 14.1352C12.5174 14.5547 12.6601 14.9648 12.9331 15.2836L17.6498 20.0003L12.9331 24.717C12.6227 25.0293 12.4485 25.4517 12.4485 25.892C12.4485 26.3323 12.6227 26.7547 12.9331 27.067C13.2454 27.3774 13.6678 27.5516 14.1081 27.5516C14.5485 27.5516 14.9709 27.3774 15.2831 27.067L19.9998 22.3503L24.7165 27.067C25.0287 27.3774 25.4512 27.5516 25.8915 27.5516C26.3318 27.5516 26.7542 27.3774 27.0665 27.067C27.3769 26.7547 27.5511 26.3323 27.5511 25.892C27.5511 25.4517 27.3769 25.0293 27.0665 24.717L22.3498 20.0003Z" fill="white"/>
</svg>
