<svg width="175" height="175" viewBox="0 0 175 175" fill="none" xmlns="http://www.w3.org/2000/svg">
<path d="M87.5 175C135.825 175 175 135.825 175 87.5C175 39.1751 135.825 0 87.5 0C39.1751 0 0 39.1751 0 87.5C0 135.825 39.1751 175 87.5 175Z" fill="white"/>
<path d="M127.536 78.8441C128.004 80.536 128.379 82.2695 128.634 84.0395L159 85.164V76.3713L127.536 78.8441Z" fill="#E1081E"/>
<path d="M152.165 68.4275C143.445 70.4005 134.725 72.3683 126 74.3413C126.261 74.9764 126.5 75.6219 126.729 76.2727C135.777 75.1846 151.259 73.321 153.003 73.1075C152.722 71.551 152.441 69.9892 152.165 68.4327" fill="#E1081E"/>
<path d="M120.628 64.8613C120.982 65.335 121.325 65.8139 121.664 66.2981C130.425 62.1074 139.187 57.9219 147.948 53.7312C147.204 52.3361 146.454 50.9357 145.709 49.5405C144.033 50.5661 127.593 60.6081 120.633 64.8613" fill="#E1081E"/>
<path d="M119.045 62.8989L147.818 43.3875L142.326 36.521L115.74 59.4422C116.906 60.5302 118.009 61.6859 119.05 62.9041" fill="#E1081E"/>
<path d="M113.839 57.7607C121.581 50.712 129.322 43.6686 137.063 36.6199C135.943 35.4954 134.829 34.3762 133.71 33.2517C132.258 34.8759 116.635 52.331 112.632 56.808C113.038 57.1204 113.444 57.4327 113.839 57.7607Z" fill="#E1081E"/>
<path d="M110.341 55.1628L133.377 26.3903L126.099 21.45L106.426 52.8619C107.775 53.5647 109.081 54.3299 110.341 55.168" fill="#E1081E"/>
<path d="M103.516 51.4719C109.3 42.4502 115.084 33.4233 120.867 24.4016C119.498 23.6051 118.129 22.8138 116.755 22.0173C115.724 24.0632 104.099 47.0834 102.152 50.9305C102.61 51.1075 103.063 51.2792 103.511 51.4719" fill="#E1081E"/>
<path d="M99.5286 50.0144L114.651 15.479L106.343 12.595L95.213 48.9316C96.681 49.2179 98.123 49.5771 99.5286 50.0144Z" fill="#E1081E"/>
<path d="M78.9969 48.9316L67.8668 12.595L59.5583 15.479L74.6813 50.0144C76.0868 49.5771 77.5288 49.2231 78.9969 48.9316Z" fill="#E1081E"/>
<path d="M72.0523 50.9305C70.1106 47.0834 58.4808 24.0632 57.45 22.0173C56.0809 22.8138 54.7065 23.6051 53.3374 24.4016C59.1211 33.4233 64.9047 42.4502 70.6884 51.4719C71.1361 51.2792 71.5942 51.1075 72.0471 50.9305" fill="#E1081E"/>
<path d="M67.7783 52.8567L48.1107 21.4448L40.833 26.3851L63.8688 55.1577C65.1286 54.3196 66.4352 53.5543 67.7835 52.8515" fill="#E1081E"/>
<path d="M61.573 56.808C57.5645 52.331 41.9471 34.8759 40.4946 33.2517C39.3754 34.3762 38.2613 35.4954 37.1421 36.6199C44.8831 43.6686 52.6242 50.712 60.3653 57.7607C60.7609 57.4327 61.167 57.1204 61.573 56.808Z" fill="#E1081E"/>
<path d="M58.4755 59.4369L31.8894 36.5156L26.3972 43.3873L55.1698 62.8987C56.2057 61.6858 57.3094 60.5301 58.4807 59.4369" fill="#E1081E"/>
<path d="M53.5821 64.8613C46.6167 60.6081 30.1819 50.5661 28.5005 49.5405C27.756 50.9357 27.0064 52.3361 26.262 53.7312C35.0234 57.9219 43.7848 62.1074 52.5462 66.2981C52.8845 65.8139 53.2229 65.3298 53.5821 64.8613Z" fill="#E1081E"/>
<path d="M21.207 73.1023C22.951 73.3106 38.4331 75.1794 47.4808 76.2675C47.7099 75.6167 47.9493 74.9764 48.2096 74.3361C39.4899 72.3683 30.7701 70.3953 22.0452 68.4275C21.7641 69.984 21.4881 71.5458 21.207 73.1023Z" fill="#E1081E"/>
<path d="M15.21 85.164L45.5755 84.0396C45.8306 82.2696 46.2054 80.5361 46.6739 78.8442L15.21 76.3662V85.1588V85.164Z" fill="#E1081E"/>
<path d="M97.3995 64.5906C97.3995 67.8807 100.065 70.5409 103.35 70.5409C106.635 70.5409 109.3 67.8755 109.3 64.5906C109.3 61.3058 106.635 58.6404 103.35 58.6404C100.065 58.6404 97.3995 61.3058 97.3995 64.5906Z" fill="#E1081E"/>
<path d="M109.862 90.2709V77.4959C125.844 73.1126 141.826 68.724 157.808 64.3407L155.283 55.9177L109.862 72.3941H98.0241V72.3785L93.823 70.9417V66.3398L87.1023 68.6408L80.3764 66.3398V70.9417L76.1753 72.3785V72.3941H64.3425L18.9269 55.9177L16.3969 64.3407C32.3787 68.724 48.3606 73.1126 64.3425 77.4959V90.2709L57.6061 100.651H62.2497L60.7869 107.913H67.2994L68.7622 100.651H71.7608L73.2236 107.913H79.7361L78.2732 100.651H82.9168L76.1805 90.2709V78.8962L87.1023 75.1584L98.0241 78.8962V90.2709L91.9854 107.919H98.4979L103.943 92.0045L109.388 107.919H115.901L109.862 90.2709Z" fill="#E1081E"/>
<path d="M64.9047 64.5906C64.9047 67.8807 67.57 70.5409 70.8549 70.5409C74.1398 70.5409 76.8052 67.8755 76.8052 64.5906C76.8052 61.3058 74.1398 58.6404 70.8549 58.6404C67.57 58.6404 64.9047 61.3058 64.9047 64.5906Z" fill="#E1081E"/>
<path d="M27.5477 94.1806L27.303 92.0358L24.7626 92.3222L25.0073 94.467C25.101 95.2791 25.684 95.732 26.4285 95.6487C27.1729 95.5654 27.6362 94.9875 27.5477 94.1806ZM21.7224 96.4087C22.4877 96.3202 22.9874 95.7007 22.8885 94.8522L22.6282 92.5668L19.9576 92.8688L20.2179 95.1541C20.3116 96.0027 20.9363 96.4972 21.7172 96.4087M24.393 97.0543C23.9609 98.1683 22.9978 98.8815 21.738 99.0221C19.8275 99.2355 18.1148 97.731 17.8805 95.6643L17.3079 90.6042L29.2084 89.2507L29.7654 94.1702C29.9997 96.2213 28.8648 97.8976 27.1104 98.0954C26.0901 98.2099 25.0749 97.8143 24.393 97.0438V97.0543Z" fill="#1C1C1C"/>
<path d="M26.2462 115.196L24.0285 116.128L20.525 107.778L20.879 107.632L31.2802 108.679L29.4582 104.337L31.6759 103.405L34.992 111.308L34.5547 111.49L24.2524 110.449L26.2462 115.196Z" fill="#1C1C1C"/>
<path d="M36.9078 133.485L41.9367 127.394L33.7531 129.934L33.3262 129.46L36.7412 121.6L30.1351 125.936L28.3755 123.974L38.5425 117.373L40.276 119.304L36.9703 126.618L44.6072 124.14L46.346 126.077L38.6674 135.452L36.9078 133.485Z" fill="#1C1C1C"/>
<path d="M52.947 141.856L51.7132 143.917L45.5443 140.231L51.6924 129.955L53.9153 131.288L49.001 139.497L52.947 141.856Z" fill="#1C1C1C"/>
<path d="M68.96 145.911L71.5525 146.218C71.4172 147.368 72.297 148.035 73.3486 148.16C74.3168 148.274 75.3268 147.879 75.4309 146.988C75.5402 146.067 74.4886 145.687 73.234 145.229C71.4953 144.573 69.3817 143.792 69.6837 141.231C69.9544 138.951 71.7868 137.868 74.421 138.18C77.154 138.508 78.5335 140.153 78.2472 142.522L75.7068 142.22C75.8265 141.194 75.0404 140.616 74.0826 140.502C73.2496 140.403 72.3647 140.653 72.2709 141.434C72.172 142.272 73.1716 142.647 74.3949 143.1C76.1545 143.776 78.3618 144.609 78.0442 147.275C77.7371 149.841 75.5454 150.846 73.0831 150.549C70.3552 150.221 68.6581 148.467 68.96 145.911Z" fill="#1C1C1C"/>
<path d="M88.2372 148.004L88.3778 150.409L81.0168 150.846L80.314 138.893L87.4876 138.467L87.6281 140.856L83.0418 141.127L83.1772 143.49L87.3262 143.245L87.4616 145.588L83.3177 145.833L83.4583 148.285L88.2372 148.004Z" fill="#1C1C1C"/>
<path d="M103.86 146.577L100.46 139.44L99.3048 147.936L98.6957 148.118L93.0162 141.699L94.151 149.518L91.6262 150.284L89.95 138.279L92.4331 137.524L97.6598 143.615L98.6489 135.645L101.137 134.89L106.385 145.812L103.86 146.577Z" fill="#1C1C1C"/>
<path d="M119.285 134.687L120.68 136.644L114.829 140.814L107.879 131.069L109.987 129.564L115.542 137.358L119.285 134.687Z" fill="#1C1C1C"/>
<path d="M64.1186 157.978C64.7225 155.89 63.6345 153.881 61.5834 153.287C59.5323 152.694 57.5125 153.829 56.9138 155.895C56.3151 157.967 57.424 160.003 59.4751 160.591C61.5262 161.185 63.5148 160.06 64.1186 157.973M54.3942 155.161C55.3781 151.746 58.7567 149.919 62.2654 150.934C65.7637 151.944 67.6326 155.271 66.6435 158.701C65.6544 162.132 62.2966 163.949 58.7983 162.939C55.2896 161.924 53.4051 158.582 54.3942 155.167" fill="#1C1C1C"/>
<path d="M73.8483 165.729C70.3448 165.417 67.9293 162.496 68.2469 158.972C68.5644 155.422 71.4589 152.98 74.9624 153.293C77.8672 153.553 80.0068 155.677 80.3088 158.556L77.7215 158.327C77.3571 156.874 76.243 155.89 74.7437 155.755C72.7239 155.573 71.058 157.062 70.8654 159.212C70.6728 161.356 72.0575 163.09 74.0722 163.272C75.6391 163.413 76.9354 162.574 77.4976 161.101L80.0953 161.336C79.2936 164.235 76.8 166 73.8483 165.734V165.729Z" fill="#1C1C1C"/>
<path d="M82.3703 161.398L81.6987 153.959L84.2808 153.725L84.942 161.044C85.0773 162.533 86.1341 163.392 87.5084 163.267C88.8776 163.142 89.7625 162.111 89.6324 160.622L88.9713 153.303L91.5533 153.069L92.2249 160.508C92.4748 163.303 90.5434 165.448 87.7271 165.703C84.9055 165.958 82.6202 164.194 82.3703 161.398Z" fill="#1C1C1C"/>
<path d="M102.975 162.559L97.4098 157.973L98.8831 163.626L96.3791 164.282L93.3493 152.699L95.8585 152.043L97.2537 157.395L99.6536 151.049L102.574 150.289L100.086 156.869L106.036 161.757L102.975 162.559Z" fill="#1C1C1C"/>
<path d="M113.839 155.849L114.771 158.066L108.144 160.846L103.506 149.81L105.895 148.805L109.602 157.629L113.839 155.849Z" fill="#1C1C1C"/>
<path d="M117.676 151.304L120.357 149.67L116.781 146.838L117.676 151.304ZM122.231 151.169L118.165 153.652L118.644 156.015L116.297 157.447L114.063 144.781L116.151 143.506L126.521 151.2L124.121 152.663L122.226 151.158L122.231 151.169Z" fill="#1C1C1C"/>
<path d="M126.38 142.865L127.947 141.507C128.765 140.799 128.827 139.882 128.239 139.201C127.65 138.524 126.734 138.456 125.917 139.164L124.35 140.523L126.38 142.86V142.865ZM129.202 143.584L127.947 144.672L130.628 147.759L128.671 149.456L120.82 140.419L124.47 137.248C126.281 135.676 128.712 135.749 130.227 137.493C131.253 138.675 131.446 140.205 130.868 141.554L135.834 143.235L133.648 145.13L129.202 143.579V143.584Z" fill="#1C1C1C"/>
<path d="M137.25 122.505L144.122 133.307L142.659 135.265L130.264 131.834L131.982 129.549L140.571 132.199L135.558 124.77L137.25 122.505Z" fill="#1C1C1C"/>
<path d="M145.111 123.364L146.584 120.59L142.06 119.981L145.111 123.364ZM148.958 120.923L146.73 125.134L148.354 126.925L147.068 129.356L138.682 119.606L139.827 117.445L152.675 118.768L151.358 121.251L148.958 120.928V120.923Z" fill="#1C1C1C"/>
<path d="M155.767 109.689L148.89 111.865L154.44 113.702L153.622 116.165L142.258 112.396L143.075 109.938L148.323 111.677L144.309 106.211L145.257 103.348L149.421 109.017L156.761 106.69L155.767 109.689Z" fill="#1C1C1C"/>
<path d="M148.187 100.188L150.78 100.651L151.504 96.596L153.81 97.0072L153.091 101.063L157.605 101.864L157.152 104.415L145.361 102.317L146.615 95.2737L148.984 95.6954L148.187 100.188Z" fill="#1C1C1C"/>
<path d="M146.855 91.139L146.662 93.7244L158.603 94.6138L158.795 92.0285L146.855 91.139Z" fill="#1C1C1C"/>
<path d="M75.5455 118.747L75.5559 123.312H74.9936L74.9884 119.273H74.1086V118.752L75.5455 118.747Z" fill="#1C1C1C"/>
<path d="M82.5316 120.204C82.5316 119.621 82.0891 119.189 81.48 119.194C80.8709 119.194 80.4232 119.621 80.4232 120.21C80.4232 120.798 80.8709 121.214 81.4852 121.214C82.0943 121.214 82.5368 120.787 82.5368 120.204M83.1094 120.204C83.1094 120.642 82.948 121.157 82.6253 121.725L81.7142 123.307H81.0947C81.7142 122.224 81.9173 121.865 82.0734 121.558C81.8704 121.652 81.6466 121.704 81.4123 121.704C80.5429 121.704 79.8662 121.053 79.861 120.21C79.861 119.304 80.5377 118.653 81.48 118.653C82.4326 118.653 83.1094 119.299 83.1146 120.204" fill="#1C1C1C"/>
<path d="M87.9353 119.861C87.9353 120.309 88.2997 120.61 88.8307 120.61C89.3513 120.61 89.7157 120.303 89.7157 119.861C89.7157 119.429 89.3513 119.122 88.8255 119.122C88.2945 119.122 87.9301 119.429 87.9353 119.861ZM89.8875 121.98C89.8875 121.449 89.4554 121.089 88.8359 121.089C88.2216 121.089 87.7895 121.449 87.7947 121.98C87.7947 122.5 88.2216 122.859 88.8411 122.859C89.4658 122.859 89.8927 122.495 89.8927 121.974M90.4653 121.954C90.4653 122.771 89.799 123.359 88.8463 123.359C87.878 123.359 87.2273 122.797 87.2273 121.964C87.2273 121.49 87.4772 121.063 87.8728 120.84C87.5761 120.631 87.3887 120.262 87.3887 119.861C87.3887 119.142 87.9769 118.637 88.8359 118.637C89.7001 118.637 90.2831 119.127 90.2831 119.856C90.2831 120.262 90.0957 120.642 89.8198 120.834C90.2102 121.043 90.4601 121.475 90.4653 121.959" fill="#1C1C1C"/>
<path d="M97.5712 121.855C97.5712 122.724 96.9101 123.349 96.0407 123.349C95.1974 123.349 94.5831 122.766 94.5363 121.938H95.0933C95.1297 122.464 95.5097 122.813 96.0407 122.813C96.5978 122.813 97.0038 122.401 96.9986 121.839C96.9986 121.282 96.5613 120.876 95.9679 120.881H95.4577V120.772L96.5093 119.226H94.682V118.71H97.389V118.835L96.3062 120.434C97.0611 120.532 97.5712 121.11 97.5712 121.86" fill="#1C1C1C"/>
<path d="M29.0679 102.567L31.3897 101.953L30.7285 99.4487L28.4067 100.063C28.6254 100.896 28.8492 101.734 29.0679 102.567Z" fill="#1C1C1C"/>
<path d="M26.6055 100.537L19.156 102.51L19.8171 105.014L28.8857 102.614C28.1256 101.922 27.3656 101.229 26.6055 100.537Z" fill="#1C1C1C"/>
<path d="M35.0597 115.931L37.1317 114.707L35.8146 112.474L33.7427 113.697C34.18 114.442 34.6225 115.186 35.0597 115.925" fill="#1C1C1C"/>
<path d="M32.1445 114.645L25.5071 118.565L26.8242 120.798L34.9036 116.029C33.9822 115.571 33.0659 115.108 32.1445 114.65" fill="#1C1C1C"/>
<path d="M64.9827 142.886C65.7948 140.871 64.9151 138.758 62.9316 137.967C60.9534 137.17 58.8242 138.092 58.0225 140.091C57.2209 142.09 58.1163 144.229 60.0997 145.02C62.0779 145.817 64.1758 144.901 64.9827 142.886ZM55.5862 139.112C56.9085 135.811 60.4537 134.333 63.8427 135.697C67.2212 137.056 68.7465 140.554 67.4191 143.865C66.0916 147.176 62.5672 148.649 59.1887 147.29C55.7997 145.932 54.2639 142.412 55.5862 139.112Z" fill="#1C1C1C"/>
<path d="M61.8958 132.006L64.3008 132.969L63.546 134.854L61.8229 132.194L61.901 132.006H61.8958Z" fill="#1C1C1C"/>
<path d="M65.3732 133.406L67.7783 134.369L67.0234 136.254L65.3003 133.594L65.3784 133.406H65.3732Z" fill="#1C1C1C"/>
<path d="M105.963 132.136L103.679 133.362L104.816 135.481L107.101 134.255L105.963 132.136Z" fill="#1C1C1C"/>
<path d="M105.703 137.103L109.347 143.896L111.627 142.673L107.192 134.406C106.697 135.307 106.197 136.207 105.703 137.103Z" fill="#1C1C1C"/>
<path d="M118.046 126.024L116.406 124.265L114.511 126.03L116.151 127.789C116.781 127.201 117.416 126.613 118.046 126.024Z" fill="#1C1C1C"/>
<path d="M117.416 129.153L122.669 134.796L124.563 133.032L118.171 126.165C117.921 127.165 117.666 128.159 117.416 129.153Z" fill="#1C1C1C"/>
<path d="M45.0081 157.509C41.8742 155.911 40.7289 152.298 42.3323 149.149C43.9513 145.973 47.5537 144.786 50.6824 146.385C53.2801 147.707 54.4723 150.482 53.6758 153.267L51.3644 152.085C51.5726 150.601 50.9063 149.274 49.5632 148.587C47.7568 147.665 45.6536 148.425 44.6749 150.341C43.6962 152.262 44.3313 154.386 46.1378 155.307C47.5381 156.026 49.053 155.729 50.1254 154.573L52.4524 155.76C50.6252 158.15 47.6527 158.858 45.0133 157.509H45.0081Z" fill="#1C1C1C"/>
<path d="M43.2589 157.702L45.565 158.878L44.6436 160.685C44.1491 159.753 43.6597 158.816 43.1652 157.884L43.2589 157.702Z" fill="#1C1C1C"/>
<path d="M72.0523 50.9305C70.1106 47.0834 58.4808 24.0632 57.45 22.0173C56.0809 22.8138 54.7065 23.6051 53.3374 24.4016C59.1211 33.4233 64.9047 42.4502 70.6884 51.4719C71.1361 51.2792 71.5942 51.1075 72.0471 50.9305" fill="#E1081E"/>
<path d="M93.5628 48.6714C96.0199 37.7913 98.4719 26.9111 100.929 16.0361C99.3725 15.755 97.8107 15.4739 96.2542 15.198C95.9366 17.8426 94.6092 28.8477 94.2916 31.487C93.948 34.3502 92.6361 45.2876 92.2509 48.4944C92.6882 48.5465 93.1255 48.609 93.5628 48.6714Z" fill="#E1081E"/>
<path d="M87.1024 48.1767C87.9457 48.1767 88.7786 48.2027 89.6064 48.2548C90.4393 35.4381 91.2722 22.6265 92.0999 9.80981L87.0972 9.87749L82.0944 9.80981C82.9273 22.6265 83.7602 35.4381 84.588 48.2548C85.4157 48.2079 86.2538 48.1767 87.0972 48.1767" fill="#E1081E"/>
<path d="M81.8913 48.4995C81.5008 45.2406 80.1994 34.3813 79.8558 31.5337C79.5382 28.8892 78.216 17.8841 77.8932 15.2395C76.3367 15.5206 74.7749 15.7965 73.2184 16.0776C75.6703 26.9474 78.1223 37.8119 80.5794 48.6817C81.0167 48.614 81.454 48.5515 81.8965 48.4995" fill="#E1081E"/>
</svg>
