<svg width="299" height="98" viewBox="0 0 299 98" fill="none" xmlns="http://www.w3.org/2000/svg">
<path d="M279.279 64.3822L277.974 64.8172L277.684 63.3671L279.714 62.7871H280.874V70.7624H279.279V64.3822Z" fill="white" fill-opacity="0.42"/>
<path d="M285.66 67.5723C285.224 67.8623 284.789 68.0073 284.209 68.0073C282.759 68.0073 281.744 67.1372 281.744 65.3972C281.744 63.8021 282.904 62.6421 284.499 62.6421C285.369 62.6421 285.95 62.9321 286.53 63.3671C287.11 63.9471 287.4 64.8172 287.4 66.4122C287.4 69.1673 286.24 70.7624 284.209 70.7624C283.339 70.7624 282.614 70.4724 281.889 69.8923L282.759 68.5873C283.194 69.0223 283.629 69.1673 284.209 69.1673C285.224 69.3123 285.515 68.4423 285.66 67.5723ZM285.66 65.3972C285.66 64.6722 285.224 64.0921 284.499 64.0921C283.774 64.0921 283.339 64.5271 283.339 65.3972C283.339 66.1222 283.774 66.7022 284.499 66.7022C285.224 66.7022 285.66 66.1222 285.66 65.3972Z" fill="white" fill-opacity="0.42"/>
<path d="M287.545 69.8924L288.415 68.7323C288.995 69.1673 289.43 69.4573 290.01 69.4573C290.735 69.4573 291.17 69.0223 291.17 68.2973C291.17 67.5723 290.59 67.1373 289.865 67.1373C289.43 67.1373 289.14 67.2823 288.705 67.4273L287.835 66.8473L288.125 62.9321H292.475V64.3822H289.43L289.285 65.8322C289.575 65.8322 289.865 65.6872 290.155 65.6872C291.46 65.6872 292.765 66.4122 292.765 68.1523C292.765 69.8924 291.605 70.9074 290.01 70.9074C289.14 70.9074 288.27 70.4724 287.545 69.8924Z" fill="white" fill-opacity="0.42"/>
<path d="M293.345 68.5873C293.345 67.5723 293.78 66.9923 294.505 66.7022C293.925 66.4122 293.49 65.8322 293.49 64.9622C293.49 63.8021 294.505 62.7871 296.1 62.7871C297.55 62.7871 298.71 63.6571 298.71 64.9622C298.71 65.8322 298.275 66.2672 297.695 66.7022C298.42 67.1373 298.855 67.5723 298.855 68.5873C298.855 70.0374 297.695 70.9074 296.1 70.9074C294.505 70.7624 293.345 69.8923 293.345 68.5873ZM297.405 68.4423C297.405 67.7173 296.825 67.4273 296.245 67.4273C295.52 67.4273 295.085 67.8623 295.085 68.4423C295.085 69.0223 295.52 69.4573 296.245 69.4573C296.825 69.4573 297.405 69.0223 297.405 68.4423ZM297.115 64.9622C297.115 64.3822 296.68 63.9471 296.1 63.9471C295.52 63.9471 295.085 64.3822 295.085 64.9622C295.085 65.5422 295.52 65.9772 296.1 65.9772C296.68 65.9772 297.115 65.6872 297.115 64.9622Z" fill="white" fill-opacity="0.42"/>
<path d="M9.57029 85.553C9.57029 85.843 9.42529 85.988 9.28028 85.988H7.97524C7.68523 85.988 7.54022 85.843 7.54022 85.553V83.8129C7.54022 83.5229 7.68523 83.3779 7.97524 83.3779H9.13528C9.42529 83.3779 9.42529 83.5229 9.42529 83.8129V85.553H9.57029ZM9.57029 96.5734C9.57029 96.8634 9.42529 97.0084 9.28028 97.0084H7.97524C7.68523 97.0084 7.54022 96.8634 7.54022 96.5734V87.7281C7.54022 87.4381 7.68523 87.2931 7.97524 87.2931H9.13528C9.42529 87.2931 9.42529 87.4381 9.42529 87.7281V96.5734H9.57029Z" fill="white" fill-opacity="0.42"/>
<path d="M25.9559 96.5734C25.9559 96.8634 25.8109 97.0084 25.6659 97.0084H24.5059C24.2159 97.0084 24.2159 96.8634 24.2159 96.5734V87.5831C24.2159 87.7281 23.9258 88.5981 23.7808 89.0331L21.4608 94.5433C21.3158 94.8333 21.1708 94.9783 21.0258 94.9783H20.0107C19.7207 94.9783 19.5757 94.8333 19.5757 94.5433L17.1106 88.8881C16.9656 88.4531 16.8206 87.7281 16.6756 87.7281V96.7184C16.6756 97.0084 16.5306 97.1534 16.3856 97.1534H15.2256C14.9355 97.1534 14.9355 97.0084 14.9355 96.7184V84.103C14.9355 83.813 15.0806 83.668 15.2256 83.668H16.3856C16.5306 83.668 16.6756 83.813 16.6756 83.813L20.1557 91.6432C20.3007 91.9332 20.5907 92.8033 20.5907 92.8033C20.5907 92.6583 20.8807 91.9332 21.0258 91.6432L24.3609 83.668C24.3609 83.523 24.5059 83.5229 24.6509 83.5229H25.8109C26.1009 83.5229 26.1009 83.668 26.1009 83.958V96.5734H25.9559Z" fill="white" fill-opacity="0.42"/>
<path d="M34.9462 83.668C35.2362 83.668 35.3812 83.813 35.3812 84.103L39.1513 96.5734C39.2963 96.8634 39.1513 97.0084 38.8613 97.0084H37.7013C37.4113 97.0084 37.2663 96.8634 37.2663 96.5734L36.3962 93.5283H32.1911L31.3211 96.5734C31.3211 96.8634 31.1761 97.0084 30.8861 97.0084H29.726C29.436 97.0084 29.436 96.8634 29.436 96.5734L33.2061 84.103C33.3511 83.813 33.3511 83.668 33.6411 83.668H34.9462ZM34.8012 88.4531C34.5112 87.7281 34.2212 85.843 34.2212 85.553C34.2212 85.698 33.9312 87.5831 33.6411 88.3081L32.4811 91.9332H35.8162L34.8012 88.4531Z" fill="white" fill-opacity="0.42"/>
<path d="M54.3768 96.5734C54.3768 96.8634 54.2318 97.0084 54.0868 97.0084H52.9268C52.6368 97.0084 52.6368 96.8634 52.6368 96.5734V87.5831C52.6368 87.7281 52.3467 88.5981 52.2017 89.0331L49.8817 94.5433C49.7367 94.8333 49.5917 94.9783 49.4466 94.9783H48.4316C48.1416 94.9783 47.9966 94.8333 47.9966 94.5433L45.5315 88.8881C45.3865 88.4531 45.2415 87.7281 45.0965 87.7281V96.7184C45.0965 97.0084 44.9515 97.1534 44.8065 97.1534H43.6465C43.3564 97.1534 43.3564 97.0084 43.3564 96.7184V84.103C43.3564 83.813 43.5015 83.668 43.6465 83.668H44.8065C44.9515 83.668 45.0965 83.813 45.0965 83.813L48.5766 91.6432C48.7216 91.9332 49.0116 92.8033 49.0116 92.8033C49.0116 92.6583 49.3016 91.9332 49.4466 91.6432L52.7818 83.668C52.7818 83.523 52.9268 83.5229 53.0718 83.5229H54.2318C54.5218 83.5229 54.5218 83.668 54.5218 83.958V96.5734H54.3768Z" fill="white" fill-opacity="0.42"/>
<path d="M69.8924 89.1782H74.9675V84.103C74.9675 83.813 75.1125 83.668 75.2575 83.668H76.4176C76.7076 83.668 76.7076 83.813 76.7076 84.103V96.5734C76.7076 96.8634 76.5626 97.0084 76.4176 97.0084H75.4025C75.1125 97.0084 75.1125 96.8634 75.1125 96.5734V90.7732H70.0374V96.5734C70.0374 96.8634 69.8924 97.0084 69.7474 97.0084H68.5873C68.2973 97.0084 68.2973 96.8634 68.2973 96.5734V84.103C68.2973 83.813 68.4423 83.668 68.5873 83.668H69.6023C69.8924 83.668 69.8924 83.813 69.8924 84.103V89.1782Z" fill="white" fill-opacity="0.42"/>
<path d="M85.5528 83.668C85.8429 83.668 85.9879 83.813 85.9879 84.103L89.758 96.5734C89.903 96.8634 89.758 97.0084 89.468 97.0084H88.1629C87.8729 97.0084 87.7279 96.8634 87.7279 96.5734L87.0029 93.6733H82.7978L81.9277 96.7184C81.9277 97.0084 81.7827 97.1534 81.4927 97.1534H80.3327C80.0427 97.1534 80.0427 97.0084 80.0427 96.7184L83.8128 84.248C83.9578 83.958 83.9578 83.813 84.2478 83.813H85.5528V83.668ZM85.4078 88.4531C85.1178 87.7281 84.8278 85.843 84.8278 85.553C84.8278 85.698 84.5378 87.5831 84.2478 88.3081L83.0878 91.9332H86.4229L85.4078 88.4531Z" fill="white" fill-opacity="0.42"/>
<path d="M100.198 83.668C100.488 83.668 100.633 83.813 100.633 84.103V84.973C100.633 85.263 100.488 85.408 100.198 85.408H97.0082V96.7184C97.0082 97.0084 96.8632 97.1534 96.7182 97.1534H95.5582C95.2682 97.1534 95.2682 97.0084 95.2682 96.7184V85.408H92.0781C91.7881 85.408 91.6431 85.263 91.6431 84.973V84.103C91.6431 83.813 91.7881 83.668 92.0781 83.668H100.198Z" fill="white" fill-opacity="0.42"/>
<path d="M106.434 85.553C106.434 85.843 106.289 85.988 106.144 85.988H104.984C104.694 85.988 104.549 85.843 104.549 85.553V83.8129C104.549 83.5229 104.694 83.3779 104.984 83.3779H106.144C106.434 83.3779 106.434 83.5229 106.434 83.8129V85.553ZM106.434 96.5734C106.434 96.8634 106.289 97.0084 106.144 97.0084H104.984C104.694 97.0084 104.549 96.8634 104.549 96.5734V87.7281C104.549 87.4381 104.694 87.2931 104.984 87.2931H106.144C106.434 87.2931 106.434 87.4381 106.434 87.7281V96.5734Z" fill="white" fill-opacity="0.42"/>
<path d="M113.539 92.0782V96.5734C113.539 96.8634 113.394 97.0084 113.249 97.0084H112.089C111.799 97.0084 111.799 96.8634 111.799 96.5734V84.103C111.799 83.813 111.944 83.668 112.089 83.668H116.004C119.339 83.668 120.499 85.118 120.499 86.7131V89.0331C120.499 90.6282 119.339 92.0782 116.004 92.0782H113.539ZM113.539 85.408V90.4832H116.004C117.744 90.4832 118.614 89.9032 118.614 88.7431V87.0031C118.614 85.988 117.889 85.263 116.004 85.263H113.539V85.408Z" fill="white" fill-opacity="0.42"/>
<path d="M126.154 95.4134H131.229C131.519 95.4134 131.664 95.5584 131.664 95.7034V96.5734C131.664 96.8634 131.519 97.0084 131.229 97.0084H124.559C124.414 97.0084 124.269 96.8634 124.269 96.5734V84.103C124.269 83.813 124.414 83.668 124.704 83.668H125.864C126.154 83.668 126.154 83.813 126.154 84.103V95.4134Z" fill="white" fill-opacity="0.42"/>
<path d="M137.32 85.553C137.32 85.843 137.175 85.988 137.03 85.988H135.87C135.58 85.988 135.435 85.843 135.435 85.553V83.8129C135.435 83.5229 135.58 83.3779 135.87 83.3779H137.03C137.32 83.3779 137.32 83.5229 137.32 83.8129V85.553ZM137.32 96.5734C137.32 96.8634 137.175 97.0084 137.03 97.0084H135.87C135.58 97.0084 135.435 96.8634 135.435 96.5734V87.7281C135.435 87.4381 135.58 87.2931 135.87 87.2931H137.03C137.32 87.2931 137.32 87.4381 137.32 87.7281V96.5734Z" fill="white" fill-opacity="0.42"/>
<path d="M144.425 95.4134H149.5C149.79 95.4134 149.935 95.5584 149.935 95.7034V96.5734C149.935 96.8634 149.79 97.0084 149.5 97.0084H142.83C142.54 97.0084 142.54 96.8634 142.54 96.5734V84.103C142.54 83.813 142.685 83.668 142.975 83.668H144.135C144.425 83.668 144.425 83.813 144.425 84.103V95.4134Z" fill="white" fill-opacity="0.42"/>
<path d="M154.575 97.0084C154.285 97.0084 154.285 96.8634 154.285 96.5734V84.103C154.285 83.813 154.43 83.668 154.575 83.668H161.39C161.68 83.668 161.825 83.813 161.825 84.103V84.973C161.825 85.263 161.68 85.408 161.39 85.408H156.17V89.3232H160.955C161.245 89.3232 161.39 89.4682 161.39 89.7582V90.6282C161.39 90.9182 161.245 91.0632 160.955 91.0632H156.17V95.5584H161.535C161.825 95.5584 161.97 95.7034 161.97 95.8484V96.7184C161.97 97.0084 161.825 97.1534 161.535 97.1534H154.575V97.0084Z" fill="white" fill-opacity="0.42"/>
<path d="M168.641 91.7882V96.7184C168.641 97.0084 168.496 97.1534 168.351 97.1534H167.191C166.901 97.1534 166.901 97.0084 166.901 96.7184V84.103C166.901 83.813 167.046 83.668 167.191 83.668H171.251C174.586 83.668 175.746 85.118 175.746 86.7131V88.7431C175.746 89.9032 175.166 91.0632 173.426 91.4982L175.746 96.5734C175.891 96.8634 175.601 97.0084 175.456 97.0084H174.006C173.716 97.0084 173.716 96.8634 173.571 96.5734L171.396 91.6432H171.106H168.641V91.7882ZM168.641 85.408V90.1932H171.106C172.846 90.1932 173.716 89.6132 173.716 88.4531V87.0031C173.716 85.988 172.991 85.263 171.106 85.263H168.641V85.408Z" fill="white" fill-opacity="0.42"/>
<path d="M190.826 97.0084C190.536 97.0084 190.536 96.8634 190.536 96.5734V84.103C190.536 83.813 190.681 83.668 190.826 83.668H194.887C198.222 83.668 199.382 85.118 199.382 86.7131V93.9633C199.382 95.5584 198.222 97.0084 194.887 97.0084H190.826ZM192.421 85.408V95.4134H195.032C196.772 95.4134 197.642 94.8333 197.642 93.6733V87.0031C197.642 85.988 196.917 85.263 195.032 85.263H192.421V85.408Z" fill="white" fill-opacity="0.42"/>
<path d="M205.037 97.0084C204.747 97.0084 204.747 96.8634 204.747 96.5734V84.103C204.747 83.813 204.892 83.668 205.037 83.668H211.852C212.142 83.668 212.287 83.813 212.287 84.103V84.973C212.287 85.263 212.142 85.408 211.852 85.408H206.632V89.3232H211.417C211.707 89.3232 211.852 89.4682 211.852 89.7582V90.6282C211.852 90.9182 211.707 91.0632 211.417 91.0632H206.632V95.5584H211.997C212.287 95.5584 212.432 95.7034 212.432 95.8484V96.7184C212.432 97.0084 212.287 97.1534 211.997 97.1534H205.037V97.0084Z" fill="white" fill-opacity="0.42"/>
<path d="M219.392 91.7882V96.7184C219.392 97.0084 219.247 97.1534 219.102 97.1534H217.942C217.652 97.1534 217.652 97.0084 217.652 96.7184V84.103C217.652 83.813 217.797 83.668 217.942 83.668H222.002C225.338 83.668 226.498 85.118 226.498 86.7131V88.7431C226.498 89.9032 225.918 91.0632 224.178 91.4982L226.498 96.5734C226.643 96.8634 226.353 97.0084 226.208 97.0084H225.048C224.758 97.0084 224.758 96.8634 224.612 96.5734L222.437 91.6432H221.857H219.392V91.7882ZM219.392 85.408V90.1932H221.857C223.597 90.1932 224.468 89.6132 224.468 88.4531V87.0031C224.468 85.988 223.742 85.263 221.857 85.263H219.392V85.408Z" fill="white" fill-opacity="0.42"/>
<path d="M240.708 96.5734C240.708 96.8634 240.563 97.0084 240.418 97.0084H239.403C239.258 97.0084 239.113 97.0084 239.113 96.8634L234.473 88.8881C234.038 88.1631 233.748 87.5831 233.748 87.4381V96.7184C233.748 97.0084 233.603 97.1534 233.458 97.1534H232.298C232.008 97.1534 232.008 97.0084 232.008 96.7184V84.103C232.008 83.813 232.153 83.668 232.298 83.668H233.458C233.603 83.668 233.748 83.668 233.748 83.813L238.533 92.0782C238.823 92.5133 239.113 93.3833 239.113 93.3833V84.103C239.113 83.813 239.258 83.668 239.548 83.668H240.563C240.853 83.668 240.853 83.813 240.853 84.103V96.5734H240.708Z" fill="white" fill-opacity="0.42"/>
<path d="M245.783 97.0084C245.493 97.0084 245.493 96.8634 245.493 96.5734V84.103C245.493 83.813 245.638 83.668 245.783 83.668H252.598C252.888 83.668 253.033 83.813 253.033 84.103V84.973C253.033 85.263 252.888 85.408 252.598 85.408H247.378V89.3232H252.163C252.453 89.3232 252.598 89.4682 252.598 89.7582V90.6282C252.598 90.9182 252.453 91.0632 252.163 91.0632H247.378V95.5584H252.743C253.033 95.5584 253.178 95.7034 253.178 95.8484V96.7184C253.178 97.0084 253.033 97.1534 252.743 97.1534H245.783V97.0084Z" fill="white" fill-opacity="0.42"/>
<path d="M266.374 90.3383C266.664 90.3383 266.809 90.4833 266.809 90.6283V94.1084C266.809 95.7035 265.794 97.1535 262.459 97.1535C259.124 97.1535 258.109 95.7035 258.109 94.1084V86.5682C258.109 84.9731 259.124 83.5231 262.459 83.5231C265.794 83.5231 266.809 84.9731 266.809 86.5682V87.4382C266.809 87.7282 266.664 87.8732 266.519 87.8732H265.359C265.069 87.8732 264.924 87.7282 264.924 87.4382V86.8582C264.924 85.8432 264.199 85.1181 262.459 85.1181C260.719 85.1181 259.994 85.6981 259.994 86.8582V93.8184C259.994 94.8334 260.719 95.5585 262.459 95.5585C264.199 95.5585 264.924 94.9785 264.924 93.8184V91.9334H262.459C262.169 91.9334 262.024 91.7883 262.024 91.4983V90.6283C262.024 90.3383 262.169 90.3383 262.459 90.3383H266.374ZM261.154 80.478C261.154 81.058 261.299 81.638 262.314 81.638C263.184 81.638 263.474 81.203 263.474 80.478V80.188C263.474 79.898 263.619 79.8979 263.764 79.8979H264.489C264.779 79.8979 264.779 80.043 264.779 80.188V80.478C264.779 81.928 264.054 82.798 262.169 82.798C260.429 82.798 259.704 81.928 259.704 80.478V80.188C259.704 79.898 259.849 79.8979 259.994 79.8979H260.719C261.009 79.8979 261.009 80.043 261.009 80.188V80.478H261.154Z" fill="white" fill-opacity="0.42"/>
<path d="M273.769 85.553C273.769 85.843 273.624 85.988 273.479 85.988H272.319C272.029 85.988 271.884 85.843 271.884 85.553V83.8129C271.884 83.5229 272.029 83.3779 272.319 83.3779H273.479C273.769 83.3779 273.769 83.5229 273.769 83.8129V85.553ZM273.769 96.5734C273.769 96.8634 273.624 97.0084 273.479 97.0084H272.319C272.029 97.0084 271.884 96.8634 271.884 96.5734V87.7281C271.884 87.4381 272.029 87.2931 272.319 87.2931H273.479C273.769 87.2931 273.769 87.4381 273.769 87.7281V96.5734Z" fill="white" fill-opacity="0.42"/>
<path d="M44.3715 0H15.6605V7.54025H44.3715V0Z" fill="white"/>
<path d="M132.244 11.3108H161.68C190.246 11.3108 192.421 34.0766 192.421 41.0368C192.421 47.997 190.246 70.7628 161.68 70.7628C161.68 70.7628 137.9 70.7628 133.694 70.7628H132.244V11.3108ZM143.7 59.4524H161.535C174.441 59.4524 180.821 53.5072 180.821 41.1818C180.821 28.8564 174.441 22.9112 161.535 22.9112H143.7V59.4524Z" fill="white"/>
<path d="M227.368 11.3108C209.387 11.3108 197.352 23.2012 197.352 41.0368C197.352 59.1624 209.097 70.7628 227.368 70.7628C240.708 70.7628 251.148 64.2376 255.354 53.3622L256.079 51.4771H243.608L243.173 52.0572C239.113 58.4374 231.573 59.3074 227.368 59.3074C221.132 59.3074 211.272 57.4223 209.242 45.5319H245.638H256.949H257.239L257.384 44.2269C257.529 43.0669 257.529 41.9068 257.529 40.8918C257.529 23.3462 245.348 11.3108 227.368 11.3108ZM227.368 22.7662C232.008 22.7662 242.013 24.0712 245.058 34.3666H209.677C212.722 24.0712 222.727 22.7662 227.368 22.7662Z" fill="white"/>
<path d="M30.016 70.7628C11.7454 70.7628 0 59.1624 0 41.0368C0 23.3462 12.0354 11.3108 30.016 11.3108C47.9966 11.3108 60.032 23.2012 60.032 41.0368C60.177 59.1624 48.2866 70.7628 30.016 70.7628ZM30.016 22.7662C13.1954 22.7662 11.4554 35.6716 11.4554 41.1818C11.4554 47.997 13.9205 59.4524 30.016 59.4524C36.9762 59.4524 48.5766 57.1323 48.5766 41.0368C48.7216 24.5062 35.6712 22.7662 30.016 22.7662Z" fill="white"/>
<path d="M125.574 43.5019V41.0368C125.574 23.2012 113.539 11.3108 95.5581 11.3108C77.5775 11.3108 65.5421 23.2012 65.5421 41.0368V43.5019C65.5421 54.9572 65.5421 70.7628 65.5421 70.7628H76.8525V41.0368C76.8525 31.4665 81.2026 26.9713 85.8428 24.6512C89.9029 22.9112 93.9631 20.0111 95.4131 16.386C96.8632 19.8661 101.068 22.9112 104.983 24.6512C109.624 26.8263 113.974 31.4665 113.974 41.0368V70.7628H125.429C125.574 70.7628 125.574 55.1023 125.574 43.5019Z" fill="white"/>
<path d="M299 22.7662V16.531V11.8908L297.84 11.7458C295.955 11.4558 294.215 11.3108 292.475 11.3108C274.494 11.3108 262.459 23.2012 262.459 41.0368V43.5019C262.459 54.9572 262.459 70.7628 262.459 70.7628H273.914V41.0368C273.914 24.5062 286.965 22.6212 292.62 22.6212C292.765 22.6212 298.71 22.7662 299 22.7662Z" fill="white"/>
</svg>
