<svg width="40" height="40" viewBox="0 0 40 40" fill="none" xmlns="http://www.w3.org/2000/svg">
<path opacity="0.3" d="M20 36.6668C29.2048 36.6668 36.6667 29.2049 36.6667 20.0002C36.6667 10.7954 29.2048 3.3335 20 3.3335C10.7953 3.3335 3.33337 10.7954 3.33337 20.0002C3.33337 29.2049 10.7953 36.6668 20 36.6668Z" fill="white"/>
<path d="M19.5167 26.1835L29.5166 16.1835C29.672 16.0281 29.7953 15.8436 29.8794 15.6406C29.9635 15.4375 30.0068 15.2199 30.0068 15.0001C30.0068 14.7804 29.9635 14.5628 29.8794 14.3597C29.7953 14.1567 29.672 13.9722 29.5166 13.8168C29.3612 13.6614 29.1768 13.5381 28.9737 13.454C28.7707 13.3699 28.5531 13.3267 28.3333 13.3267C28.1136 13.3267 27.8959 13.3699 27.6929 13.454C27.4899 13.5381 27.3054 13.6614 27.15 13.8168L18.3333 22.6501L12.85 17.1501C12.5361 16.8363 12.1105 16.66 11.6667 16.66C11.2228 16.66 10.7972 16.8363 10.4833 17.1501C10.1695 17.464 9.99316 17.8896 9.99316 18.3335C9.99316 18.7773 10.1695 19.203 10.4833 19.5168L17.15 26.1835C17.3049 26.3397 17.4893 26.4637 17.6924 26.5483C17.8955 26.6329 18.1133 26.6765 18.3333 26.6765C18.5533 26.6765 18.7712 26.6329 18.9743 26.5483C19.1774 26.4637 19.3617 26.3397 19.5167 26.1835Z" fill="white"/>
</svg>
