<svg width="58" height="57" viewBox="0 0 58 57" fill="none" xmlns="http://www.w3.org/2000/svg">
<path d="M13.4277 18.1522V13.101H0V18.1522H3.08078V28.9563H0V34.0063H13.4277V28.9563H10.3469V18.1522H13.4277Z" fill="white"/>
<path d="M28.2461 21.1223C27.4155 20.8852 23.1457 19.6858 22.4057 19.4488C21.6656 19.2118 21.0633 18.8704 21.0633 18.4414C21.0633 18.0124 21.7417 17.5525 23.1155 17.5525C27.4469 17.5525 29.5269 20.1741 29.5269 20.1741C29.5269 20.1741 29.7611 20.4811 29.8396 20.5901H34.0177V13.4364H29.5318V14.7377C29.1889 14.5054 26.6598 12.8853 22.7376 12.8853C17.5612 12.8853 14.6796 15.5223 14.6796 19.463C14.6796 23.4037 18.3157 25.0334 19.3273 25.4482C20.3389 25.863 24.2925 26.9593 25.9826 27.4772C27.6727 27.9951 28.2908 28.3661 28.2908 28.6327C28.2908 28.8994 27.552 29.5951 25.4394 29.5951C21.7598 29.5951 19.8645 27.4642 19.5313 27.0517V27.0482C19.4251 26.9095 19.3019 26.7448 19.2597 26.6819C19.2114 26.6096 19.0979 26.4508 19.0195 26.3406H14.8413V33.9803H19.5325V32.385C20.0782 32.7418 22.8716 34.4532 26.2252 34.4532C29.9676 34.4532 34.736 32.8532 34.736 27.8612C34.736 22.8692 29.0767 21.3569 28.2473 21.1199L28.2461 21.1223Z" fill="white"/>
<path d="M46.6451 12.8153C40.4062 12.8153 35.2901 15.8778 35.2901 23.6941C35.2901 31.5104 40.8445 34.4389 46.6728 34.4389C52.5012 34.4389 58 31.5376 58 23.7747C58 16.0118 52.5 12.8142 46.6451 12.8142V12.8153ZM46.6994 29.2289C44.5651 29.2289 43.1973 28.7453 43.1973 23.668C43.1973 18.5907 44.2101 18.0538 46.7815 18.0538C48.3412 18.0538 50.2292 18.1617 50.2292 23.5068C50.2292 28.852 48.8337 29.2289 46.6994 29.2289Z" fill="white"/>
<path d="M8.94778 10.7958C10.3505 8.76321 12.0744 6.96056 14.0518 5.46368C14.851 6.04441 15.7009 6.57063 16.5942 7.03878C15.0973 8.6767 13.7561 10.4912 13.5339 10.7946H14.4321C14.9705 10.0811 16.086 8.64707 17.2618 7.37418C18.5474 7.99403 19.9128 8.50129 21.3373 8.88766C20.9582 9.67817 20.6709 10.3691 20.5031 10.7934H21.283C21.4628 10.3549 21.7248 9.74454 22.0532 9.06899C23.8712 9.50514 25.7762 9.74928 27.7246 9.78721V10.7934H28.4489V9.79076C30.3828 9.77654 32.2769 9.56084 34.089 9.15432C34.398 9.7955 34.6467 10.3751 34.8181 10.7946H35.598C35.4362 10.3857 35.1658 9.73269 34.8084 8.98129C36.2595 8.61033 37.6502 8.11729 38.9612 7.50692C40.0924 8.74544 41.1487 10.106 41.669 10.7946H42.5671C42.3522 10.5007 41.0799 8.77862 39.6348 7.17981C40.6284 6.67611 41.57 6.10249 42.45 5.46368C44.4274 6.96056 46.1513 8.76203 47.5541 10.7958H48.4257C44.1425 4.30457 36.6989 0 28.2509 0C19.8029 0 12.3605 4.30457 8.07618 10.7958H8.94778ZM21.6608 8.23936C20.3051 7.88026 19.005 7.40855 17.7785 6.83256C17.9451 6.66308 18.1116 6.49834 18.2758 6.34189C19.955 4.75257 22.7159 3.0068 23.3207 2.6311C23.812 2.89658 24.348 3.11939 24.9178 3.29717C24.4748 3.86724 23.6056 5.02397 22.6592 6.49241C22.291 7.06367 21.9554 7.66455 21.6596 8.23818L21.6608 8.23936ZM27.7246 9.07847C25.8896 9.04292 24.0969 8.81773 22.3815 8.41951C22.6495 7.90514 22.9489 7.37537 23.2724 6.87404C24.3637 5.18279 25.3476 3.91346 25.6748 3.50102C26.3291 3.65154 27.016 3.74754 27.7246 3.77835V9.07847ZM28.4489 9.08203V3.78546C29.1467 3.77361 29.8299 3.70131 30.4843 3.57213C30.8585 4.04739 31.7965 5.27168 32.8298 6.87285C33.1703 7.40026 33.4829 7.95848 33.7618 8.49892C32.0536 8.86988 30.2706 9.06781 28.4489 9.08084V9.08203ZM34.4873 8.33181C34.1807 7.72974 33.8294 7.09567 33.4407 6.4936C32.5425 5.10101 31.7144 3.98813 31.2532 3.3908C31.8593 3.22369 32.4327 3.00561 32.9578 2.74369C33.8077 3.27821 36.2752 4.87583 37.824 6.34308C38.0293 6.53745 38.2381 6.74604 38.4457 6.96174C37.1939 7.52944 35.8672 7.98811 34.4861 8.33181H34.4873ZM41.844 5.02042C40.9941 5.62249 40.0863 6.16175 39.1302 6.637C38.8634 6.35612 38.593 6.08352 38.3274 5.83108C36.8788 4.45983 34.7215 3.02102 33.6652 2.34428C34.0238 2.11554 34.3521 1.8631 34.6455 1.58814C37.2615 2.32177 39.6904 3.49509 41.8452 5.02042H41.844ZM28.2509 0.711107C30.1631 0.711107 32.0222 0.939847 33.8029 1.36888C32.452 2.44621 30.4275 3.07791 28.2509 3.07791C26.0743 3.07791 24.0462 2.44858 22.6966 1.36888C24.4772 0.939847 26.3375 0.709922 28.2509 0.709922V0.711107ZM21.8576 1.58695C22.0954 1.81095 22.3562 2.02073 22.6399 2.21391C21.6825 2.81836 19.3237 4.36146 17.7748 5.82871C17.5515 6.03967 17.327 6.26486 17.1024 6.49715C16.2453 6.05626 15.428 5.56323 14.659 5.01805C16.8139 3.49391 19.2416 2.32058 21.8588 1.58577L21.8576 1.58695Z" fill="white"/>
<path d="M47.5565 36.3755C46.1839 38.3654 44.5023 40.1349 42.578 41.6116C41.6617 40.9349 40.6779 40.3305 39.6373 39.8019C40.8903 38.414 42.0142 36.9349 42.4295 36.3755H41.5277C40.9712 37.1044 39.9982 38.3405 38.9636 39.4748C37.6526 38.8644 36.2607 38.3702 34.8109 37.9992C35.1175 37.3545 35.3601 36.7832 35.5243 36.3755H34.7421C34.5767 36.7726 34.3558 37.2774 34.0902 37.8274C32.2794 37.4208 30.3865 37.2051 28.4501 37.1909V36.3755H27.7258V37.1945C25.7762 37.2312 23.8712 37.4754 22.0544 37.9115C21.7719 37.3284 21.5365 36.7939 21.3626 36.3767H20.5804C20.753 36.8034 21.0113 37.4114 21.3385 38.094C19.9128 38.4804 18.5474 38.9877 17.2618 39.6075C16.1825 38.4389 15.154 37.134 14.5758 36.3767H13.674C14.1037 36.9551 15.2892 38.5171 16.5954 39.9453C15.655 40.4395 14.7629 40.9965 13.9263 41.614C12.002 40.1361 10.3204 38.3678 8.94778 36.3779H8.07739C12.3617 42.8691 19.8041 47.1737 28.2521 47.1737C36.7001 47.1737 44.1425 42.8691 48.4269 36.3779H47.5565V36.3755ZM34.4885 38.6522C35.8696 38.9959 37.1963 39.4558 38.4482 40.0235C38.2393 40.2392 38.0317 40.4478 37.8252 40.6433C36.2812 42.1047 33.821 43.6987 32.9651 44.238C32.4399 43.9737 31.8665 43.7568 31.2581 43.5897C31.7192 42.9912 32.5462 41.8807 33.4419 40.4916C33.8306 39.8896 34.1819 39.2555 34.4885 38.6534V38.6522ZM28.4489 37.902C30.2718 37.9151 32.0548 38.113 33.7618 38.4828C33.4829 39.0232 33.1691 39.5814 32.8286 40.1088C31.7965 41.7088 30.8609 42.9307 30.4843 43.4084C29.8324 43.2804 29.1491 43.2093 28.4477 43.1974V37.9008L28.4489 37.902ZM27.7246 37.9056V43.2057C27.0148 43.2365 26.3267 43.3313 25.6723 43.4807C25.3428 43.0647 24.3613 41.7989 23.2724 40.11C22.9489 39.6087 22.6495 39.0789 22.3815 38.5634C24.0945 38.1651 25.8884 37.9411 27.7246 37.9056ZM21.6608 38.7435C21.9566 39.3183 22.2922 39.9192 22.6604 40.4905C23.6068 41.9577 24.4748 43.1133 24.9191 43.6845C24.348 43.8623 23.8133 44.0863 23.3219 44.3518C22.7147 43.9749 19.955 42.2303 18.277 40.6422C18.1116 40.4857 17.9463 40.321 17.7785 40.1515C19.0038 39.5743 20.3051 39.1038 21.6608 38.7435ZM14.5275 42.0573C15.3351 41.4742 16.1958 40.9491 17.1012 40.4833C17.3258 40.7156 17.5515 40.9408 17.7736 41.153C19.3225 42.619 21.6801 44.1621 22.6387 44.7678C22.297 45.0024 21.9868 45.2596 21.7103 45.5405C19.0979 44.7891 16.6739 43.5992 14.5275 42.0573ZM28.2521 46.459C26.2772 46.459 24.3577 46.2161 22.5252 45.7586C23.864 44.6042 25.9886 43.9038 28.2521 43.9038C30.5156 43.9038 32.6403 44.6042 33.9779 45.7586C32.1454 46.2149 30.2271 46.4578 28.2521 46.4578V46.459ZM34.794 45.5393C34.4656 45.2075 34.0902 44.9041 33.6713 44.635C34.73 43.9583 36.8824 42.5219 38.3299 41.1518C38.5966 40.8993 38.8659 40.6279 39.1339 40.3459C40.1382 40.8448 41.0907 41.4161 41.978 42.0561C39.8316 43.598 37.4076 44.7879 34.7952 45.5393H34.794Z" fill="white"/>
<path d="M1.38104 54.7126C1.41363 55.3005 1.64421 55.707 2.07518 55.9322C2.2961 56.0507 2.54599 56.1099 2.82364 56.1099C3.34274 56.1099 3.78458 55.8978 4.15036 55.4735C4.51614 55.0492 4.77569 54.1876 4.929 52.8886C4.68756 53.2631 4.38938 53.5274 4.03326 53.6791C3.67714 53.8308 3.29445 53.9067 2.884 53.9067C2.05104 53.9067 1.39311 53.6519 0.909023 53.1434C0.424935 52.635 0.182287 51.9796 0.182287 51.1796C0.182287 50.3796 0.421313 49.7337 0.900572 49.1506C1.37983 48.5675 2.08484 48.2747 3.018 48.2747C4.27712 48.2747 5.14509 48.8306 5.62435 49.9434C5.88994 50.555 6.02273 51.3206 6.02273 52.2403C6.02273 53.2785 5.86338 54.1971 5.54588 54.9982C5.01954 56.3316 4.12621 56.9988 2.8671 56.9988C2.02206 56.9988 1.38104 56.7819 0.942824 56.347C0.50461 55.9132 0.2849 55.368 0.2849 54.7126H1.38225H1.38104ZM4.2071 52.5544C4.56322 52.2759 4.74068 51.7911 4.74068 51.0966C4.74068 50.4732 4.58133 50.0098 4.26142 49.704C3.94151 49.3983 3.53469 49.2454 3.03973 49.2454C2.50856 49.2454 2.08725 49.4196 1.77579 49.7692C1.46434 50.1177 1.30861 50.5846 1.30861 51.1677C1.30861 51.72 1.44502 52.1585 1.71905 52.4833C1.99188 52.808 2.42889 52.9704 3.02766 52.9704C3.45743 52.9704 3.85097 52.8317 4.2071 52.5532V52.5544Z" fill="white"/>
<path d="M12.3786 49.6436C12.7649 50.3428 12.9581 51.3005 12.9581 52.5165C12.9581 53.6696 12.7831 54.6225 12.433 55.3775C11.9259 56.4596 11.0978 57 9.94734 57C8.90915 57 8.13775 56.5579 7.63072 55.6738C7.2082 54.9354 6.99694 53.9446 6.99694 52.7014C6.99694 51.7378 7.1237 50.9106 7.37721 50.2196C7.85164 48.9325 8.70996 48.2889 9.95338 48.2889C11.0712 48.2889 11.8801 48.7405 12.3786 49.6448V49.6436ZM11.2861 55.2933C11.6205 54.8039 11.7871 53.8913 11.7871 52.5579C11.7871 51.5944 11.6664 50.8015 11.425 50.1805C11.1835 49.5583 10.7139 49.2477 10.0174 49.2477C9.37634 49.2477 8.90915 49.5429 8.61217 50.1331C8.31641 50.7233 8.16793 51.5932 8.16793 52.7417C8.16793 53.6068 8.26209 54.3013 8.45162 54.8264C8.74135 55.6276 9.23751 56.0282 9.93768 56.0282C10.5014 56.0282 10.9505 55.7828 11.2849 55.2933H11.2861Z" fill="white"/>
<path d="M19.2488 49.6436C19.6351 50.3428 19.8283 51.3005 19.8283 52.5165C19.8283 53.6696 19.6532 54.6225 19.3032 55.3775C18.7961 56.4596 17.968 57 16.8175 57C15.7793 57 15.0079 56.5579 14.5009 55.6738C14.0784 54.9354 13.8671 53.9446 13.8671 52.7014C13.8671 51.7378 13.9939 50.9106 14.2474 50.2196C14.7218 48.9325 15.5801 48.2889 16.8236 48.2889C17.9414 48.2889 18.7503 48.7405 19.2488 49.6448V49.6436ZM18.1563 55.2933C18.4907 54.8039 18.6573 53.8913 18.6573 52.5579C18.6573 51.5944 18.5366 50.8015 18.2951 50.1805C18.0537 49.5583 17.5841 49.2477 16.8875 49.2477C16.2465 49.2477 15.7793 49.5429 15.4824 50.1331C15.1866 50.7233 15.0381 51.5932 15.0381 52.7417C15.0381 53.6068 15.1323 54.3013 15.3218 54.8264C15.6115 55.6276 16.1077 56.0282 16.8079 56.0282C17.3716 56.0282 17.8207 55.7828 18.1551 55.2933H18.1563Z" fill="white"/>
<path d="M21.5353 50.7624V49.9446C22.32 49.87 22.8668 49.7443 23.1759 49.5689C23.4861 49.3935 23.7167 48.9775 23.87 48.3221H24.7271V56.7677H23.5694V50.7624H21.5353Z" fill="white"/>
<path d="M28.5926 50.5076H29.8529V51.7982H28.5926V50.5076ZM28.5926 55.4759H29.8529V56.7665H28.5926V55.4759Z" fill="white"/>
<path d="M31.5031 54.8608C31.7699 54.3203 32.2926 53.8285 33.0689 53.3864L34.2266 52.7286C34.7457 52.4323 35.109 52.1799 35.3191 51.9701C35.6487 51.6418 35.814 51.2661 35.814 50.843C35.814 50.3488 35.6632 49.9565 35.3614 49.6649C35.0595 49.3746 34.6575 49.2288 34.1554 49.2288C33.4117 49.2288 32.8962 49.5061 32.6113 50.0608C32.458 50.3583 32.3735 50.7695 32.3578 51.2957H31.2544C31.2665 50.5574 31.4053 49.9553 31.6709 49.4895C32.1417 48.6682 32.9723 48.2581 34.1626 48.2581C35.1525 48.2581 35.8744 48.5212 36.3307 49.0463C36.7871 49.5713 37.0152 50.1556 37.0152 50.7991C37.0152 51.4783 36.7714 52.059 36.2849 52.5402C36.0036 52.8211 35.499 53.16 34.771 53.5594L33.9441 54.0098C33.5493 54.2231 33.2403 54.427 33.0158 54.6202C32.6138 54.9639 32.3602 55.3443 32.2552 55.7627H36.973V56.7701H31.0432C31.083 56.04 31.2375 55.4036 31.5043 54.8631L31.5031 54.8608Z" fill="white"/>
<path d="M43.2939 49.6436C43.6802 50.3428 43.8733 51.3005 43.8733 52.5165C43.8733 53.6696 43.6983 54.6225 43.3482 55.3775C42.8412 56.4596 42.013 57 40.8626 57C39.8244 57 39.053 56.5579 38.5459 55.6738C38.1234 54.9354 37.9122 53.9446 37.9122 52.7014C37.9122 51.7378 38.0389 50.9106 38.2924 50.2196C38.7669 48.9325 39.6252 48.2889 40.8686 48.2889C41.9865 48.2889 42.7953 48.7405 43.2939 49.6448V49.6436ZM42.2014 55.2933C42.5357 54.8039 42.7023 53.8913 42.7023 52.5579C42.7023 51.5944 42.5816 50.8015 42.3402 50.1805C42.0987 49.5583 41.6291 49.2477 40.9326 49.2477C40.2916 49.2477 39.8244 49.5429 39.5274 50.1331C39.2316 50.7233 39.0831 51.5932 39.0831 52.7417C39.0831 53.6068 39.1773 54.3013 39.3668 54.8264C39.6566 55.6276 40.1527 56.0282 40.8529 56.0282C41.4167 56.0282 41.8657 55.7828 42.2001 55.2933H42.2014Z" fill="white"/>
<path d="M45.5791 50.7624V49.9446C46.3638 49.87 46.9094 49.7443 47.2197 49.5689C47.5287 49.3935 47.7605 48.9775 47.9138 48.3221H48.7709V56.7677H47.612V50.7624H45.5791Z" fill="white"/>
<path d="M52.7945 54.6059C52.867 55.2139 53.1543 55.6347 53.6577 55.867C53.9148 55.9855 54.213 56.0447 54.551 56.0447C55.1945 56.0447 55.6713 55.8433 55.9804 55.4403C56.2894 55.0373 56.4451 54.5917 56.4451 54.1022C56.4451 53.5096 56.2616 53.0522 55.8934 52.7286C55.5252 52.4051 55.0846 52.2427 54.5691 52.2427C54.1949 52.2427 53.8738 52.3138 53.607 52.456C53.339 52.5982 53.1108 52.795 52.9225 53.0486L51.9809 52.9953L52.6388 48.43H57.1272V49.4599H53.4537L53.0855 51.8172C53.2871 51.6667 53.4778 51.5553 53.6589 51.4794C53.9812 51.3491 54.353 51.2839 54.7744 51.2839C55.5663 51.2839 56.2387 51.534 56.7892 52.0365C57.3397 52.5378 57.6161 53.1731 57.6161 53.9434C57.6161 54.7138 57.3638 55.4522 56.8592 56.0637C56.3546 56.6753 55.5494 56.981 54.4436 56.981C53.7398 56.981 53.1181 56.7867 52.5772 56.3979C52.0364 56.0092 51.7334 55.4119 51.6694 54.6071H52.797L52.7945 54.6059Z" fill="white"/>
</svg>
