<svg width="200" height="34" viewBox="0 0 200 34" fill="none" xmlns="http://www.w3.org/2000/svg">
<path d="M0 29.3629L3.95689 5.5124C4.09333 4.69374 4.55724 3.92965 5.32133 3.24743C6.11271 2.5652 7.06782 2.21045 8.13208 2.21045C9.16906 2.21045 10.0969 2.51063 10.9155 3.13827C11.6523 3.73863 12.1435 4.44814 12.4164 5.2668L17.4649 22.1859H17.5467L22.5952 5.2668C22.8408 4.44814 23.3593 3.73863 24.1234 3.13827C24.9147 2.51063 25.8426 2.21045 26.8522 2.21045C27.9438 2.21045 28.8989 2.5652 29.7176 3.27472C30.4544 3.92965 30.891 4.66645 31.0547 5.48511L35.0389 29.3356C35.0662 29.4993 35.0935 29.7449 35.0935 30.0724C35.0935 30.9729 34.7933 31.737 34.193 32.2828C33.6199 32.8558 32.9104 33.1287 32.0098 33.1287C30.0723 33.1287 28.9535 32.1463 28.6806 30.127L26.17 12.744H26.0882L20.9579 30.6454C20.4667 32.3101 19.3205 33.1287 17.5467 33.1287C15.773 33.1287 14.5995 32.3101 14.1356 30.6454L9.00533 12.744H8.92346L6.41288 30.127C6.11271 32.119 5.02115 33.1287 3.08364 33.1287C2.2104 33.1287 1.4736 32.8558 0.873244 32.2828C0.300178 31.7097 0.0272889 30.9729 0.0272889 30.0724C0.0272889 29.7449 0.0272889 29.5266 0.0818666 29.3356" fill="#0B6DC7"/>
<path fill-rule="evenodd" clip-rule="evenodd" d="M43.0897 21.5854C43.0897 23.2227 43.499 24.6145 44.2904 25.7606C45.1637 27.0977 46.3917 27.78 47.9744 27.78C49.5572 27.78 50.676 27.0977 51.5492 25.7606C52.3133 24.5872 52.6954 23.1954 52.6954 21.5854C52.6954 19.9753 52.3133 18.529 51.5492 17.3556C50.676 15.9912 49.4753 15.309 47.9744 15.309C46.4735 15.309 45.1637 15.9912 44.2631 17.3556C43.499 18.529 43.117 19.9208 43.117 21.5854M58.89 13.9445V29.1444C58.89 30.3451 58.7535 31.2184 58.5079 31.7641C58.0713 32.692 57.2253 33.1832 55.9428 33.1832C54.4419 33.1832 53.4595 32.3099 52.9956 30.5634C51.4128 32.4736 49.448 33.4288 47.1285 33.4288C44.2085 33.4288 41.8071 32.3099 39.8696 30.0995C37.9321 27.8891 36.9497 25.0511 36.9497 21.5854C36.9497 18.1197 37.9321 15.4181 39.8969 13.1258C41.889 10.8063 44.2904 9.66016 47.1285 9.66016C49.6936 9.66016 51.6311 10.588 52.9956 12.4709C53.0774 11.7341 53.4049 11.1065 53.978 10.6426C54.551 10.1514 55.206 9.90576 55.9428 9.90576C57.2253 9.90576 58.0713 10.3697 58.5079 11.3248C58.7535 11.8706 58.89 12.7438 58.89 13.9445Z" fill="#0B6DC7"/>
<path d="M67.1585 30.5909L60.964 14.6815C60.7184 14.0266 60.5819 13.4262 60.5819 12.8804C60.5819 11.9526 60.8821 11.2158 61.5097 10.6973C62.1374 10.1516 62.9015 9.87866 63.7747 9.87866C65.1119 9.87866 66.0124 10.6155 66.5036 12.0618L70.4332 24.2053H70.5151L74.4447 12.0618C74.9359 10.6155 75.8364 9.87866 77.1735 9.87866C78.0468 9.87866 78.8109 10.1516 79.4385 10.6973C80.0662 11.2158 80.3663 11.9253 80.3663 12.8804C80.3663 13.4262 80.2299 14.0266 79.9843 14.6815L73.7897 30.5909C73.4623 31.4642 73.0802 32.0918 72.6709 32.4738C72.1524 32.9378 71.4156 33.1561 70.4605 33.1561C69.5054 33.1561 68.7413 32.9378 68.2501 32.4738C67.8408 32.0918 67.486 31.4914 67.1312 30.5909" fill="#0B6DC7"/>
<path fill-rule="evenodd" clip-rule="evenodd" d="M85.1141 0.682373C86.0147 0.682373 86.8333 1.03713 87.5155 1.71935C88.2251 2.40157 88.5798 3.19295 88.5798 4.06619C88.5798 5.0213 88.225 5.86726 87.5428 6.57677C86.8879 7.25899 86.0692 7.61375 85.1141 7.61375C84.2136 7.61375 83.3949 7.25899 82.6854 6.54948C82.0032 5.83997 81.6484 5.0213 81.6484 4.06619C81.6484 3.19295 82.0032 2.40157 82.6854 1.71935C83.3949 1.03713 84.2136 0.682373 85.1141 0.682373ZM82.0305 29.745V13.3444C82.0305 12.3074 82.3034 11.4888 82.8764 10.8611C83.4495 10.2335 84.1863 9.9333 85.0868 9.9333C85.9874 9.9333 86.7515 10.2608 87.2972 10.8611C87.8703 11.4888 88.1432 12.3074 88.1432 13.3444V29.745C88.1432 30.782 87.8703 31.6007 87.2972 32.2283C86.7242 32.8559 85.9874 33.1561 85.0868 33.1561C84.1863 33.1561 83.4222 32.8287 82.8764 32.2283C82.3034 31.6007 82.0305 30.782 82.0305 29.745Z" fill="#0B6DC7"/>
<path fill-rule="evenodd" clip-rule="evenodd" d="M116.742 33.4016C112.431 33.4016 108.911 31.9007 106.154 28.9262C103.425 25.8972 102.061 22.1586 102.061 17.6832C102.061 13.2079 103.425 9.44199 106.154 6.44022C108.911 3.43844 112.458 1.96484 116.742 1.96484C121.027 1.96484 124.492 3.49302 127.249 6.54937C130.032 9.60573 131.451 13.317 131.451 17.7105C131.451 22.104 130.087 25.9245 127.358 28.9535C124.629 31.9553 121.081 33.4289 116.77 33.4289M116.77 27.5345C119.362 27.5345 121.382 26.5521 122.828 24.5873C124.138 22.7862 124.793 20.494 124.793 17.7105C124.793 14.9271 124.11 12.6621 122.773 10.861C121.3 8.86893 119.28 7.85924 116.742 7.85924C114.205 7.85924 112.212 8.84164 110.712 10.861C109.374 12.6621 108.692 14.9271 108.692 17.7105C108.692 20.494 109.347 22.7862 110.657 24.5873C112.103 26.5521 114.123 27.5345 116.715 27.5345H116.77Z" fill="#0B6DC7"/>
<path d="M135.326 29.7449V15.5547H133.961C132.16 15.5547 131.26 14.6541 131.26 12.8531C131.26 12.089 131.505 11.434 132.024 10.9428C132.542 10.4243 133.17 10.1787 133.934 10.1787H135.299V7.01324C135.299 4.80284 135.899 3.05635 137.127 1.80107C138.273 0.600355 139.801 0 141.739 0C144.577 0 146.023 0.927821 146.023 2.78346C146.023 4.52995 145.177 5.40319 143.512 5.40319C142.83 5.40319 142.366 5.51235 142.093 5.70337C141.657 6.00355 141.466 6.65848 141.466 7.66817V10.1787H143.376C145.45 10.1787 146.487 11.0793 146.487 12.8803C146.487 14.6814 145.45 15.5819 143.376 15.5819H141.466V29.7722C141.466 30.8091 141.193 31.6278 140.62 32.2554C140.047 32.8831 139.31 33.1833 138.409 33.1833C137.509 33.1833 136.745 32.8558 136.199 32.2554C135.626 31.6278 135.353 30.8091 135.353 29.7722" fill="#0B6DC7"/>
<path d="M162.041 14.1084C162.041 14.8179 161.796 15.4729 161.304 16.0187C160.813 16.5644 160.213 16.8373 159.503 16.8373C159.176 16.8373 158.385 16.5371 157.075 15.9368C155.765 15.3364 154.728 15.0363 153.991 15.0363C152.599 15.0363 151.89 15.6093 151.89 16.7555C151.89 17.465 152.818 18.2018 154.673 18.9386C157.32 19.9755 159.039 20.7396 159.804 21.2854C161.659 22.5407 162.587 24.178 162.587 26.1974C162.587 28.2168 161.768 29.9906 160.158 31.355C158.576 32.7194 156.447 33.4017 153.827 33.4017C151.917 33.4017 150.061 32.965 148.233 32.0645C146.241 31.1094 145.231 29.9633 145.231 28.6534C145.231 28.0803 145.45 27.5073 145.914 26.9342C146.459 26.252 147.114 25.8972 147.878 25.8972C148.642 25.8972 149.652 26.252 150.88 26.9615C152.135 27.6437 153.254 27.9985 154.264 27.9985C155.901 27.9985 156.693 27.4254 156.693 26.252C156.693 25.5425 155.765 24.833 153.909 24.1234C151.289 23.0865 149.57 22.3224 148.779 21.7766C146.923 20.5213 145.995 18.884 145.995 16.81C145.995 14.7361 146.759 12.9623 148.315 11.6524C149.87 10.3153 151.89 9.63306 154.346 9.63306C156.147 9.63306 157.811 9.98781 159.34 10.6973C161.141 11.5433 162.041 12.6894 162.041 14.0811" fill="#0B6DC7"/>
<path fill-rule="evenodd" clip-rule="evenodd" d="M169.601 19.4843H179.398C179.234 18.0926 178.716 16.9738 177.87 16.1005C177.024 15.2273 175.878 14.7634 174.486 14.7634C173.094 14.7634 172.03 15.2273 171.157 16.1278C170.283 17.0011 169.765 18.1199 169.629 19.457M182.864 23.5504H169.738C169.929 24.9967 170.611 26.1155 171.757 26.9342C172.794 27.6437 174.049 27.9985 175.55 27.9985C176.751 27.9985 178.088 27.5891 179.616 26.7705C181.144 25.9518 182.127 25.5425 182.536 25.5425C183.191 25.5425 183.764 25.8154 184.283 26.3611C184.801 26.9069 185.047 27.5073 185.047 28.1895C185.047 29.4721 183.955 30.6728 181.745 31.7916C179.589 32.8832 177.324 33.4017 175.004 33.4017C171.593 33.4017 168.81 32.2828 166.681 30.0724C164.553 27.862 163.489 25.024 163.489 21.5583C163.489 18.3382 164.526 15.582 166.572 13.2625C168.701 10.8338 171.348 9.63306 174.513 9.63306C177.679 9.63306 180.353 10.8611 182.536 13.3171C184.556 15.5547 185.565 18.0653 185.565 20.8488C185.565 22.6771 184.665 23.5777 182.864 23.5777V23.5504Z" fill="#0B6DC7"/>
<path d="M189.221 29.745V15.5548H187.856C186.055 15.5548 185.155 14.6542 185.155 12.8532C185.155 12.0891 185.401 11.4341 185.919 10.9429C186.437 10.4244 187.065 10.1788 187.829 10.1788H189.194V6.49485C189.194 5.45787 189.467 4.63921 190.04 4.01156C190.613 3.38392 191.349 3.08374 192.25 3.08374C193.151 3.08374 193.915 3.41121 194.46 4.01156C195.033 4.63921 195.306 5.45787 195.306 6.49485V10.1788H197.053C199.018 10.1788 200 11.0794 200 12.8804C200 14.6815 199.018 15.582 197.053 15.582H195.306V29.7723C195.306 30.8092 195.033 31.6279 194.46 32.2555C193.887 32.8832 193.151 33.1834 192.25 33.1834C191.349 33.1834 190.585 32.8559 190.04 32.2555C189.467 31.6279 189.194 30.8092 189.194 29.7723" fill="#0B6DC7"/>
</svg>
