<svg width="154" height="39" viewBox="0 0 154 39" fill="none" xmlns="http://www.w3.org/2000/svg">
<path d="M39.3472 16.0302C41.1334 26.3722 33.9651 36.1663 23.2948 37.9242C21.5086 38.221 19.7224 38.2666 18.0067 38.084C12.4366 37.5132 7.43049 34.6595 4.21061 30.3446L35.8923 21.5322C36.3389 21.3952 36.2214 20.9843 35.8453 21.0071L22.5663 21.8975C24.4465 20.1396 25.8566 17.9936 25.6921 15.0257C25.3396 10.2085 20.2865 5.50555 10.9089 2.40066C12.7186 1.46463 14.6928 0.802564 16.8316 0.460114C18.6178 0.163324 20.404 0.117664 22.1197 0.300304C30.6512 1.16784 37.8665 7.4461 39.3707 16.053L39.3472 16.0302ZM0.779208 22.3084C1.22576 24.8882 2.18937 27.2397 3.52903 29.3172C8.58212 27.9474 13.0241 25.3677 14.5988 19.6145C16.338 13.2677 14.3638 6.62422 9.61624 3.10839C3.15299 7.08082 -0.583952 14.5462 0.779208 22.3084Z" fill="#E52A18"/>
<path d="M148.118 16.7607V10.14H141.279V16.7607H137.518V0.985193H141.279V7.28628H148.118V0.985193H151.902V16.7607H148.118Z" fill="#212529"/>
<path d="M67.2449 0.985193V10.8706C67.2449 11.9664 67.4094 12.9025 67.7385 13.6787C68.0675 14.4321 68.5376 15.0713 69.1251 15.5507C69.7362 16.053 70.4648 16.3955 71.3109 16.6238C72.157 16.8521 73.1206 16.9662 74.1782 16.9662C75.2358 16.9662 76.176 16.8521 76.9986 16.6238C77.8211 16.3955 78.5262 16.0302 79.0903 15.5507C79.6544 15.0713 80.1009 14.4321 80.4064 13.6558C80.712 12.8796 80.8765 11.9436 80.8765 10.8478V0.985193H77.3746V10.7564C77.3746 11.761 77.1161 12.56 76.6225 13.1536C76.1054 13.7472 75.3064 14.0668 74.2017 14.0668C73.0971 14.0668 72.3215 13.77 71.8044 13.1536C71.2874 12.56 71.0289 11.761 71.0289 10.7564V0.985193H67.2449Z" fill="#212529"/>
<path d="M56.4102 16.7836V3.93026H51.9916V0.985193H64.5891V2.40065C64.5891 3.24536 63.884 3.93026 63.0144 3.93026H60.1471V16.7607H56.3867L56.4102 16.7836Z" fill="#212529"/>
<path d="M120.502 0.985193H116.742V16.7607H120.502V0.985193Z" fill="#212529"/>
<path d="M104.238 9.40947L104.356 9.56928L109.15 15.5736C109.761 16.327 110.678 16.7836 111.689 16.7836H114.673L107.811 8.2908L107.717 8.17665L107.811 8.0625L113.451 1.00803H109.55L104.379 7.81137L104.238 7.97118V1.00803H100.478V16.7836H104.238V9.40947Z" fill="#212529"/>
<path d="M95.5893 16.7607C94.4846 16.7607 93.427 16.19 92.863 15.254L89.9486 10.5738H88.0919V16.7607H84.3315V0.985193H91.0297C92.7454 0.985193 94.0851 1.41896 95.0252 2.2865C95.9653 3.15404 96.4354 4.31837 96.4354 5.7795C96.4354 6.51006 96.2238 7.26345 95.8243 8.01684C95.4248 8.7474 94.7197 9.34098 93.7326 9.77475L93.521 9.86607L98.0806 16.7607H95.5893ZM88.0919 8.19948H90.2776C91.0767 8.19948 91.6643 7.99401 92.0639 7.58307C92.4634 7.17213 92.6514 6.64704 92.6514 6.00779C92.6514 5.36855 92.4634 4.82063 92.0874 4.40969C91.7113 3.99875 91.1002 3.79328 90.2776 3.79328H88.0919V8.22231V8.19948Z" fill="#212529"/>
<path d="M123.558 13.0851C124.756 13.6102 126.284 14.1581 127.882 14.1581C129.715 14.1581 130.632 13.5417 130.632 12.3774C130.632 11.0076 129.386 10.8478 126.895 9.82042C125.203 9.08986 123.581 7.94835 123.581 5.30007C123.581 2.21802 126.002 0.779731 129.339 0.779731C131.125 0.779731 132.63 1.19067 133.476 1.48746V4.43253C132.63 4.04442 131.102 3.58782 129.598 3.58782C127.953 3.58782 127.177 4.1814 127.177 5.18592C127.177 6.25893 128.117 6.57855 129.786 7.19496C131.925 8.24514 134.439 8.70175 134.439 12.2632C134.439 15.3453 131.925 17.0119 128.54 17.0119C126.472 17.0119 124.827 16.6466 123.558 16.1215V13.0851Z" fill="#212529"/>
<path d="M129.433 37.3534V21.5779H139.61V23.0162C139.61 23.8609 138.905 24.5229 138.059 24.5229H133.194V27.9246H138.646V30.5501H133.194V34.4083H139.61V37.3534H129.433Z" fill="#212529"/>
<path d="M92.3224 37.3534V21.5779H94.1556C95.2132 21.5779 96.0828 22.4226 96.0828 23.4499V34.5225H102.076V37.3534H92.3224Z" fill="#212529"/>
<path d="M72.8386 21.6007H69.0782V37.3762H72.8386V21.6007Z" fill="#212529"/>
<path d="M87.5513 37.3534C86.4467 37.3534 85.389 36.7827 84.825 35.8466L81.9106 31.1665H80.0539V37.3534H76.2935V21.5779H82.9918C84.7075 21.5779 86.0471 22.0116 86.9872 22.8792C87.9273 23.7467 88.3974 24.9111 88.3974 26.3722C88.3974 27.1027 88.1859 27.8561 87.7863 28.6095C87.3868 29.3401 86.6817 29.9337 85.6946 30.3674L85.4831 30.4587L90.0426 37.3534H87.5513ZM80.0539 28.7922H82.2397C83.0153 28.7922 83.6263 28.5867 84.0259 28.1757C84.4254 27.7648 84.6135 27.2397 84.6135 26.6005C84.6135 25.9612 84.4254 25.4133 84.0494 25.0024C83.6733 24.5914 83.0623 24.386 82.2397 24.386H80.0539V28.815V28.7922Z" fill="#212529"/>
<path d="M60.8287 21.5779H56.5277L50.3935 37.3534H53.0963C53.7779 37.3534 54.3889 36.9196 54.6005 36.3032L55.235 34.454H61.8158L62.7794 37.3534H66.8454L60.8287 21.5779ZM56.1987 31.6002L57.6793 27.605C58.0084 26.7146 58.3374 25.7558 58.5489 25.0709H58.5959C58.784 25.8014 59.113 26.6918 59.442 27.605L60.8522 31.6002H56.1752H56.1987Z" fill="#212529"/>
<path d="M142.618 33.6778C143.817 34.2029 145.345 34.7508 146.943 34.7508C148.776 34.7508 149.693 34.1344 149.693 32.97C149.693 31.6002 148.447 31.4404 145.956 30.4131C144.263 29.6825 142.642 28.541 142.642 25.8927C142.642 22.8107 145.063 21.3724 148.4 21.3724C150.186 21.3724 151.69 21.7833 152.536 22.0801V25.0252C151.69 24.6371 150.163 24.1805 148.658 24.1805C147.013 24.1805 146.238 24.7741 146.238 25.7786C146.238 26.8516 147.178 27.1712 148.846 27.7876C150.985 28.8378 153.5 29.2944 153.5 32.8559C153.5 35.9379 150.985 37.6045 147.601 37.6045C145.533 37.6045 143.887 37.2393 142.618 36.7142V33.6778Z" fill="#212529"/>
<path d="M111.665 21.5779H113.992C115.097 21.5779 116.131 22.1258 116.718 23.039L121.254 30.1163C121.771 30.8925 122.359 31.9427 122.711 32.6733H122.782C122.735 31.9655 122.711 30.9838 122.711 30.2761V21.6007H126.002V37.3762H121.889L116.389 28.8378C115.872 28.0616 115.332 27.1256 114.956 26.4178H114.909C114.932 27.1027 114.979 27.9018 114.979 28.678V37.3991H111.689V21.6235L111.665 21.5779Z" fill="#212529"/>
<path d="M108.234 21.6007H104.473V37.3762H108.234V21.6007Z" fill="#212529"/>
</svg>
