<svg width="97" height="82" viewBox="0 0 97 82" fill="none" xmlns="http://www.w3.org/2000/svg">
<path opacity="0.2" d="M48.5 81.6773C75.2858 81.6773 97 80.5099 97 79.0698C97 77.6297 75.2858 76.4623 48.5 76.4623C21.7142 76.4623 0 77.6297 0 79.0698C0 80.5099 21.7142 81.6773 48.5 81.6773Z" fill="url(#paint0_radial_4509_54205)"/>
<path fill-rule="evenodd" clip-rule="evenodd" d="M49.2874 4.49121C33.0886 4.49121 19.9165 17.6858 19.9165 33.9066C19.9165 40.339 21.9934 46.3028 25.5103 51.1528L21.8419 62.0742L33.1265 58.4553C37.7636 61.5268 43.3171 63.3172 49.2874 63.3172C65.4791 63.3172 78.656 50.1226 78.656 33.9042C78.656 17.6858 65.4791 4.49121 49.2874 4.49121Z" fill="white"/>
<path fill-rule="evenodd" clip-rule="evenodd" d="M82.3978 33.6556C82.3978 52.0612 67.4969 66.9864 49.1169 66.9864C43.2792 66.9864 37.7967 65.4829 33.0294 62.8392L14.6021 68.7504L20.608 50.8684C17.5767 45.8439 15.8336 39.9542 15.8336 33.658C15.8336 15.2453 30.7346 0.32251 49.1169 0.32251C67.4992 0.32251 82.3978 15.2453 82.3978 33.6556ZM49.1169 5.63143C33.6831 5.63143 21.1338 18.2022 21.1338 33.6556C21.1338 39.7844 23.1112 45.4639 26.4623 50.0868L22.9691 60.4919L33.721 57.045C38.1377 59.9708 43.4308 61.6775 49.1169 61.6775C64.5437 61.6775 77.0977 49.1067 77.0977 33.6556C77.0977 18.2046 64.5437 5.63143 49.1169 5.63143ZM65.922 41.3334C65.7159 40.9916 65.1712 40.7884 64.3589 40.3796C63.5419 39.9709 59.5301 37.9941 58.7817 37.7216C58.0357 37.4491 57.4863 37.3128 56.9463 38.1303C56.4016 38.9478 54.8386 40.7884 54.3602 41.3334C53.8866 41.8808 53.4105 41.9453 52.5959 41.5366C51.7788 41.1278 49.1477 40.2625 46.0335 37.4826C43.6108 35.3145 41.9719 32.6421 41.4935 31.8246C41.0199 31.0072 41.4462 30.5673 41.8512 30.1586C42.2182 29.7905 42.6682 29.2048 43.0755 28.7292C43.4852 28.2511 43.6202 27.9069 43.8926 27.3619C44.1649 26.8169 44.0299 26.3412 43.8239 25.9325C43.6226 25.5237 41.9885 21.5032 41.3088 19.8658C40.6339 18.2332 39.9518 18.293 39.4734 18.293C38.995 18.293 38.1188 18.4364 38.1188 18.4364C38.1188 18.4364 36.4823 18.6396 35.7363 19.4571C34.9903 20.2746 32.8826 22.2514 32.8826 26.2695C32.8826 30.2877 35.8027 34.1767 36.2124 34.7193C36.6221 35.2667 41.8535 43.7859 50.1495 47.0558C58.4431 50.3258 58.4431 49.2358 59.9398 49.0972C61.4342 48.9633 64.7663 47.1228 65.446 45.2129C66.1256 43.3054 66.1256 41.668 65.9243 41.3286L65.922 41.3334Z" fill="#06853A"/>
<defs>
<radialGradient id="paint0_radial_4509_54205" cx="0" cy="0" r="1" gradientUnits="userSpaceOnUse" gradientTransform="translate(48.4889 79.3382) scale(34.4667 1.83596)">
<stop/>
<stop offset="1" stop-opacity="0"/>
</radialGradient>
</defs>
</svg>
