<svg width="177" height="68" viewBox="0 0 177 68" fill="none" xmlns="http://www.w3.org/2000/svg">
<path d="M41.9431 67.4213C38.6498 67.4213 35.4186 66.8931 32.2807 65.961C30.8515 65.5571 29.4534 64.9979 28.0242 64.5629C27.6514 64.4386 27.1543 64.4386 26.8125 64.5629C22.4939 66.2096 18.02 67.2349 13.3907 67.4834C13.2354 67.4834 13.1111 67.4834 12.9868 67.4834C14.7888 66.7999 16.6219 66.2406 18.3618 65.4328C20.1327 64.625 21.7793 63.6308 23.6435 62.6366C9.13427 54.4653 0.901 42.5967 0 25.8813C0.434966 25.8502 0.714571 25.8191 0.994192 25.8191C5.1885 25.8191 9.38281 25.8192 13.5771 25.7881C14.2917 25.7881 14.4471 26.0056 14.4781 26.6891C14.7578 35.0157 16.5287 43.0006 20.4434 50.4263C25.0416 59.1257 32.2185 64.5318 41.5703 67.2349C41.6945 67.3281 41.8188 67.3591 41.9431 67.4213Z" fill="#D9213B"/>
<path d="M28.3662 58.8769C29.1119 58.038 29.7643 57.3544 30.3857 56.6088C34.3936 51.6066 37.0034 45.8898 38.5879 39.738C39.7064 35.4504 40.3278 31.0385 40.3899 26.5956C40.3899 25.9742 40.6074 25.8188 41.1977 25.8188C45.4542 25.8499 49.7106 25.8499 53.9981 25.8188C54.7127 25.8188 54.837 26.0674 54.8059 26.7199C54.3399 37.2835 50.3009 46.3248 43.0308 53.9057C40.1103 56.9505 36.7548 59.4361 33.1198 61.5488C32.6848 61.7974 32.3741 61.7974 31.9702 61.4867C30.7586 60.6168 29.609 59.7779 28.3662 58.8769Z" fill="#D9213B"/>
<path d="M46.075 23.8304C44.0245 23.8304 42.0361 23.8304 40.0477 23.8304C39.4574 23.8304 39.5195 23.4886 39.5195 23.1158C39.5195 20.6924 38.9913 18.3932 38.0593 16.1562C36.3194 11.9618 33.43 8.76166 29.5153 6.46251C29.3289 6.33823 29.1425 6.245 28.9561 6.12072C28.9561 6.12072 28.9561 6.08966 28.9561 6.05859C37.4068 6.18287 46.6032 13.857 46.075 23.8304Z" fill="black"/>
<path d="M15.2241 23.7683C13.0493 23.7683 10.9055 23.7683 8.79282 23.7683C8.01609 15.7213 15.4727 6.55583 26.005 5.99658C19.1388 10.0356 15.4727 15.8456 15.2241 23.7683Z" fill="black"/>
<path d="M35.4494 2.54769C35.4494 3.97689 34.331 5.12647 32.9018 5.15754C31.4726 5.18861 30.292 4.00796 30.292 2.54769C30.292 1.11849 31.4105 0 32.8707 0C34.3309 0 35.4494 1.08742 35.4494 2.54769Z" fill="black"/>
<path d="M24.9172 2.54769C24.9172 4.00796 23.7676 5.15754 22.3074 5.15754C20.8782 5.15754 19.7908 4.00796 19.7598 2.54769C19.7598 1.11849 20.8783 0 22.3385 0C23.7677 0 24.9172 1.11849 24.9172 2.54769Z" fill="black"/>
<path d="M111.693 37.0663C111.693 36.6624 111.693 36.2585 111.693 35.8235C111.693 30.1999 111.693 24.6074 111.693 18.9838C111.693 17.2129 111.693 17.2129 113.526 17.2129C114.644 17.2129 115.763 17.2439 116.881 17.2129C117.751 17.1818 118.155 17.5236 118.155 18.4246C118.155 28.5222 118.155 38.6198 118.155 48.7174C118.155 49.5563 117.844 49.9291 116.974 49.898C115.763 49.8669 114.582 49.8359 113.37 49.898C112.345 49.9602 111.755 49.5252 111.258 48.6552C107.996 43.1249 104.702 37.6256 101.409 32.1262C100.912 31.3184 100.415 30.5106 99.9486 29.7028C99.8554 29.7339 99.7312 29.765 99.638 29.796C99.638 30.1999 99.638 30.6038 99.638 31.0078C99.638 36.7867 99.669 42.5345 99.669 48.3135C99.669 49.8359 99.6069 49.898 98.1156 49.898C96.966 49.898 95.7854 49.8359 94.6359 49.9291C93.5174 49.9912 93.1445 49.5873 93.1445 48.4688C93.1756 39.8936 93.1756 31.2874 93.1756 22.7122C93.1756 21.283 93.2067 19.8538 93.1756 18.4246C93.1446 17.5546 93.5174 17.2129 94.3562 17.275C94.3873 17.275 94.4184 17.275 94.4805 17.275C99.2651 17.1507 99.2962 17.1507 101.782 21.2519C104.764 26.192 107.716 31.132 110.667 36.0721C110.885 36.4449 111.165 36.8178 111.413 37.2217C111.475 37.1285 111.6 37.0974 111.693 37.0663Z" fill="black"/>
<path d="M88.0806 33.5239C88.0806 35.357 88.0806 37.159 88.0806 38.9922C88.0496 45.175 83.5135 49.9908 77.3308 50.3636C74.8763 50.519 72.4219 50.3636 70.1849 49.3072C65.8974 47.3188 63.7536 43.839 63.5672 39.2096C63.4119 35.5124 63.474 31.784 63.5362 28.0557C63.6294 21.9971 68.1965 17.3367 74.3171 16.9328C76.9269 16.7774 79.5367 16.9328 81.8979 18.1445C85.9369 20.1951 87.8942 23.5816 88.0806 28.0246C88.1428 29.8888 88.0806 31.6908 88.0806 33.5239ZM81.5562 33.7414C81.5562 31.9704 81.7115 30.1684 81.5251 28.3974C81.3698 27.0925 80.9969 25.6944 80.3134 24.6069C79.0706 22.6185 76.2744 21.966 73.851 22.7428C71.5519 23.4884 70.1228 25.508 70.0917 28.3042C70.0296 31.9083 70.0296 35.5124 70.1228 39.0854C70.1538 40.1107 70.4645 41.2602 70.9616 42.1612C72.1733 44.3361 74.7831 45.2371 77.424 44.5536C79.8784 43.9322 81.4319 41.9127 81.5251 39.1475C81.5872 37.3765 81.5562 35.5745 81.5562 33.7414Z" fill="black"/>
<path d="M176.161 29.392C176.161 32.6543 176.161 35.8856 176.161 39.1479C176.13 45.2064 171.998 49.6494 165.97 50.1776C163.081 50.4261 160.253 50.2397 157.613 48.8105C153.977 46.8531 152.113 43.684 152.051 39.6761C151.927 32.6233 152.02 25.6015 151.989 18.5488C151.989 17.5856 152.362 17.2128 153.294 17.2749C154.537 17.306 155.779 17.2749 157.022 17.2749C158.451 17.2749 158.607 17.3992 158.607 18.8906C158.607 25.5705 158.545 32.2815 158.638 38.9615C158.669 40.1732 159.011 41.5092 159.632 42.5345C160.813 44.4919 163.578 45.1754 165.97 44.4297C168.238 43.7151 169.605 41.882 169.605 39.3343C169.636 32.5611 169.605 25.788 169.605 19.0148C169.605 17.2749 169.636 17.2439 171.345 17.2439C172.557 17.2439 173.737 17.2749 174.949 17.2439C175.85 17.2128 176.161 17.6167 176.161 18.4866C176.13 22.1218 176.161 25.7569 176.161 29.392Z" fill="black"/>
<path d="M123.22 33.4308C123.22 31.753 123.22 30.1063 123.22 28.4286C123.22 22.0593 126.979 17.7406 133.348 16.995C135.771 16.7153 138.195 16.9018 140.556 17.7096C144.471 19.1077 147.174 22.6496 147.422 26.7819C147.484 27.6208 147.267 28.1179 146.335 28.1489C144.843 28.2111 143.321 28.3354 141.83 28.4596C141.177 28.5218 140.898 28.2732 140.836 27.5276C140.525 24.141 138.35 22.3079 134.87 22.4943C131.763 22.6496 129.775 24.7934 129.775 28.0868C129.744 31.753 129.744 35.4503 129.775 39.1165C129.806 42.4099 131.763 44.4605 134.964 44.6158C138.319 44.7712 140.494 43.0002 140.836 39.7379C140.929 38.9301 141.24 38.6815 142.016 38.7437C143.414 38.8369 144.812 38.9612 146.179 38.9301C147.329 38.899 147.515 39.4583 147.422 40.4214C146.925 45.579 143.197 49.4005 137.853 50.084C134.964 50.4569 132.105 50.3326 129.433 49.0588C125.363 47.1325 123.406 43.7459 123.251 39.334C123.157 37.4077 123.22 35.4192 123.22 33.4308Z" fill="black"/>
<path d="M168.581 13.9193C166.592 13.9193 165.349 12.6455 165.318 10.657C165.318 8.73071 166.654 7.42578 168.612 7.42578C170.538 7.42578 171.905 8.79283 171.874 10.7191C171.874 12.6455 170.538 13.9193 168.581 13.9193Z" fill="black"/>
<path d="M74.5965 10.8745C74.5965 12.8319 73.3226 14.1679 71.3653 14.1679C69.4701 14.1679 68.1031 12.894 68.1031 11.0299C68.072 9.04141 69.439 7.64327 71.3964 7.67434C73.2605 7.67434 74.5654 8.97927 74.5965 10.8745Z" fill="black"/>
<path d="M80.3137 7.64307C82.2399 7.67414 83.607 9.01012 83.5759 10.9364C83.5759 12.8317 82.1778 14.1677 80.2515 14.1677C78.2942 14.1366 76.9893 12.8628 76.9893 10.9054C77.0203 8.97906 78.3874 7.64307 80.3137 7.64307Z" fill="black"/>
<path d="M162.925 10.6878C162.925 12.6452 161.62 13.9501 159.632 13.9501C157.737 13.9501 156.401 12.6141 156.37 10.781C156.339 8.82363 157.737 7.42552 159.725 7.45659C161.62 7.42552 162.894 8.76151 162.925 10.6878Z" fill="black"/>
<path d="M64.2197 59.4364H64.8722V59.5296V59.6849C64.8722 60.5859 65.3072 61.0209 66.146 61.0209C66.5189 61.0209 66.8295 60.8967 67.0781 60.6792C67.3266 60.4617 67.4198 60.151 67.4198 59.7471C67.4198 59.4053 67.2645 59.0635 66.9538 58.7839C66.8295 58.6596 66.5188 58.4421 66.0528 58.1314L65.8042 57.9761C65.2761 57.6343 64.9654 57.4169 64.81 57.2926C64.4372 56.9819 64.2819 56.5469 64.2819 55.9566C64.2819 55.3973 64.4683 54.9934 64.8411 54.6827C65.1829 54.4031 65.6489 54.2788 66.2081 54.2788C67.4198 54.2788 68.0412 54.8691 68.0412 56.0809V56.2362H67.3888V56.1741C67.3888 55.3041 66.9849 54.8381 66.1771 54.8381C65.8043 54.8381 65.5246 54.9313 65.3071 55.1177C65.0586 55.3041 64.9343 55.5837 64.9343 55.9566C64.9343 56.3605 65.1207 56.7022 65.4935 57.044C65.6489 57.1683 65.9907 57.4169 66.5499 57.7586C67.0781 58.0693 67.4198 58.3179 67.6063 58.5354C67.9169 58.8771 68.0723 59.2499 68.0723 59.6849C68.0723 60.2752 67.8859 60.7724 67.5441 61.083C67.2024 61.3937 66.7363 61.5491 66.1149 61.5491C64.8722 61.5491 64.2197 60.9277 64.2197 59.6849V59.5296C64.2197 59.4674 64.2197 59.4364 64.2197 59.4364Z" fill="#020203"/>
<path d="M70.6819 61.4244H70.0605V54.3716H71.7072C72.3596 54.3716 72.8568 54.5269 73.1364 54.8066C73.416 55.1173 73.5713 55.5833 73.5713 56.2358C73.5713 56.9504 73.416 57.4475 73.0742 57.7271C72.7635 58.0067 72.2664 58.131 71.5518 58.131H70.6819V61.4244ZM70.6819 54.8687V57.6649H71.5829C72.1111 57.6649 72.4529 57.5717 72.6703 57.3543C72.8568 57.1368 72.981 56.7639 72.981 56.2358C72.981 55.7386 72.8878 55.3658 72.6703 55.1483C72.4529 54.9308 72.1111 54.8376 71.5829 54.8376H70.6819V54.8687Z" fill="#020203"/>
<path d="M75.0625 57.8822C75.0625 57.1366 75.0936 56.6084 75.1246 56.3288C75.1868 55.6763 75.3732 55.1792 75.6218 54.8685C75.9635 54.4646 76.4917 54.2471 77.2373 54.2471C77.9519 54.2471 78.4801 54.4646 78.8529 54.8685C79.1015 55.1792 79.2879 55.6452 79.35 56.3288C79.3811 56.6394 79.4122 57.1676 79.4122 57.8822C79.4122 58.6279 79.3811 59.1561 79.35 59.4357C79.2879 60.0882 79.1015 60.5853 78.8529 60.896C78.6043 61.2067 78.2315 61.3931 77.7344 61.4863C77.5791 61.5174 77.4237 61.5174 77.2373 61.5174C76.5227 61.5174 75.9946 61.2999 75.6218 60.896C75.3732 60.5853 75.1868 60.1192 75.1246 59.4357C75.0936 59.125 75.0625 58.6279 75.0625 57.8822ZM75.7149 57.8822C75.7149 58.8454 75.7771 59.4978 75.8703 59.8707C76.0878 60.6163 76.5227 60.9892 77.2373 60.9892C77.9519 60.9892 78.3869 60.6163 78.6044 59.8707C78.6976 59.5289 78.7597 58.8765 78.7597 57.8822C78.7597 56.9191 78.6976 56.2355 78.6044 55.8938C78.3869 55.1481 77.9519 54.7753 77.2373 54.7753C76.5227 54.7753 76.0878 55.1481 75.8703 55.8938C75.7771 56.2666 75.7149 56.9191 75.7149 57.8822Z" fill="#020203"/>
<path d="M83.2964 58.0067H81.9915V61.3933H81.3701V54.3716H82.7682C83.576 54.3716 84.1352 54.4648 84.4149 54.6512C84.7877 54.8998 84.9741 55.3969 84.9741 56.1425C84.9741 57.0435 84.6323 57.5718 83.9488 57.7271C84.3216 57.7892 84.6013 57.9757 84.7255 58.2242C84.8187 58.4106 84.8809 58.7524 84.8809 59.1874V59.6223C84.8809 59.7156 84.8809 59.8398 84.8809 60.0262C84.8809 60.2126 84.8809 60.3369 84.8809 60.4301C84.8809 60.5544 84.8809 60.7098 84.9119 60.8651C84.9119 60.8962 84.943 61.0515 84.9741 61.3312H84.2906C84.2284 60.7098 84.1974 60.1816 84.1974 59.7777C84.1974 59.2806 84.1974 58.9699 84.1663 58.8456C84.1353 58.5349 84.042 58.2863 83.8867 58.1621C83.8556 58.0999 83.6071 58.0067 83.2964 58.0067ZM81.9915 57.5096H82.7371C83.2964 57.5096 83.7313 57.4164 83.9488 57.23C84.2284 57.0125 84.3527 56.6397 84.3527 56.0804C84.3527 55.5833 84.2284 55.2726 83.9488 55.0862C83.7313 54.9619 83.3896 54.8997 82.8303 54.8997H81.9604V57.5096H81.9915Z" fill="#020203"/>
<path d="M91.4048 61.4244L89.4785 54.3716H90.162L91.8087 60.8341C91.9019 60.4612 92.0572 59.8709 92.2747 59.0631L92.3058 58.9388L93.5796 54.3716H94.201L92.2126 61.4244H91.4048Z" fill="#020203"/>
<path d="M98.8614 61.4244H95.6924V54.3716H98.8614V54.9308H96.3448V57.5407H98.7371V58.0689H96.3448V60.8651H98.8614V61.4244Z" fill="#020203"/>
<path d="M107.032 58.2247H105.634V57.7276H107.654V61.2384C106.908 61.4559 106.225 61.5491 105.634 61.5491C104.951 61.5491 104.423 61.3316 104.081 60.8966C103.832 60.5859 103.677 60.0888 103.615 59.4364C103.584 59.1257 103.553 58.5975 103.553 57.8518C103.553 57.1372 103.584 56.6091 103.615 56.3294C103.677 55.708 103.863 55.2109 104.112 54.9002C104.454 54.4963 104.982 54.2788 105.728 54.2788C107.064 54.2788 107.716 54.8692 107.716 56.0187V56.1119H107.095C107.095 55.242 106.66 54.776 105.759 54.776C105.23 54.776 104.858 54.9624 104.609 55.3041C104.361 55.6459 104.236 56.5158 104.236 57.8829C104.236 58.7218 104.267 59.3121 104.329 59.6228C104.423 60.2442 104.671 60.6481 105.106 60.8345C105.293 60.9277 105.541 60.9588 105.79 60.9588C106.131 60.9588 106.535 60.8966 107.032 60.7413V58.2247Z" fill="#020203"/>
<path d="M112.843 61.4244H109.674V54.3716H112.843V54.9308H110.326V57.5407H112.719V58.0689H110.326V60.8651H112.843V61.4244Z" fill="#020203"/>
<path d="M114.676 61.4244V54.3716H115.67L118.653 61.0205C118.622 60.803 118.59 60.5234 118.559 60.2437C118.559 60.1505 118.559 60.0262 118.559 59.8398C118.559 59.6534 118.559 59.5291 118.559 59.4359V54.3716H119.181V61.4244H118.218L115.235 54.8376C115.266 55.1483 115.297 55.3658 115.297 55.4901C115.297 55.5833 115.297 55.7076 115.297 55.8629C115.297 56.0183 115.297 56.1425 115.297 56.2358V61.4244H114.676Z" fill="#020203"/>
<path d="M124.4 59.3735H125.084V59.4046C125.084 60.0571 124.928 60.5853 124.618 60.9581C124.276 61.362 123.779 61.5484 123.158 61.5484C122.443 61.5484 121.915 61.2688 121.573 60.7406C121.387 60.461 121.262 60.0571 121.231 59.4978C121.2 59.2493 121.2 58.8143 121.2 58.1929V57.9133C121.2 56.7637 121.262 55.9559 121.418 55.4899C121.542 55.0859 121.759 54.7753 122.101 54.5578C122.412 54.3403 122.785 54.2471 123.22 54.2471C123.872 54.2471 124.338 54.4024 124.618 54.7131C124.897 55.0238 125.053 55.5209 125.053 56.2045V56.2355H124.4C124.4 55.2413 123.996 54.7442 123.22 54.7442C122.598 54.7442 122.194 55.086 122.008 55.7384C121.915 56.0802 121.853 56.6705 121.853 57.5094C121.853 57.6647 121.853 57.9133 121.853 58.224C121.853 58.5347 121.853 58.7832 121.853 58.9386C121.853 59.2182 121.884 59.5289 121.946 59.8707C122.07 60.5853 122.474 60.927 123.158 60.927C123.561 60.927 123.903 60.7717 124.121 60.492C124.338 60.2435 124.431 59.9017 124.431 59.4668V59.3735H124.4ZM121.915 63.4126V63.0398C122.35 63.133 122.754 63.1951 123.064 63.1951C123.251 63.1951 123.406 63.164 123.53 63.1019C123.624 63.0398 123.686 62.9155 123.686 62.7912C123.686 62.4494 123.468 62.2941 123.002 62.2941H122.878C122.847 62.2941 122.816 62.2941 122.785 62.2941V61.4241H123.095V61.9523H123.158C123.872 61.9523 124.245 62.232 124.245 62.7601C124.245 63.3194 123.872 63.599 123.158 63.599C122.754 63.599 122.35 63.5369 121.915 63.4126Z" fill="#020203"/>
<path d="M127.041 61.4244V54.3716H127.693V60.8651H130.024V61.4244H127.041Z" fill="#020203"/>
<path d="M131.546 53.5641V52.7563H132.26V53.5641H131.546ZM131.577 61.4247V54.3719H132.198V61.4247H131.577Z" fill="#020203"/>
<path d="M134.467 61.4244V54.3716H135.088V57.5718L137.667 54.3716H138.413L135.741 57.6649L138.413 61.4244H137.667L135.088 57.8203V61.4244H134.467Z" fill="#020203"/>
<path d="M143.197 61.4244V54.3716H143.819V57.5718L146.397 54.3716H147.143L144.471 57.6649L147.143 61.4244H146.397L143.819 57.8203V61.4244H143.197Z" fill="#020203"/>
<path d="M148.759 54.3716H149.38V59.001C149.38 59.7466 149.473 60.2126 149.629 60.4612C149.753 60.6476 149.908 60.803 150.126 60.8962C150.343 60.9894 150.561 61.0515 150.809 61.0515C151.337 61.0515 151.741 60.8651 151.99 60.4612C152.083 60.3369 152.145 60.1816 152.176 59.9641C152.207 59.7777 152.238 59.4359 152.238 59.001V54.3716H152.86V59.001C152.86 59.8398 152.735 60.4612 152.456 60.8341C152.145 61.3001 151.586 61.5486 150.809 61.5486C150.095 61.5486 149.566 61.3622 149.225 60.9583C148.914 60.5544 148.728 59.902 148.728 59.001V54.3716H148.759Z" fill="#020203"/>
<path d="M155.065 61.4244V54.3716H155.718V60.8651H158.048V61.4244H155.065Z" fill="#020203"/>
<path d="M159.57 54.3719H160.192V59.0012C160.192 59.7469 160.285 60.2129 160.44 60.4615C160.564 60.6479 160.72 60.8033 160.937 60.8965C161.155 60.9897 161.372 61.0518 161.621 61.0518C162.149 61.0518 162.553 60.8654 162.801 60.4615C162.895 60.3372 162.957 60.1819 162.988 59.9644C163.019 59.778 163.05 59.4362 163.05 59.0012V54.3719H163.671V59.0012C163.671 59.8401 163.547 60.4615 163.267 60.8344C162.957 61.3004 162.397 61.5489 161.621 61.5489C160.906 61.5489 160.378 61.3625 160.036 60.9586C159.726 60.5547 159.539 59.9023 159.539 59.0012V54.3719H159.57ZM160.533 53.3466V52.5698H161.217V53.3466H160.533ZM162.056 53.3466V52.5698H162.739V53.3466H162.056Z" fill="#020203"/>
<path d="M165.815 61.4244V54.3716H167.214C168.021 54.3716 168.581 54.4648 168.86 54.6512C169.233 54.8998 169.419 55.3969 169.419 56.1425C169.419 57.0435 169.078 57.5718 168.394 57.7271C169.171 57.8825 169.544 58.4417 169.544 59.4359C169.544 60.5234 169.14 61.1448 168.363 61.3001C168.115 61.3622 167.742 61.3933 167.182 61.3933H165.815V61.4244ZM166.406 57.5096H167.151C167.711 57.5096 168.115 57.4164 168.363 57.23C168.643 57.0125 168.767 56.6397 168.767 56.1115C168.767 55.5833 168.643 55.2104 168.363 55.0551C168.177 54.9308 167.773 54.8687 167.182 54.8687H166.406V57.5096ZM166.406 60.8962H167.182C167.835 60.8962 168.27 60.803 168.487 60.6476C168.736 60.4612 168.891 60.0573 168.891 59.4359C168.891 58.8767 168.736 58.4728 168.456 58.2863C168.208 58.131 167.773 58.0378 167.182 58.0378H166.437V60.8962H166.406Z" fill="#020203"/>
<path d="M171.408 54.3719H172.029V59.0012C172.029 59.7469 172.123 60.2129 172.278 60.4615C172.402 60.6479 172.558 60.8033 172.775 60.8965C172.993 60.9897 173.21 61.0518 173.459 61.0518C173.987 61.0518 174.391 60.8654 174.639 60.4615C174.732 60.3372 174.795 60.1819 174.826 59.9644C174.857 59.778 174.888 59.4362 174.888 59.0012V54.3719H175.509V59.0012C175.509 59.8401 175.385 60.4615 175.105 60.8344C174.795 61.3004 174.235 61.5489 173.459 61.5489C172.744 61.5489 172.216 61.3625 171.874 60.9586C171.563 60.5547 171.377 59.9023 171.377 59.0012V54.3719H171.408ZM172.371 53.3466V52.5698H173.055V53.3466H172.371ZM173.925 53.3466V52.5698H174.608V53.3466H173.925Z" fill="#020203"/>
</svg>
