<svg width="127" height="107" viewBox="0 0 127 107" fill="none" xmlns="http://www.w3.org/2000/svg">
<path d="M24.2443 93.9759H25.1236V95.7133H24.2443V93.9759ZM24.2164 96.5334H25.1376V104.637H24.2164V96.5334Z" fill="white"/>
<path d="M26.7288 99.2995H27.5662V100.147C27.9431 99.5636 28.5991 99.1883 29.3528 99.1883C30.5392 99.1883 31.5023 100.092 31.5023 101.315V104.637H30.6229V101.482C30.6229 100.509 29.8832 99.9667 29.1853 99.9667C28.3199 99.9667 27.6081 100.634 27.6081 101.482V104.637H26.7288V99.2995Z" fill="white"/>
<path d="M35.522 100.676C35.4522 100.189 35.0475 99.8972 34.5171 99.8972C33.9448 99.8972 33.554 100.217 33.554 100.62C33.554 101.051 33.8332 101.259 34.3636 101.426L35.0614 101.635C36.0106 101.913 36.4572 102.357 36.4572 103.122C36.4572 104.095 35.7035 104.748 34.531 104.748C33.4424 104.748 32.563 104.137 32.5351 103.261L33.3865 103.15C33.4563 103.706 33.9309 104.053 34.545 104.053C35.215 104.053 35.6058 103.706 35.6058 103.191C35.6058 102.76 35.3406 102.552 34.7544 102.357L34.0704 102.135C33.1632 101.843 32.7166 101.426 32.7166 100.662C32.7166 99.7999 33.5121 99.1744 34.531 99.1744C35.5499 99.1744 36.2897 99.7443 36.3455 100.55L35.522 100.648V100.676Z" fill="white"/>
<path d="M38.1181 101.968C38.1181 103.094 38.9975 103.998 40.1141 103.998C41.2307 103.998 42.124 103.094 42.124 101.968C42.124 100.842 41.2167 99.9389 40.1141 99.9389C39.0114 99.9389 38.1181 100.842 38.1181 101.968ZM42.124 100.286V99.2995H42.9754V104.637H42.124V103.636C41.6634 104.303 40.8957 104.748 39.9885 104.748C38.4392 104.748 37.2249 103.497 37.2249 101.968C37.2249 100.439 38.4392 99.1883 39.9885 99.1883C40.8957 99.1883 41.6634 99.6192 42.124 100.286Z" fill="white"/>
<path d="M44.4549 99.2995H45.2923V100.147C45.6692 99.5636 46.3252 99.1883 47.0789 99.1883C48.2653 99.1883 49.2284 100.092 49.2284 101.315V104.637H48.349V101.482C48.349 100.509 47.6093 99.9667 46.9114 99.9667C46.046 99.9667 45.3342 100.634 45.3342 101.482V104.637H44.4549V99.2995Z" fill="white"/>
<path d="M54.2252 100.286L57.4913 96.5472H58.5939L55.1464 100.439L58.6358 104.651H57.4913L54.2252 100.675V104.651H53.304V96.5472H54.2252V100.286Z" fill="white"/>
<path d="M59.4593 101.968C59.4593 103.094 60.3386 103.998 61.4552 103.998C62.5718 103.998 63.4651 103.094 63.4651 101.968C63.4651 100.842 62.5579 99.9389 61.4552 99.9389C60.3526 99.9389 59.4593 100.842 59.4593 101.968ZM63.4651 100.286V99.2995H64.3165V104.637H63.4651V103.636C63.0045 104.303 62.2369 104.748 61.3296 104.748C59.7803 104.748 58.566 103.497 58.566 101.968C58.566 100.439 59.7803 99.1883 61.3296 99.1883C62.2369 99.1883 63.0045 99.6192 63.4651 100.286Z" fill="white"/>
<path d="M67.3872 107H66.5358L67.3593 104.818L65.154 99.2994H66.0473L67.792 103.775L69.5088 99.2994H70.3602L67.3872 107Z" fill="white"/>
<path d="M71.2115 99.2995H72.049V100.147C72.4259 99.5636 73.0819 99.1883 73.8356 99.1883C75.022 99.1883 75.985 100.092 75.985 101.315V104.637H75.1057V101.482C75.1057 100.509 74.366 99.9667 73.6681 99.9667C72.8027 99.9667 72.0909 100.634 72.0909 101.482V104.637H71.2115V99.2995Z" fill="white"/>
<path d="M77.9391 101.968C77.9391 103.094 78.8184 103.998 79.935 103.998C81.0516 103.998 81.9449 103.094 81.9449 101.968C81.9449 100.842 81.0377 99.9389 79.935 99.9389C78.8324 99.9389 77.9391 100.842 77.9391 101.968ZM81.9449 100.286V99.2995H82.7963V104.637H81.9449V103.636C81.4843 104.303 80.7167 104.748 79.8094 104.748C78.2601 104.748 77.0458 103.497 77.0458 101.968C77.0458 100.439 78.2601 99.1883 79.8094 99.1883C80.7167 99.1883 81.4843 99.6192 81.9449 100.286Z" fill="white"/>
<path d="M84.2758 96.5472H85.1552V101.579L87.5838 99.2993H88.6167L86.1182 101.648L89.0075 104.651H87.9048L85.1552 101.773V104.651H84.2758V96.5472Z" fill="white"/>
<path d="M90.4451 96.5472H89.5658V104.651H90.4451V96.5472Z" fill="white"/>
<path d="M92.4411 101.968C92.4411 103.094 93.3204 103.998 94.437 103.998C95.5536 103.998 96.4469 103.094 96.4469 101.968C96.4469 100.842 95.5396 99.9389 94.437 99.9389C93.3343 99.9389 92.4411 100.842 92.4411 101.968ZM96.4469 100.286V99.2995H97.2983V104.637H96.4469V103.636C95.9863 104.303 95.2186 104.748 94.3114 104.748C92.7621 104.748 91.5338 103.497 91.5338 101.968C91.5338 100.439 92.7481 99.1883 94.3114 99.1883C95.2186 99.1883 95.9863 99.6192 96.4469 100.286Z" fill="white"/>
<path d="M99.6711 104.651H98.7917V99.3134H99.6292V100.398C99.9223 99.7443 100.578 99.3134 101.444 99.3134H101.639V100.12H101.486C100.536 100.12 99.6711 100.634 99.6711 101.899V104.651Z" fill="white"/>
<path d="M103.244 99.2994H102.449V104.637H103.244V99.2994Z" fill="white"/>
<path d="M28.7945 79.8676C28.7945 83.273 31.4046 85.914 34.7404 85.914C38.0763 85.914 40.6864 83.273 40.6864 79.8676C40.6864 76.4622 38.0763 73.8629 34.7404 73.8629C31.4046 73.8629 28.7945 76.5039 28.7945 79.8676ZM46.2833 79.8676C46.2833 85.8723 41.454 90.8206 34.7404 90.8206C28.0268 90.8206 23.1975 85.8723 23.1975 79.8676C23.1975 73.8629 27.985 68.9564 34.7404 68.9564C41.4959 68.9564 46.2833 73.9046 46.2833 79.8676Z" fill="white"/>
<path d="M55.1883 58.865H49.5355V90.3896H55.1883V58.865Z" fill="white"/>
<path d="M64.163 79.8676C64.163 83.3148 66.773 86.0391 70.1089 86.0391C73.4448 86.0391 76.0967 83.3148 76.0967 79.8676C76.0967 76.4205 73.4448 73.7379 70.1089 73.7379C66.773 73.7379 64.163 76.4622 64.163 79.8676ZM76.1386 71.8614V69.3872H81.5681V90.3897H76.1386V87.8322C74.3799 89.6669 71.9513 90.8206 69.1179 90.8206C63.0883 90.8206 58.4683 85.9279 58.4683 79.8676C58.4683 73.8074 63.0883 68.9564 69.1179 68.9564C71.9374 68.9564 74.3799 70.0266 76.1386 71.8475" fill="white"/>
<path d="M91.7152 90.3897H86.0624V69.3872H91.4082V72.6676C92.4829 70.5826 94.6184 69.3872 97.396 69.3872H98.5963V74.4189H97.8705C94.9255 74.4189 91.7152 75.4892 91.7152 80.6877V90.4036V90.3897Z" fill="white"/>
<path d="M101.081 69.3871H106.734V90.3896H101.081V69.3871ZM101.081 58.865H106.734V66.2319H101.081V58.865Z" fill="white"/>
<path d="M121.389 75.3502C121.18 73.7795 120.063 73.0011 118.57 73.0011C116.992 73.0011 115.96 73.8073 115.96 74.9193C115.96 76.0312 116.602 76.5316 118.318 77.0459L121.222 77.9355C125.158 79.1309 127 80.8266 127 83.9819C127 88.1518 123.622 90.7927 118.57 90.7927C113.517 90.7927 109.93 88.402 109.804 84.5796L115.192 84.0236C115.443 85.8583 116.909 86.7062 118.612 86.7062C120.496 86.7062 121.473 85.8166 121.473 84.4962C121.473 83.3842 120.831 82.7865 119.072 82.2861L116.029 81.3965C112.303 80.2846 110.558 78.4081 110.558 75.4336C110.558 71.5138 114.145 68.9563 118.598 68.9563C123.05 68.9563 126.302 71.1664 126.595 74.7942L121.375 75.3502H121.389Z" fill="white"/>
<path d="M5.94593 74.2799H11.8081C14.7113 74.2799 16.9864 72.0698 16.9864 68.998C16.9864 65.9261 14.7252 64.1053 11.8081 64.1053H5.94593V74.2799ZM0 58.8651H12.185C17.9634 58.8651 22.9602 62.5346 22.9602 68.9563C22.9602 75.378 17.9494 79.4784 12.185 79.4784H5.94593V90.3896H0V58.8651Z" fill="white"/>
<path d="M39.0673 13.2462L46.6881 20.8355C50.4706 24.6023 56.3188 24.6579 60.3247 20.6687C64.163 16.8463 63.7722 11.3559 59.9897 7.58905L52.3688 -0.000190735L39.0673 13.2462Z" fill="white"/>
<path d="M87.9327 35.4302L80.3119 27.8409C76.5294 24.0741 70.6812 24.0185 66.6754 28.0077C62.837 31.8302 63.2278 37.3205 67.0103 41.0874L74.6312 48.6766L87.9327 35.4302Z" fill="white"/>
<path d="M52.3688 48.6766L59.9897 41.0874C63.7722 37.3205 63.828 31.4966 59.8222 27.5073C55.9838 23.6849 50.4706 24.0741 46.6881 27.8409L39.0673 35.4302L52.3688 48.6766Z" fill="white"/>
<path d="M74.6312 -0.000190735L67.0103 7.58905C63.2278 11.3559 63.172 17.1799 67.1778 21.1691C71.0162 24.9915 76.5294 24.6023 80.3119 20.8355L87.9327 13.2462L74.6312 -0.000190735Z" fill="white"/>
</svg>
