<svg width="60" height="60" viewBox="0 0 60 60" fill="none" xmlns="http://www.w3.org/2000/svg">
<path d="M0 16.3289L9.3465 25.6792C13.9789 30.3135 21.1727 30.3953 26.0776 25.4612C30.7917 20.7451 30.3012 13.9846 25.6688 9.3503L16.3223 0L0 16.3289Z" fill="#4766F4"/>
<path d="M59.9757 43.6711L50.6292 34.3208C45.9968 29.6865 38.803 29.6047 33.8981 34.5388C29.184 39.2549 29.6745 46.0154 34.3068 50.6497L43.6534 60L59.9757 43.6711Z" fill="#4766F4"/>
<path d="M16.3223 60L25.6688 50.6497C30.3012 46.0154 30.3829 38.8187 25.4508 33.9119C20.7367 29.1958 13.9789 29.6865 9.3465 34.3208L0 43.6711L16.3223 60Z" fill="#4766F4"/>
<path d="M43.6534 0L34.3068 9.3503C29.6745 13.9846 29.5927 21.1813 34.5248 26.0881C39.239 30.8042 45.9968 30.3135 50.6292 25.6792L59.9757 16.3289L43.6534 0Z" fill="#4766F4"/>
</svg>
