<svg width="156" height="60" viewBox="0 0 156 60" fill="none" xmlns="http://www.w3.org/2000/svg">
<path d="M35.3423 25.8973C35.3423 30.0954 38.5305 33.3666 42.6451 33.3666C46.7598 33.3666 49.9479 30.1227 49.9479 25.8973C49.9479 21.672 46.7325 18.4825 42.6451 18.4825C38.5577 18.4825 35.3423 21.7265 35.3423 25.8973ZM56.8147 25.8973C56.8147 33.3121 50.8744 39.3912 42.6451 39.3912C34.4158 39.3912 28.4755 33.3121 28.4755 25.8973C28.4755 18.4825 34.3613 12.458 42.6451 12.458C50.8744 12.458 56.8147 18.537 56.8147 25.8973Z" fill="#4766F4"/>
<path d="M67.7145 0H60.7931V38.846H67.7145V0Z" fill="#4766F4"/>
<path d="M78.7232 25.8973C78.7232 30.1499 81.9386 33.5029 86.026 33.5029C90.1134 33.5029 93.3833 30.1499 93.3833 25.8973C93.3833 21.6447 90.1406 18.3462 86.026 18.3462C81.9113 18.3462 78.7232 21.6992 78.7232 25.8973ZM93.4105 16.0291V12.9759H100.087V38.8732H93.4105V35.711C91.2578 37.9736 88.2604 39.3912 84.7998 39.3912C77.388 39.3912 71.7201 33.3666 71.7201 25.8973C71.7201 18.428 77.388 12.458 84.7998 12.458C88.2604 12.458 91.2578 13.7665 93.4105 16.0291Z" fill="#4766F4"/>
<path d="M112.54 38.8732H105.618V12.9759H112.185V17.0105C113.493 14.448 116.109 12.9759 119.543 12.9759H121.014V19.164H120.115C116.491 19.164 112.567 20.4725 112.567 26.8787V38.846L112.54 38.8732Z" fill="#4766F4"/>
<path d="M124.039 12.9759H130.96V38.8732H124.039V12.9759ZM124.039 0H130.96V9.07769H124.039V0Z" fill="#4766F4"/>
<path d="M148.945 20.3362C148.672 18.4007 147.31 17.4466 145.484 17.4466C143.549 17.4466 142.268 18.4552 142.268 19.8183C142.268 21.1813 143.059 21.8083 145.157 22.4353L148.727 23.5257C153.55 24.9977 155.811 27.0968 155.811 30.995C155.811 36.1472 151.669 39.3912 145.484 39.3912C139.298 39.3912 134.884 36.4471 134.72 31.731L141.342 31.0495C141.669 33.3121 143.44 34.348 145.538 34.348C147.855 34.348 149.054 33.2576 149.054 31.622C149.054 30.259 148.263 29.5229 146.111 28.896L142.377 27.8055C137.8 26.4425 135.647 24.1254 135.647 20.4453C135.647 15.6202 140.061 12.458 145.511 12.458C150.961 12.458 154.967 15.184 155.321 19.6547L148.917 20.3362H148.945Z" fill="#4766F4"/>
<path d="M7.3028 19.0005H14.4966C18.0663 19.0005 20.8457 16.2744 20.8457 12.4852C20.8457 8.69605 18.0663 6.43344 14.4966 6.43344H7.3028V19.0005ZM0 0H14.9599C22.0447 0 28.1758 4.52522 28.1758 12.4307C28.1758 20.3362 22.0447 25.4066 14.9599 25.4066H7.3028V38.846H0V0Z" fill="#4766F4"/>
<path d="M0.0272751 43.2894H1.11725V45.443H0.0272751V43.2894ZM0.0272751 46.4516H1.17175V56.4289H0.0272751V46.4516Z" fill="#4766F4"/>
<path d="M3.07919 49.8592H4.11466V50.9223C4.5779 50.2135 5.39539 49.7229 6.32186 49.7229C7.76607 49.7229 8.96504 50.8405 8.96504 52.3399V56.4289H7.87507V52.5307C7.87507 51.3312 6.97584 50.6497 6.10387 50.6497C5.04114 50.6497 4.16917 51.4675 4.16917 52.5307V56.4289H3.07919V49.8319V49.8592Z" fill="#4766F4"/>
<path d="M13.8699 51.522C13.7882 50.9223 13.2977 50.5679 12.6164 50.5679C11.908 50.5679 11.4447 50.9496 11.4447 51.4675C11.4447 52.0127 11.7717 52.2581 12.4529 52.4762L13.2977 52.7215C14.4694 53.0759 15.0144 53.6211 15.0144 54.5479C15.0144 55.7474 14.0879 56.5652 12.6437 56.5652C11.3085 56.5652 10.2185 55.8019 10.1913 54.7388L11.254 54.6025C11.3357 55.284 11.9352 55.7201 12.6709 55.7201C13.4884 55.7201 13.9789 55.284 13.9789 54.657C13.9789 54.1118 13.6519 53.8664 12.9434 53.6211L12.0987 53.3485C10.9815 52.9941 10.4365 52.4762 10.4365 51.5493C10.4365 50.4862 11.4175 49.7229 12.6709 49.7229C13.9244 49.7229 14.8236 50.4316 14.9054 51.413L13.8972 51.522H13.8699Z" fill="#4766F4"/>
<path d="M17.0581 53.1304C17.0581 54.5207 18.148 55.6384 19.5105 55.6384C20.873 55.6384 21.9902 54.5207 21.9902 53.1304C21.9902 51.7401 20.873 50.6225 19.5105 50.6225C18.148 50.6225 17.0581 51.7401 17.0581 53.1304ZM21.9902 51.0586V49.8319H23.0257V56.4289H21.9902V55.1749C21.418 55.9927 20.4915 56.5379 19.3743 56.5379C17.4668 56.5379 15.9681 55.0114 15.9681 53.1031C15.9681 51.1949 17.4668 49.6683 19.3743 49.6683C20.4915 49.6683 21.418 50.1863 21.9902 51.0314" fill="#4766F4"/>
<path d="M24.8241 49.8592H25.8596V50.9223C26.3228 50.2135 27.1403 49.7229 28.0668 49.7229C29.511 49.7229 30.71 50.8405 30.71 52.3399V56.4289H29.62V52.5307C29.62 51.3312 28.7208 50.6497 27.8488 50.6497C26.7861 50.6497 25.9141 51.4675 25.9141 52.5307V56.4289H24.8241V49.8319V49.8592Z" fill="#4766F4"/>
<path d="M36.8138 51.0586L40.8195 46.4516H42.1819L37.931 51.2494L42.2092 56.4289H40.8195L36.8138 51.522V56.4289H35.6693V46.4516H36.8138V51.0586Z" fill="#4766F4"/>
<path d="M43.2174 53.1304C43.2174 54.5207 44.3074 55.6384 45.6698 55.6384C47.0323 55.6384 48.1495 54.5207 48.1495 53.1304C48.1495 51.7401 47.0323 50.6225 45.6698 50.6225C44.3074 50.6225 43.2174 51.7401 43.2174 53.1304ZM48.1495 51.0586V49.8319H49.185V56.4289H48.1495V55.1749C47.5773 55.9927 46.6508 56.5379 45.5336 56.5379C43.6261 56.5379 42.1274 55.0114 42.1274 53.1031C42.1274 51.1949 43.6261 49.6683 45.5336 49.6683C46.6508 49.6683 47.5773 50.1863 48.1495 51.0314" fill="#4766F4"/>
<path d="M52.9454 59.3458H51.9099L52.9181 56.647L50.2205 49.8592H51.3104L53.4631 55.3658L55.5613 49.8592H56.624L52.9454 59.3458Z" fill="#4766F4"/>
<path d="M57.6595 49.8592H58.695V50.9223C59.1582 50.2135 59.9757 49.7229 60.9022 49.7229C62.3464 49.7229 63.5453 50.8405 63.5453 52.3399V56.4289H62.4554V52.5307C62.4554 51.3312 61.5562 50.6497 60.6842 50.6497C59.6215 50.6497 58.7495 51.4675 58.7495 52.5307V56.4289H57.6595V49.8319V49.8592Z" fill="#4766F4"/>
<path d="M65.916 53.1304C65.916 54.5207 67.006 55.6384 68.3685 55.6384C69.7309 55.6384 70.8482 54.5207 70.8482 53.1304C70.8482 51.7401 69.7309 50.6225 68.3685 50.6225C67.006 50.6225 65.916 51.7401 65.916 53.1304ZM70.8482 51.0586V49.8319H71.8836V56.4289H70.8482V55.1749C70.2759 55.9927 69.3495 56.5379 68.2322 56.5379C66.3248 56.5379 64.8261 55.0114 64.8261 53.1031C64.8261 51.1949 66.3248 49.6683 68.2322 49.6683C69.3495 49.6683 70.2759 50.1863 70.8482 51.0314" fill="#4766F4"/>
<path d="M73.6821 46.4516H74.772V52.6397L77.7422 49.8592H78.9957L75.9438 52.7215L79.4862 56.4289H78.151L74.772 52.8851V56.4289H73.6821V46.4516Z" fill="#4766F4"/>
<path d="M81.2574 46.4516H80.1674V56.4289H81.2574V46.4516Z" fill="#4766F4"/>
<path d="M83.7098 53.1304C83.7098 54.5207 84.7998 55.6384 86.1622 55.6384C87.5247 55.6384 88.6419 54.5207 88.6419 53.1304C88.6419 51.7401 87.5247 50.6225 86.1622 50.6225C84.7998 50.6225 83.7098 51.7401 83.7098 53.1304ZM88.6419 51.0586V49.8319H89.6774V56.4289H88.6419V55.1749C88.0697 55.9927 87.1432 56.5379 86.026 56.5379C84.1186 56.5379 82.6198 55.0114 82.6198 53.1031C82.6198 51.1949 84.1186 49.6683 86.026 49.6683C87.1432 49.6683 88.0697 50.1863 88.6419 51.0314" fill="#4766F4"/>
<path d="M92.5658 56.4289H91.4759V49.8319H92.5113V51.1677C92.8656 50.3498 93.6831 49.8319 94.7458 49.8319H94.991V50.8405H94.8003C93.6286 50.8405 92.5658 51.4675 92.5658 53.0214V56.4289Z" fill="#4766F4"/>
<path d="M96.9802 49.8592H95.9993V56.4562H96.9802V49.8592Z" fill="#4766F4"/>
</svg>
