<svg width="127" height="107" viewBox="0 0 127 107" fill="none" xmlns="http://www.w3.org/2000/svg">
<path d="M24.2443 93.9761H25.1236V95.7135H24.2443V93.9761ZM24.2164 96.5336H25.1376V104.637H24.2164V96.5336Z" fill="#4766F4"/>
<path d="M26.7288 99.2997H27.5662V100.148C27.9431 99.5638 28.5991 99.1885 29.3528 99.1885C30.5392 99.1885 31.5023 100.092 31.5023 101.315V104.637H30.6229V101.482C30.6229 100.509 29.8832 99.9668 29.1853 99.9668C28.3199 99.9668 27.6081 100.634 27.6081 101.482V104.637H26.7288V99.2997Z" fill="#4766F4"/>
<path d="M35.522 100.676C35.4522 100.189 35.0475 99.8974 34.5171 99.8974C33.9448 99.8974 33.554 100.217 33.554 100.62C33.554 101.051 33.8332 101.26 34.3636 101.426L35.0614 101.635C36.0106 101.913 36.4572 102.358 36.4572 103.122C36.4572 104.095 35.7035 104.748 34.531 104.748C33.4424 104.748 32.563 104.137 32.5351 103.261L33.3865 103.15C33.4563 103.706 33.9309 104.053 34.545 104.053C35.215 104.053 35.6058 103.706 35.6058 103.192C35.6058 102.761 35.3406 102.552 34.7544 102.358L34.0704 102.135C33.1632 101.843 32.7166 101.426 32.7166 100.662C32.7166 99.8 33.5121 99.1746 34.531 99.1746C35.5499 99.1746 36.2897 99.7444 36.3455 100.551L35.522 100.648V100.676Z" fill="#4766F4"/>
<path d="M38.1181 101.968C38.1181 103.094 38.9975 103.998 40.1141 103.998C41.2307 103.998 42.124 103.094 42.124 101.968C42.124 100.843 41.2167 99.939 40.1141 99.939C39.0114 99.939 38.1181 100.843 38.1181 101.968ZM42.124 100.287V99.2997H42.9754V104.637H42.124V103.636C41.6634 104.304 40.8957 104.748 39.9885 104.748C38.4392 104.748 37.2249 103.497 37.2249 101.968C37.2249 100.439 38.4392 99.1885 39.9885 99.1885C40.8957 99.1885 41.6634 99.6194 42.124 100.287Z" fill="#4766F4"/>
<path d="M44.4549 99.2997H45.2923V100.148C45.6692 99.5638 46.3252 99.1885 47.0789 99.1885C48.2653 99.1885 49.2284 100.092 49.2284 101.315V104.637H48.349V101.482C48.349 100.509 47.6093 99.9668 46.9114 99.9668C46.046 99.9668 45.3342 100.634 45.3342 101.482V104.637H44.4549V99.2997Z" fill="#4766F4"/>
<path d="M54.2252 100.286L57.4913 96.5474H58.5939L55.1464 100.439L58.6358 104.651H57.4913L54.2252 100.676V104.651H53.304V96.5474H54.2252V100.286Z" fill="#4766F4"/>
<path d="M59.4593 101.968C59.4593 103.094 60.3386 103.998 61.4552 103.998C62.5718 103.998 63.4651 103.094 63.4651 101.968C63.4651 100.843 62.5579 99.9391 61.4552 99.9391C60.3526 99.9391 59.4593 100.843 59.4593 101.968ZM63.4651 100.287V99.2997H64.3165V104.637H63.4651V103.636C63.0045 104.304 62.2369 104.748 61.3296 104.748C59.7803 104.748 58.566 103.497 58.566 101.968C58.566 100.439 59.7803 99.1885 61.3296 99.1885C62.2369 99.1885 63.0045 99.6194 63.4651 100.287Z" fill="#4766F4"/>
<path d="M67.3872 107H66.5358L67.3593 104.818L65.154 99.2996H66.0473L67.792 103.775L69.5088 99.2996H70.3602L67.3872 107Z" fill="#4766F4"/>
<path d="M71.2115 99.2997H72.049V100.148C72.4259 99.5638 73.0819 99.1885 73.8356 99.1885C75.022 99.1885 75.985 100.092 75.985 101.315V104.637H75.1057V101.482C75.1057 100.509 74.366 99.9669 73.6681 99.9669C72.8027 99.9669 72.0909 100.634 72.0909 101.482V104.637H71.2115V99.2997Z" fill="#4766F4"/>
<path d="M77.9391 101.968C77.9391 103.094 78.8184 103.998 79.935 103.998C81.0516 103.998 81.9449 103.094 81.9449 101.968C81.9449 100.843 81.0377 99.9391 79.935 99.9391C78.8324 99.9391 77.9391 100.843 77.9391 101.968ZM81.9449 100.287V99.2997H82.7963V104.637H81.9449V103.636C81.4843 104.304 80.7167 104.748 79.8094 104.748C78.2601 104.748 77.0458 103.497 77.0458 101.968C77.0458 100.439 78.2601 99.1885 79.8094 99.1885C80.7167 99.1885 81.4843 99.6194 81.9449 100.287Z" fill="#4766F4"/>
<path d="M84.2758 96.5474H85.1552V101.579L87.5838 99.2995H88.6167L86.1182 101.649L89.0075 104.651H87.9048L85.1552 101.774V104.651H84.2758V96.5474Z" fill="#4766F4"/>
<path d="M90.4451 96.5474H89.5658V104.651H90.4451V96.5474Z" fill="#4766F4"/>
<path d="M92.4411 101.968C92.4411 103.094 93.3204 103.998 94.437 103.998C95.5536 103.998 96.4469 103.094 96.4469 101.968C96.4469 100.843 95.5396 99.9391 94.437 99.9391C93.3343 99.9391 92.4411 100.843 92.4411 101.968ZM96.4469 100.287V99.2997H97.2983V104.637H96.4469V103.636C95.9863 104.304 95.2186 104.748 94.3114 104.748C92.7621 104.748 91.5338 103.497 91.5338 101.968C91.5338 100.439 92.7481 99.1885 94.3114 99.1885C95.2186 99.1885 95.9863 99.6194 96.4469 100.287Z" fill="#4766F4"/>
<path d="M99.6711 104.651H98.7917V99.3136H99.6292V100.398C99.9223 99.7445 100.578 99.3136 101.444 99.3136H101.639V100.12H101.486C100.536 100.12 99.6711 100.634 99.6711 101.899V104.651Z" fill="#4766F4"/>
<path d="M103.244 99.2996H102.449V104.637H103.244V99.2996Z" fill="#4766F4"/>
<path d="M28.7945 79.8678C28.7945 83.2732 31.4046 85.9142 34.7404 85.9142C38.0763 85.9142 40.6864 83.2732 40.6864 79.8678C40.6864 76.4624 38.0763 73.8631 34.7404 73.8631C31.4046 73.8631 28.7945 76.5041 28.7945 79.8678ZM46.2833 79.8678C46.2833 85.8725 41.454 90.8208 34.7404 90.8208C28.0268 90.8208 23.1975 85.8725 23.1975 79.8678C23.1975 73.8631 27.985 68.9565 34.7404 68.9565C41.4959 68.9565 46.2833 73.9048 46.2833 79.8678Z" fill="#4766F4"/>
<path d="M55.1883 58.8652H49.5355V90.3898H55.1883V58.8652Z" fill="#4766F4"/>
<path d="M64.163 79.8678C64.163 83.3149 66.773 86.0393 70.1089 86.0393C73.4448 86.0393 76.0967 83.3149 76.0967 79.8678C76.0967 76.4207 73.4448 73.738 70.1089 73.738C66.773 73.738 64.163 76.4624 64.163 79.8678ZM76.1386 71.8616V69.3874H81.5681V90.3899H76.1386V87.8324C74.3799 89.6671 71.9513 90.8208 69.1179 90.8208C63.0883 90.8208 58.4683 85.9281 58.4683 79.8678C58.4683 73.8075 63.0883 68.9565 69.1179 68.9565C71.9374 68.9565 74.3799 70.0268 76.1386 71.8477" fill="#4766F4"/>
<path d="M91.7152 90.3899H86.0624V69.3874H91.4082V72.6678C92.4829 70.5828 94.6184 69.3874 97.396 69.3874H98.5963V74.4191H97.8705C94.9255 74.4191 91.7152 75.4894 91.7152 80.6879V90.4038V90.3899Z" fill="#4766F4"/>
<path d="M101.081 69.3873H106.734V90.3898H101.081V69.3873ZM101.081 58.8652H106.734V66.2321H101.081V58.8652Z" fill="#4766F4"/>
<path d="M121.389 75.3503C121.18 73.7797 120.063 73.0013 118.57 73.0013C116.992 73.0013 115.96 73.8075 115.96 74.9195C115.96 76.0314 116.602 76.5318 118.318 77.0461L121.222 77.9357C125.158 79.1311 127 80.8268 127 83.9821C127 88.152 123.622 90.7929 118.57 90.7929C113.517 90.7929 109.93 88.4022 109.804 84.5798L115.192 84.0238C115.443 85.8585 116.909 86.7064 118.612 86.7064C120.496 86.7064 121.473 85.8168 121.473 84.4964C121.473 83.3844 120.831 82.7867 119.072 82.2863L116.029 81.3967C112.303 80.2848 110.558 78.4083 110.558 75.4337C110.558 71.514 114.145 68.9565 118.598 68.9565C123.05 68.9565 126.302 71.1665 126.595 74.7944L121.375 75.3503H121.389Z" fill="#4766F4"/>
<path d="M5.94593 74.2801H11.8081C14.7113 74.2801 16.9864 72.07 16.9864 68.9982C16.9864 65.9263 14.7252 64.1055 11.8081 64.1055H5.94593V74.2801ZM0 58.8653H12.185C17.9634 58.8653 22.9602 62.5348 22.9602 68.9565C22.9602 75.3782 17.9494 79.4786 12.185 79.4786H5.94593V90.3898H0V58.8653Z" fill="#4766F4"/>
<path d="M39.0673 13.2464L46.6881 20.8357C50.4706 24.6025 56.3188 24.6581 60.3247 20.6689C64.163 16.8465 63.7722 11.3561 59.9897 7.58924L52.3688 0L39.0673 13.2464Z" fill="#4766F4"/>
<path d="M87.9327 35.4304L80.3119 27.8411C76.5294 24.0743 70.6812 24.0187 66.6754 28.0079C62.837 31.8303 63.2278 37.3207 67.0103 41.0876L74.6312 48.6768L87.9327 35.4304Z" fill="#4766F4"/>
<path d="M52.3688 48.6768L59.9897 41.0876C63.7722 37.3207 63.828 31.4968 59.8222 27.5075C55.9838 23.6851 50.4706 24.0743 46.6881 27.8411L39.0673 35.4304L52.3688 48.6768Z" fill="#4766F4"/>
<path d="M74.6312 0L67.0103 7.58924C63.2278 11.3561 63.172 17.18 67.1778 21.1693C71.0162 24.9917 76.5294 24.6025 80.3119 20.8357L87.9327 13.2464L74.6312 0Z" fill="#4766F4"/>
</svg>
