<svg width="222" height="60" viewBox="0 0 222 60" fill="none" xmlns="http://www.w3.org/2000/svg">
<path d="M101.531 26.2244C101.531 30.4225 104.719 33.6938 108.834 33.6938C112.948 33.6938 116.137 30.4498 116.137 26.2244C116.137 21.9991 112.921 18.8096 108.834 18.8096C104.746 18.8096 101.531 22.0536 101.531 26.2244ZM123.003 26.2244C123.003 33.6392 117.063 39.7183 108.834 39.7183C100.604 39.7183 94.6641 33.6392 94.6641 26.2244C94.6641 18.8096 100.55 12.7851 108.834 12.7851C117.063 12.7851 123.003 18.8641 123.003 26.2244Z" fill="white"/>
<path d="M133.903 0.327111H126.982V39.1731H133.903V0.327111Z" fill="white"/>
<path d="M144.912 26.2244C144.912 30.477 148.127 33.8301 152.215 33.8301C156.302 33.8301 159.572 30.477 159.572 26.2244C159.572 21.9718 156.329 18.6733 152.215 18.6733C148.1 18.6733 144.912 22.0263 144.912 26.2244ZM159.599 16.3562V13.303H166.275V39.2003H159.599V36.0382C157.446 38.3008 154.449 39.7183 150.988 39.7183C143.577 39.7183 137.909 33.6938 137.909 26.2244C137.909 18.7551 143.577 12.7851 150.988 12.7851C154.449 12.7851 157.446 14.0936 159.599 16.3562Z" fill="white"/>
<path d="M178.728 39.2003H171.807V13.303H178.374V17.3376C179.682 14.7751 182.298 13.303 185.731 13.303H187.203V19.4911H186.303C182.679 19.4911 178.755 20.7996 178.755 27.2058V39.1731L178.728 39.2003Z" fill="white"/>
<path d="M190.227 13.303H197.149V39.2003H190.227V13.303ZM190.227 0.327111H197.149V9.4048H190.227V0.327111Z" fill="white"/>
<path d="M215.133 20.6633C214.861 18.7278 213.498 17.7737 211.673 17.7737C209.738 17.7737 208.457 18.7824 208.457 20.1454C208.457 21.5084 209.247 22.1354 211.346 22.7624L214.915 23.8528C219.738 25.3248 222 27.4239 222 31.3221C222 36.4743 217.858 39.7183 211.673 39.7183C205.487 39.7183 201.073 36.7742 200.909 32.0581L207.531 31.3766C207.858 33.6392 209.629 34.6751 211.727 34.6751C214.043 34.6751 215.242 33.5847 215.242 31.9491C215.242 30.5861 214.452 29.8501 212.299 29.2231L208.566 28.1327C203.988 26.7696 201.836 24.4525 201.836 20.7724C201.836 15.9473 206.25 12.7851 211.7 12.7851C217.15 12.7851 221.155 15.5111 221.51 19.9818L215.106 20.6633H215.133Z" fill="white"/>
<path d="M73.4914 19.3276H80.6852C84.2549 19.3276 87.0343 16.6015 87.0343 12.8123C87.0343 9.02316 84.2549 6.76055 80.6852 6.76055H73.4914V19.3276ZM66.1886 0.327111H81.1485C88.2333 0.327111 94.3644 4.85233 94.3644 12.7578C94.3644 20.6633 88.2333 25.7337 81.1485 25.7337H73.4914V39.1731H66.1886V0.327111Z" fill="white"/>
<path d="M0 16.3289L9.3465 25.6792C13.9789 30.3135 21.1727 30.3953 26.0776 25.4612C30.7917 20.7451 30.3012 13.9846 25.6688 9.3503L16.3223 0L0 16.3289Z" fill="white"/>
<path d="M59.9757 43.6711L50.6292 34.3208C45.9968 29.6865 38.803 29.6047 33.8981 34.5388C29.184 39.2549 29.6745 46.0154 34.3068 50.6497L43.6534 60L59.9757 43.6711Z" fill="white"/>
<path d="M16.3223 60L25.6688 50.6497C30.3012 46.0154 30.3829 38.8187 25.4508 33.9119C20.7367 29.1958 13.9789 29.6865 9.3465 34.3208L0 43.6711L16.3223 60Z" fill="white"/>
<path d="M43.6534 0L34.3068 9.3503C29.6745 13.9846 29.5927 21.1813 34.5248 26.0881C39.239 30.8042 45.9968 30.3135 50.6292 25.6792L59.9757 16.3289L43.6534 0Z" fill="white"/>
<path d="M66.2159 43.6165H67.3059V45.7701H66.2159V43.6165ZM66.2159 46.7787H67.3604V56.756H66.2159V46.7787Z" fill="white"/>
<path d="M69.2678 50.1863H70.3033V51.2494C70.7665 50.5407 71.584 50.05 72.5105 50.05C73.9547 50.05 75.1537 51.1676 75.1537 52.667V56.756H74.0637V52.8578C74.0637 51.6583 73.1645 50.9768 72.2925 50.9768C71.2298 50.9768 70.3578 51.7946 70.3578 52.8578V56.756H69.2678V50.159V50.1863Z" fill="white"/>
<path d="M80.0585 51.8492C79.9768 51.2494 79.4863 50.895 78.8051 50.895C78.0966 50.895 77.6333 51.2767 77.6333 51.7946C77.6333 52.3398 77.9603 52.5852 78.6416 52.8033L79.4863 53.0486C80.658 53.403 81.203 53.9482 81.203 54.8751C81.203 56.0745 80.2765 56.8923 78.8323 56.8923C77.4971 56.8923 76.4071 56.129 76.3799 55.0659L77.4426 54.9296C77.5243 55.6111 78.1238 56.0472 78.8596 56.0472C79.677 56.0472 80.1675 55.6111 80.1675 54.9841C80.1675 54.4389 79.8405 54.1935 79.132 53.9482L78.2873 53.6756C77.1701 53.3212 76.6251 52.8033 76.6251 51.8764C76.6251 50.8133 77.6061 50.05 78.8596 50.05C80.113 50.05 81.0122 50.7587 81.094 51.7401L80.0858 51.8492H80.0585Z" fill="white"/>
<path d="M83.2467 53.4575C83.2467 54.8478 84.3367 55.9655 85.6991 55.9655C87.0616 55.9655 88.1788 54.8478 88.1788 53.4575C88.1788 52.0672 87.0616 50.9496 85.6991 50.9496C84.3367 50.9496 83.2467 52.0672 83.2467 53.4575ZM88.1788 51.3857V50.159H89.2143V56.756H88.1788V55.502C87.6066 56.3199 86.6801 56.8651 85.5629 56.8651C83.6554 56.8651 82.1567 55.3385 82.1567 53.4303C82.1567 51.522 83.6554 49.9955 85.5629 49.9955C86.6801 49.9955 87.6066 50.5134 88.1788 51.3585" fill="white"/>
<path d="M91.0127 50.1863H92.0482V51.2494C92.5114 50.5407 93.3289 50.05 94.2554 50.05C95.6996 50.05 96.8986 51.1676 96.8986 52.667V56.756H95.8086V52.8578C95.8086 51.6583 94.9094 50.9768 94.0374 50.9768C92.9747 50.9768 92.1027 51.7946 92.1027 52.8578V56.756H91.0127V50.159V50.1863Z" fill="white"/>
<path d="M103.002 51.3857L107.008 46.7787H108.371L104.12 51.5766L108.398 56.756H107.008L103.002 51.8492V56.756H101.858V46.7787H103.002V51.3857Z" fill="white"/>
<path d="M109.406 53.4575C109.406 54.8478 110.496 55.9655 111.858 55.9655C113.221 55.9655 114.338 54.8478 114.338 53.4575C114.338 52.0672 113.221 50.9496 111.858 50.9496C110.496 50.9496 109.406 52.0672 109.406 53.4575ZM114.338 51.3857V50.159H115.374V56.756H114.338V55.502C113.766 56.3199 112.839 56.8651 111.722 56.8651C109.815 56.8651 108.316 55.3385 108.316 53.4303C108.316 51.522 109.815 49.9955 111.722 49.9955C112.839 49.9955 113.766 50.5134 114.338 51.3585" fill="white"/>
<path d="M119.134 59.6729H118.099L119.107 56.9741L116.409 50.1863H117.499L119.652 55.6929L121.75 50.1863H122.813L119.134 59.6729Z" fill="white"/>
<path d="M123.848 50.1863H124.884V51.2494C125.347 50.5407 126.164 50.05 127.091 50.05C128.535 50.05 129.734 51.1676 129.734 52.667V56.756H128.644V52.8578C128.644 51.6583 127.745 50.9768 126.873 50.9768C125.81 50.9768 124.938 51.7946 124.938 52.8578V56.756H123.848V50.159V50.1863Z" fill="white"/>
<path d="M132.105 53.4575C132.105 54.8478 133.195 55.9655 134.557 55.9655C135.92 55.9655 137.037 54.8478 137.037 53.4575C137.037 52.0672 135.92 50.9496 134.557 50.9496C133.195 50.9496 132.105 52.0672 132.105 53.4575ZM137.037 51.3857V50.159H138.072V56.756H137.037V55.502C136.465 56.3199 135.538 56.8651 134.421 56.8651C132.513 56.8651 131.015 55.3385 131.015 53.4303C131.015 51.522 132.513 49.9955 134.421 49.9955C135.538 49.9955 136.465 50.5134 137.037 51.3585" fill="white"/>
<path d="M139.871 46.7787H140.961V52.9668L143.931 50.1863H145.184L142.132 53.0486L145.675 56.756H144.34L140.961 53.2122V56.756H139.871V46.7787Z" fill="white"/>
<path d="M147.446 46.7787H146.356V56.756H147.446V46.7787Z" fill="white"/>
<path d="M149.898 53.4575C149.898 54.8478 150.988 55.9655 152.351 55.9655C153.713 55.9655 154.831 54.8478 154.831 53.4575C154.831 52.0672 153.713 50.9496 152.351 50.9496C150.988 50.9496 149.898 52.0672 149.898 53.4575ZM154.831 51.3857V50.159H155.866V56.756H154.831V55.502C154.258 56.3199 153.332 56.8651 152.215 56.8651C150.307 56.8651 148.808 55.3385 148.808 53.4303C148.808 51.522 150.307 49.9955 152.215 49.9955C153.332 49.9955 154.258 50.5134 154.831 51.3585" fill="white"/>
<path d="M158.754 56.756H157.664V50.159H158.7V51.4948C159.054 50.677 159.872 50.159 160.934 50.159H161.18V51.1676H160.989C159.817 51.1676 158.754 51.7946 158.754 53.3485V56.756Z" fill="white"/>
<path d="M163.169 50.1863H162.188V56.7833H163.169V50.1863Z" fill="white"/>
</svg>
